<svg width="1100" height="1513" viewBox="0 0 1100 1513" fill="none" xmlns="http://www.w3.org/2000/svg">
<rect width="1100" height="1513" fill="#1E1E1E"/>
<rect width="1100" height="472" transform="translate(0 2)" fill="#F7ECDF"/>
<path d="M535 263L1.5 3H1099.5L535 263Z" stroke="#B3CC1F"/>
<path d="M1009.73 382.134C1004.3 376.702 997.85 372.393 990.753 369.453C983.655 366.513 968.366 365 968.366 365C960.683 365 953.076 366.513 945.979 369.453C938.881 372.393 932.432 376.702 927 382.134" stroke="#B3CC1F" stroke-opacity="0.5" stroke-width="10"/>
<path d="M964.181 365.726C958.172 363.352 952.477 362.248 947.421 362.477C942.365 362.706 934.714 367.061 934.714 367.061C931.38 369.858 929.097 373.84 927.993 378.779" stroke="#B3CC1F" stroke-opacity="0.5" stroke-width="10"/>
<path d="M1009.63 382.478C1007.16 377.248 1003.9 372.87 1000.04 369.596C996.188 366.321 987.151 363.392 987.151 363.392C982.496 362.571 977.658 363.054 972.914 364.812" stroke="#B3CC1F" stroke-opacity="0.5" stroke-width="10"/>
<path d="M999 395C994.929 390.878 990.096 387.609 984.777 385.379C979.458 383.148 973.757 382 968 382C962.243 382 956.542 383.148 951.223 385.379C945.904 387.609 941.071 390.878 937 395" stroke="#553F2E" stroke-opacity="0.5" stroke-width="10"/>
<path d="M986 407C983.636 404.781 980.83 403.02 977.742 401.819C974.653 400.618 971.343 400 968 400C964.657 400 961.347 400.618 958.258 401.819C955.17 403.02 952.364 404.781 950 407" stroke="#553F2E" stroke-opacity="0.5" stroke-width="10"/>
<path d="M939.011 451L932.364 429.182H935.886L940.602 445.886H940.83L945.489 429.182H949.068L953.67 445.83H953.898L958.614 429.182H962.136L955.489 451H952.193L947.42 434.239H947.08L942.307 451H939.011ZM966.568 451V429.182H969.92V451H966.568ZM968.273 425.545C967.619 425.545 967.056 425.323 966.582 424.878C966.118 424.433 965.886 423.898 965.886 423.273C965.886 422.648 966.118 422.113 966.582 421.668C967.056 421.223 967.619 421 968.273 421C968.926 421 969.485 421.223 969.949 421.668C970.422 422.113 970.659 422.648 970.659 423.273C970.659 423.898 970.422 424.433 969.949 424.878C969.485 425.323 968.926 425.545 968.273 425.545ZM985.776 429.182V432.023H974.015V429.182H985.776ZM977.538 451V426.17C977.538 424.92 977.831 423.879 978.418 423.045C979.005 422.212 979.768 421.587 980.705 421.17C981.643 420.754 982.632 420.545 983.674 420.545C984.498 420.545 985.17 420.612 985.691 420.744C986.212 420.877 986.6 421 986.856 421.114L985.89 424.011C985.719 423.955 985.483 423.884 985.18 423.798C984.886 423.713 984.498 423.67 984.015 423.67C982.907 423.67 982.107 423.95 981.614 424.509C981.131 425.067 980.89 425.886 980.89 426.966V451H977.538ZM992.634 459.182C992.065 459.182 991.559 459.134 991.114 459.04C990.669 458.955 990.361 458.869 990.19 458.784L991.043 455.83C991.857 456.038 992.577 456.114 993.202 456.057C993.827 456 994.381 455.721 994.864 455.219C995.356 454.726 995.806 453.926 996.213 452.818L996.838 451.114L988.77 429.182H992.406L998.429 446.568H998.656L1004.68 429.182H1008.32L999.054 454.182C998.637 455.309 998.121 456.241 997.506 456.98C996.89 457.728 996.175 458.282 995.361 458.642C994.556 459.002 993.647 459.182 992.634 459.182Z" fill="#553F2E" fill-opacity="0.5"/>
<path d="M939.011 451L938.055 451.291L938.271 452H939.011V451ZM932.364 429.182V428.182H931.014L931.407 429.473L932.364 429.182ZM935.886 429.182L936.849 428.91L936.643 428.182H935.886V429.182ZM940.602 445.886L939.64 446.158L939.845 446.886H940.602V445.886ZM940.83 445.886V446.886H941.589L941.793 446.155L940.83 445.886ZM945.489 429.182V428.182H944.729L944.525 428.913L945.489 429.182ZM949.068 429.182L950.032 428.915L949.829 428.182H949.068V429.182ZM953.67 445.83L952.707 446.096L952.909 446.83H953.67V445.83ZM953.898 445.83V446.83H954.654L954.86 446.102L953.898 445.83ZM958.614 429.182V428.182H957.858L957.651 428.909L958.614 429.182ZM962.136 429.182L963.093 429.473L963.486 428.182H962.136V429.182ZM955.489 451V452H956.229L956.445 451.291L955.489 451ZM952.193 451L951.231 451.274L951.438 452H952.193V451ZM947.42 434.239L948.382 433.965L948.175 433.239H947.42V434.239ZM947.08 434.239V433.239H946.325L946.118 433.965L947.08 434.239ZM942.307 451V452H943.062L943.269 451.274L942.307 451ZM939.968 450.709L933.32 428.89L931.407 429.473L938.055 451.291L939.968 450.709ZM932.364 430.182H935.886V428.182H932.364V430.182ZM934.924 429.454L939.64 446.158L941.565 445.615L936.849 428.91L934.924 429.454ZM940.602 446.886H940.83V444.886H940.602V446.886ZM941.793 446.155L946.452 429.45L944.525 428.913L939.866 445.618L941.793 446.155ZM945.489 430.182H949.068V428.182H945.489V430.182ZM948.104 429.448L952.707 446.096L954.634 445.563L950.032 428.915L948.104 429.448ZM953.67 446.83H953.898V444.83H953.67V446.83ZM954.86 446.102L959.576 429.454L957.651 428.909L952.936 445.557L954.86 446.102ZM958.614 430.182H962.136V428.182H958.614V430.182ZM961.18 428.89L954.532 450.709L956.445 451.291L963.093 429.473L961.18 428.89ZM955.489 450H952.193V452H955.489V450ZM953.155 450.726L948.382 433.965L946.459 434.512L951.231 451.274L953.155 450.726ZM947.42 433.239H947.08V435.239H947.42V433.239ZM946.118 433.965L941.345 450.726L943.269 451.274L948.041 434.512L946.118 433.965ZM942.307 450H939.011V452H942.307V450ZM966.568 451H965.568V452H966.568V451ZM966.568 429.182V428.182H965.568V429.182H966.568ZM969.92 429.182H970.92V428.182H969.92V429.182ZM969.92 451V452H970.92V451H969.92ZM966.582 424.878L965.89 425.6L965.897 425.606L966.582 424.878ZM966.582 421.668L965.897 420.939L965.89 420.946L966.582 421.668ZM969.949 421.668L969.257 422.389L969.264 422.396L969.949 421.668ZM969.949 424.878L969.264 424.149L969.257 424.156L969.949 424.878ZM967.568 451V429.182H965.568V451H967.568ZM966.568 430.182H969.92V428.182H966.568V430.182ZM968.92 429.182V451H970.92V429.182H968.92ZM969.92 450H966.568V452H969.92V450ZM968.273 424.545C967.872 424.545 967.554 424.419 967.267 424.149L965.897 425.606C966.558 426.227 967.366 426.545 968.273 426.545V424.545ZM967.275 424.156C967.001 423.894 966.886 423.617 966.886 423.273H964.886C964.886 424.179 965.236 424.972 965.89 425.6L967.275 424.156ZM966.886 423.273C966.886 422.929 967.001 422.652 967.275 422.389L965.89 420.946C965.236 421.573 964.886 422.367 964.886 423.273H966.886ZM967.267 422.396C967.554 422.127 967.872 422 968.273 422V420C967.366 420 966.558 420.319 965.897 420.939L967.267 422.396ZM968.273 422C968.673 422 968.982 422.126 969.257 422.389L970.641 420.946C969.988 420.319 969.179 420 968.273 420V422ZM969.264 422.396C969.545 422.661 969.659 422.936 969.659 423.273H971.659C971.659 422.36 971.299 421.565 970.634 420.939L969.264 422.396ZM969.659 423.273C969.659 423.61 969.545 423.885 969.264 424.149L970.634 425.606C971.299 424.981 971.659 424.186 971.659 423.273H969.659ZM969.257 424.156C968.982 424.419 968.673 424.545 968.273 424.545V426.545C969.179 426.545 969.988 426.226 970.641 425.6L969.257 424.156ZM985.776 429.182H986.776V428.182H985.776V429.182ZM985.776 432.023V433.023H986.776V432.023H985.776ZM974.015 432.023H973.015V433.023H974.015V432.023ZM974.015 429.182V428.182H973.015V429.182H974.015ZM977.538 451H976.538V452H977.538V451ZM978.418 423.045L977.601 422.469L977.601 422.469L978.418 423.045ZM980.705 421.17L980.299 420.257L980.299 420.257L980.705 421.17ZM985.691 420.744L985.444 421.713L985.444 421.713L985.691 420.744ZM986.856 421.114L987.805 421.43L988.092 420.569L987.262 420.2L986.856 421.114ZM985.89 424.011L985.574 424.96L986.522 425.276L986.839 424.328L985.89 424.011ZM985.18 423.798L984.901 424.759L984.909 424.761L985.18 423.798ZM981.614 424.509L980.864 423.847L980.858 423.855L981.614 424.509ZM980.89 451V452H981.89V451H980.89ZM984.776 429.182V432.023H986.776V429.182H984.776ZM985.776 431.023H974.015V433.023H985.776V431.023ZM975.015 432.023V429.182H973.015V432.023H975.015ZM974.015 430.182H985.776V428.182H974.015V430.182ZM978.538 451V426.17H976.538V451H978.538ZM978.538 426.17C978.538 425.079 978.792 424.251 979.236 423.621L977.601 422.469C976.87 423.506 976.538 424.762 976.538 426.17H978.538ZM979.236 423.621C979.718 422.937 980.338 422.428 981.111 422.084L980.299 420.257C979.198 420.746 978.293 421.487 977.601 422.469L979.236 423.621ZM981.111 422.084C981.919 421.725 982.77 421.545 983.674 421.545V419.545C982.495 419.545 981.366 419.782 980.299 420.257L981.111 422.084ZM983.674 421.545C984.454 421.545 985.035 421.609 985.444 421.713L985.938 419.775C985.306 419.614 984.542 419.545 983.674 419.545V421.545ZM985.444 421.713C985.951 421.842 986.273 421.949 986.45 422.027L987.262 420.2C986.927 420.051 986.473 419.911 985.938 419.775L985.444 421.713ZM985.907 420.797L984.941 423.695L986.839 424.328L987.805 421.43L985.907 420.797ZM986.206 423.063C986.014 422.998 985.759 422.922 985.45 422.836L984.909 424.761C985.206 424.845 985.425 424.911 985.574 424.96L986.206 423.063ZM985.459 422.838C985.038 422.716 984.544 422.67 984.015 422.67V424.67C984.451 424.67 984.735 424.71 984.901 424.759L985.459 422.838ZM984.015 422.67C982.761 422.67 981.623 422.986 980.864 423.847L982.365 425.17C982.59 424.914 983.052 424.67 984.015 424.67V422.67ZM980.858 423.855C980.159 424.663 979.89 425.755 979.89 426.966H981.89C981.89 426.018 982.104 425.472 982.371 425.162L980.858 423.855ZM979.89 426.966V451H981.89V426.966H979.89ZM980.89 450H977.538V452H980.89V450ZM991.114 459.04L991.322 458.062L991.312 458.06L991.302 458.058L991.114 459.04ZM990.19 458.784L989.23 458.507L988.999 459.306L989.743 459.679L990.19 458.784ZM991.043 455.83L991.29 454.861L990.351 454.62L990.082 455.552L991.043 455.83ZM993.202 456.057L993.111 455.061L993.111 455.061L993.202 456.057ZM994.864 455.219L994.157 454.512L994.15 454.518L994.143 454.525L994.864 455.219ZM996.213 452.818L997.152 453.163L997.152 453.162L996.213 452.818ZM996.838 451.114L997.777 451.458L997.903 451.113L997.777 450.768L996.838 451.114ZM988.77 429.182V428.182H987.336L987.831 429.527L988.77 429.182ZM992.406 429.182L993.351 428.854L993.118 428.182H992.406V429.182ZM998.429 446.568L997.484 446.896L997.717 447.568H998.429V446.568ZM998.656 446.568V447.568H999.368L999.601 446.896L998.656 446.568ZM1004.68 429.182V428.182H1003.97L1003.73 428.854L1004.68 429.182ZM1008.32 429.182L1009.25 429.529L1009.75 428.182H1008.32V429.182ZM999.054 454.182L998.116 453.834L998.116 453.835L999.054 454.182ZM997.506 456.98L996.737 456.34L996.733 456.345L997.506 456.98ZM995.361 458.642L994.957 457.727L994.953 457.729L995.361 458.642ZM992.634 458.182C992.119 458.182 991.684 458.139 991.322 458.062L990.906 460.018C991.433 460.13 992.012 460.182 992.634 460.182V458.182ZM991.302 458.058C991.096 458.018 990.936 457.981 990.816 457.948C990.757 457.932 990.712 457.918 990.68 457.906C990.646 457.894 990.634 457.888 990.638 457.89L989.743 459.679C990.049 459.832 990.48 459.937 990.926 460.022L991.302 458.058ZM991.151 459.061L992.003 456.107L990.082 455.552L989.23 458.507L991.151 459.061ZM990.795 456.798C991.684 457.026 992.523 457.123 993.292 457.053L993.111 455.061C992.631 455.105 992.03 455.05 991.29 454.861L990.795 456.798ZM993.292 457.053C994.184 456.972 994.954 456.567 995.584 455.912L994.143 454.525C993.807 454.874 993.47 455.028 993.111 455.061L993.292 457.053ZM995.571 455.926C996.213 455.283 996.725 454.325 997.152 453.163L995.274 452.473C994.887 453.527 994.499 454.169 994.157 454.512L995.571 455.926ZM997.152 453.162L997.777 451.458L995.899 450.769L995.274 452.474L997.152 453.162ZM997.777 450.768L989.708 428.837L987.831 429.527L995.9 451.459L997.777 450.768ZM988.77 430.182H992.406V428.182H988.77V430.182ZM991.461 429.509L997.484 446.896L999.374 446.241L993.351 428.854L991.461 429.509ZM998.429 447.568H998.656V445.568H998.429V447.568ZM999.601 446.896L1005.62 429.509L1003.73 428.854L997.711 446.241L999.601 446.896ZM1004.68 430.182H1008.32V428.182H1004.68V430.182ZM1007.38 428.834L998.116 453.834L999.992 454.529L1009.25 429.529L1007.38 428.834ZM998.116 453.835C997.729 454.881 997.265 455.707 996.737 456.34L998.274 457.62C998.978 456.776 999.545 455.737 999.992 454.529L998.116 453.835ZM996.733 456.345C996.208 456.983 995.616 457.436 994.957 457.727L995.765 459.557C996.734 459.128 997.572 458.473 998.278 457.615L996.733 456.345ZM994.953 457.729C994.294 458.024 993.527 458.182 992.634 458.182V460.182C993.767 460.182 994.818 459.98 995.769 459.555L994.953 457.729Z" fill="#553F2E" fill-opacity="0.5"/>
<path d="M1023.86 451V429.182H1027.93V432.733H1028.2C1028.66 431.53 1029.4 430.593 1030.43 429.92C1031.46 429.239 1032.7 428.898 1034.14 428.898C1035.6 428.898 1036.82 429.239 1037.8 429.92C1038.8 430.602 1039.53 431.54 1040.01 432.733H1040.23C1040.75 431.568 1041.58 430.64 1042.72 429.949C1043.86 429.248 1045.21 428.898 1046.78 428.898C1048.76 428.898 1050.38 429.518 1051.62 430.759C1052.88 431.999 1053.51 433.869 1053.51 436.369V451H1049.27V436.767C1049.27 435.29 1048.86 434.22 1048.06 433.557C1047.25 432.894 1046.29 432.562 1045.18 432.562C1043.79 432.562 1042.72 432.989 1041.95 433.841C1041.18 434.684 1040.8 435.768 1040.8 437.094V451H1036.57V436.497C1036.57 435.313 1036.2 434.362 1035.46 433.642C1034.72 432.922 1033.76 432.562 1032.58 432.562C1031.77 432.562 1031.03 432.776 1030.35 433.202C1029.67 433.618 1029.13 434.201 1028.71 434.949C1028.31 435.697 1028.1 436.563 1028.1 437.548V451H1023.86ZM1068.61 451.44C1066.46 451.44 1064.61 450.981 1063.06 450.062C1061.51 449.134 1060.32 447.832 1059.48 446.156C1058.64 444.471 1058.23 442.496 1058.23 440.233C1058.23 437.998 1058.64 436.028 1059.48 434.324C1060.32 432.619 1061.49 431.289 1063 430.332C1064.51 429.376 1066.29 428.898 1068.31 428.898C1069.54 428.898 1070.74 429.101 1071.89 429.509C1073.05 429.916 1074.08 430.555 1075 431.426C1075.92 432.297 1076.65 433.429 1077.18 434.821C1077.71 436.204 1077.97 437.884 1077.97 439.864V441.369H1060.63V438.188H1073.81C1073.81 437.07 1073.58 436.08 1073.13 435.219C1072.67 434.348 1072.03 433.661 1071.21 433.159C1070.4 432.657 1069.44 432.406 1068.34 432.406C1067.15 432.406 1066.11 432.7 1065.22 433.287C1064.33 433.865 1063.65 434.622 1063.17 435.56C1062.7 436.488 1062.46 437.496 1062.46 438.585V441.071C1062.46 442.529 1062.72 443.77 1063.23 444.793C1063.75 445.815 1064.47 446.597 1065.4 447.136C1066.33 447.667 1067.41 447.932 1068.65 447.932C1069.46 447.932 1070.19 447.818 1070.85 447.591C1071.52 447.354 1072.09 447.004 1072.57 446.54C1073.06 446.076 1073.43 445.503 1073.68 444.821L1077.7 445.545C1077.38 446.729 1076.8 447.766 1075.97 448.656C1075.14 449.537 1074.11 450.223 1072.86 450.716C1071.62 451.199 1070.2 451.44 1068.61 451.44Z" fill="#B3CC1F" fill-opacity="0.5"/>
<g clip-path="url(#clip0_0_1)">
<rect width="1087" height="546" transform="translate(13 756)" fill="#F7ECDF"/>
<path d="M122.079 908.249C120.86 908.249 119.771 908.038 118.812 907.618C117.859 907.198 117.104 906.615 116.548 905.869C115.998 905.118 115.702 904.248 115.66 903.259H118.448C118.483 903.798 118.664 904.265 118.989 904.662C119.321 905.053 119.753 905.354 120.286 905.567C120.818 905.781 121.41 905.887 122.061 905.887C122.777 905.887 123.411 905.763 123.961 905.514C124.517 905.266 124.952 904.919 125.266 904.475C125.58 904.026 125.737 903.508 125.737 902.922C125.737 902.312 125.58 901.777 125.266 901.315C124.958 900.847 124.505 900.48 123.908 900.214C123.316 899.948 122.6 899.815 121.759 899.815H120.223V897.577H121.759C122.434 897.577 123.026 897.456 123.535 897.213C124.05 896.971 124.452 896.633 124.742 896.201C125.032 895.763 125.177 895.251 125.177 894.665C125.177 894.103 125.05 893.615 124.795 893.201C124.547 892.78 124.192 892.452 123.73 892.215C123.274 891.978 122.736 891.86 122.114 891.86C121.522 891.86 120.969 891.97 120.454 892.189C119.945 892.402 119.531 892.709 119.211 893.112C118.892 893.508 118.72 893.985 118.696 894.541H116.042C116.071 893.559 116.362 892.695 116.912 891.949C117.468 891.203 118.202 890.62 119.114 890.2C120.025 889.78 121.037 889.57 122.15 889.57C123.316 889.57 124.322 889.797 125.168 890.253C126.021 890.703 126.678 891.304 127.139 892.055C127.607 892.807 127.838 893.63 127.832 894.523C127.838 895.541 127.554 896.406 126.979 897.116C126.411 897.826 125.654 898.302 124.707 898.545V898.687C125.914 898.871 126.849 899.35 127.512 900.125C128.181 900.901 128.512 901.862 128.506 903.011C128.512 904.011 128.234 904.908 127.672 905.701C127.116 906.494 126.355 907.118 125.39 907.574C124.426 908.024 123.322 908.249 122.079 908.249ZM131.862 908V906.011L138.015 899.637C138.672 898.945 139.213 898.338 139.639 897.817C140.071 897.29 140.394 896.79 140.607 896.317C140.82 895.843 140.926 895.34 140.926 894.808C140.926 894.204 140.784 893.683 140.5 893.245C140.216 892.801 139.829 892.461 139.337 892.224C138.846 891.981 138.293 891.86 137.677 891.86C137.026 891.86 136.458 891.993 135.973 892.26C135.487 892.526 135.114 892.902 134.854 893.387C134.594 893.872 134.463 894.441 134.463 895.092H131.844C131.844 893.985 132.099 893.017 132.608 892.189C133.117 891.36 133.815 890.718 134.703 890.262C135.591 889.8 136.6 889.57 137.73 889.57C138.873 889.57 139.879 889.797 140.749 890.253C141.625 890.703 142.308 891.319 142.8 892.1C143.291 892.875 143.537 893.751 143.537 894.728C143.537 895.402 143.409 896.062 143.155 896.707C142.906 897.353 142.471 898.072 141.85 898.865C141.228 899.652 140.364 900.608 139.257 901.732L135.644 905.514V905.647H143.83V908H131.862ZM155.648 889.818L160.709 904.626H160.913L165.973 889.818H168.938L162.395 908H159.226L152.683 889.818H155.648ZM173.976 908.302C173.112 908.302 172.331 908.142 171.633 907.822C170.934 907.497 170.381 907.026 169.973 906.411C169.57 905.795 169.369 905.041 169.369 904.147C169.369 903.378 169.517 902.744 169.813 902.247C170.109 901.75 170.508 901.356 171.011 901.066C171.514 900.776 172.077 900.557 172.698 900.409C173.32 900.261 173.953 900.149 174.598 900.072C175.415 899.977 176.078 899.9 176.587 899.841C177.096 899.776 177.465 899.673 177.696 899.531C177.927 899.388 178.043 899.158 178.043 898.838V898.776C178.043 898.001 177.824 897.4 177.386 896.974C176.954 896.548 176.308 896.335 175.45 896.335C174.556 896.335 173.852 896.533 173.337 896.929C172.828 897.32 172.476 897.755 172.281 898.234L169.786 897.666C170.082 896.838 170.514 896.169 171.082 895.66C171.656 895.145 172.316 894.772 173.062 894.541C173.808 894.304 174.592 894.186 175.415 894.186C175.959 894.186 176.536 894.251 177.146 894.381C177.761 894.506 178.335 894.737 178.868 895.074C179.407 895.411 179.848 895.894 180.191 896.521C180.534 897.142 180.706 897.95 180.706 898.945V908H178.114V906.136H178.007C177.835 906.479 177.578 906.816 177.235 907.148C176.891 907.479 176.45 907.754 175.912 907.973C175.373 908.192 174.728 908.302 173.976 908.302ZM174.554 906.171C175.287 906.171 175.915 906.026 176.436 905.736C176.962 905.446 177.362 905.067 177.634 904.6C177.912 904.126 178.051 903.62 178.051 903.082V901.324C177.957 901.419 177.773 901.507 177.501 901.59C177.235 901.667 176.93 901.735 176.587 901.794C176.243 901.848 175.909 901.898 175.583 901.945C175.258 901.987 174.986 902.022 174.767 902.052C174.252 902.117 173.781 902.226 173.355 902.38C172.935 902.534 172.597 902.756 172.343 903.046C172.094 903.33 171.97 903.709 171.97 904.183C171.97 904.839 172.213 905.337 172.698 905.674C173.183 906.005 173.802 906.171 174.554 906.171ZM194.46 897.693L192.054 898.119C191.953 897.811 191.794 897.518 191.575 897.24C191.362 896.962 191.071 896.734 190.705 896.556C190.338 896.379 189.879 896.29 189.328 896.29C188.577 896.29 187.949 896.459 187.446 896.796C186.943 897.128 186.692 897.557 186.692 898.083C186.692 898.539 186.86 898.906 187.198 899.184C187.535 899.462 188.08 899.69 188.831 899.868L190.998 900.365C192.252 900.655 193.187 901.102 193.803 901.706C194.418 902.309 194.726 903.094 194.726 904.058C194.726 904.875 194.489 905.603 194.016 906.242C193.548 906.875 192.894 907.373 192.054 907.734C191.219 908.095 190.252 908.275 189.151 908.275C187.624 908.275 186.378 907.95 185.413 907.299C184.449 906.642 183.857 905.71 183.638 904.502L186.203 904.112C186.363 904.78 186.692 905.286 187.189 905.63C187.686 905.967 188.334 906.136 189.133 906.136C190.003 906.136 190.699 905.955 191.219 905.594C191.74 905.227 192.001 904.78 192.001 904.254C192.001 903.827 191.841 903.469 191.521 903.179C191.208 902.889 190.725 902.67 190.074 902.522L187.766 902.016C186.493 901.726 185.552 901.265 184.943 900.631C184.339 899.998 184.037 899.196 184.037 898.225C184.037 897.421 184.262 896.716 184.712 896.113C185.162 895.509 185.783 895.038 186.576 894.701C187.369 894.358 188.278 894.186 189.302 894.186C190.776 894.186 191.936 894.506 192.782 895.145C193.628 895.778 194.188 896.627 194.46 897.693ZM207.863 897.693L205.457 898.119C205.357 897.811 205.197 897.518 204.978 897.24C204.765 896.962 204.475 896.734 204.108 896.556C203.741 896.379 203.282 896.29 202.732 896.29C201.98 896.29 201.353 896.459 200.85 896.796C200.347 897.128 200.095 897.557 200.095 898.083C200.095 898.539 200.264 898.906 200.601 899.184C200.938 899.462 201.483 899.69 202.235 899.868L204.401 900.365C205.656 900.655 206.591 901.102 207.206 901.706C207.822 902.309 208.13 903.094 208.13 904.058C208.13 904.875 207.893 905.603 207.419 906.242C206.952 906.875 206.298 907.373 205.457 907.734C204.623 908.095 203.655 908.275 202.554 908.275C201.027 908.275 199.781 907.95 198.817 907.299C197.852 906.642 197.26 905.71 197.041 904.502L199.607 904.112C199.767 904.78 200.095 905.286 200.592 905.63C201.089 905.967 201.737 906.136 202.536 906.136C203.407 906.136 204.102 905.955 204.623 905.594C205.144 905.227 205.404 904.78 205.404 904.254C205.404 903.827 205.244 903.469 204.925 903.179C204.611 902.889 204.129 902.67 203.478 902.522L201.169 902.016C199.897 901.726 198.956 901.265 198.346 900.631C197.742 899.998 197.441 899.196 197.441 898.225C197.441 897.421 197.666 896.716 198.115 896.113C198.565 895.509 199.187 895.038 199.98 894.701C200.773 894.358 201.681 894.186 202.705 894.186C204.179 894.186 205.339 894.506 206.185 895.145C207.032 895.778 207.591 896.627 207.863 897.693ZM215.017 908.302C214.152 908.302 213.371 908.142 212.673 907.822C211.974 907.497 211.421 907.026 211.013 906.411C210.61 905.795 210.409 905.041 210.409 904.147C210.409 903.378 210.557 902.744 210.853 902.247C211.149 901.75 211.548 901.356 212.051 901.066C212.554 900.776 213.117 900.557 213.738 900.409C214.36 900.261 214.993 900.149 215.638 900.072C216.455 899.977 217.118 899.9 217.627 899.841C218.136 899.776 218.506 899.673 218.736 899.531C218.967 899.388 219.083 899.158 219.083 898.838V898.776C219.083 898.001 218.864 897.4 218.426 896.974C217.994 896.548 217.348 896.335 216.49 896.335C215.597 896.335 214.892 896.533 214.377 896.929C213.868 897.32 213.516 897.755 213.321 898.234L210.826 897.666C211.122 896.838 211.554 896.169 212.122 895.66C212.696 895.145 213.356 894.772 214.102 894.541C214.848 894.304 215.632 894.186 216.455 894.186C216.999 894.186 217.576 894.251 218.186 894.381C218.801 894.506 219.376 894.737 219.908 895.074C220.447 895.411 220.888 895.894 221.231 896.521C221.574 897.142 221.746 897.95 221.746 898.945V908H219.154V906.136H219.047C218.875 906.479 218.618 906.816 218.275 907.148C217.931 907.479 217.49 907.754 216.952 907.973C216.413 908.192 215.768 908.302 215.017 908.302ZM215.594 906.171C216.327 906.171 216.955 906.026 217.476 905.736C218.002 905.446 218.402 905.067 218.674 904.6C218.952 904.126 219.091 903.62 219.091 903.082V901.324C218.997 901.419 218.813 901.507 218.541 901.59C218.275 901.667 217.97 901.735 217.627 901.794C217.283 901.848 216.949 901.898 216.623 901.945C216.298 901.987 216.026 902.022 215.807 902.052C215.292 902.117 214.821 902.226 214.395 902.38C213.975 902.534 213.637 902.756 213.383 903.046C213.134 903.33 213.01 903.709 213.01 904.183C213.01 904.839 213.253 905.337 213.738 905.674C214.223 906.005 214.842 906.171 215.594 906.171ZM225.282 908V894.364H227.847V896.53H227.989C228.238 895.796 228.676 895.219 229.303 894.799C229.936 894.373 230.653 894.159 231.452 894.159C231.617 894.159 231.813 894.165 232.038 894.177C232.268 894.189 232.449 894.204 232.579 894.222V896.761C232.473 896.731 232.283 896.699 232.011 896.663C231.739 896.622 231.466 896.601 231.194 896.601C230.567 896.601 230.007 896.734 229.516 897C229.031 897.261 228.646 897.625 228.362 898.092C228.078 898.554 227.936 899.081 227.936 899.673V908H225.282ZM251.622 894.594C251.527 893.754 251.137 893.103 250.45 892.641C249.764 892.174 248.9 891.94 247.858 891.94C247.112 891.94 246.467 892.058 245.922 892.295C245.378 892.526 244.955 892.846 244.653 893.254C244.357 893.656 244.209 894.115 244.209 894.63C244.209 895.062 244.31 895.435 244.511 895.749C244.718 896.062 244.987 896.326 245.319 896.539C245.656 896.746 246.017 896.92 246.402 897.062C246.787 897.199 247.157 897.311 247.512 897.4L249.287 897.862C249.867 898.004 250.462 898.196 251.072 898.439C251.681 898.681 252.246 899.001 252.767 899.397C253.288 899.794 253.708 900.285 254.028 900.871C254.353 901.457 254.516 902.158 254.516 902.975C254.516 904.005 254.25 904.919 253.717 905.718C253.19 906.517 252.424 907.148 251.418 907.609C250.418 908.071 249.207 908.302 247.787 908.302C246.426 908.302 245.248 908.086 244.253 907.654C243.259 907.222 242.481 906.609 241.919 905.816C241.356 905.017 241.046 904.07 240.986 902.975H243.739C243.792 903.632 244.005 904.18 244.378 904.618C244.757 905.05 245.239 905.372 245.825 905.585C246.417 905.792 247.065 905.896 247.769 905.896C248.544 905.896 249.234 905.775 249.838 905.532C250.447 905.283 250.927 904.94 251.276 904.502C251.625 904.058 251.8 903.54 251.8 902.949C251.8 902.41 251.646 901.969 251.338 901.626C251.036 901.282 250.625 900.998 250.104 900.773C249.589 900.549 249.006 900.35 248.355 900.179L246.207 899.593C244.751 899.196 243.597 898.613 242.744 897.844C241.898 897.074 241.475 896.056 241.475 894.79C241.475 893.742 241.759 892.828 242.327 892.047C242.895 891.265 243.665 890.659 244.635 890.227C245.606 889.789 246.701 889.57 247.92 889.57C249.151 889.57 250.237 889.786 251.178 890.218C252.125 890.65 252.871 891.245 253.415 892.002C253.96 892.754 254.244 893.618 254.268 894.594H251.622ZM263.947 894.364V896.494H256.498V894.364H263.947ZM258.496 891.097H261.15V903.996C261.15 904.511 261.227 904.899 261.381 905.159C261.535 905.414 261.733 905.588 261.976 905.683C262.224 905.772 262.494 905.816 262.784 905.816C262.997 905.816 263.183 905.801 263.343 905.772C263.503 905.742 263.627 905.718 263.716 905.701L264.195 907.893C264.041 907.953 263.822 908.012 263.538 908.071C263.254 908.136 262.899 908.172 262.473 908.178C261.775 908.189 261.124 908.065 260.52 907.805C259.916 907.544 259.428 907.142 259.055 906.597C258.682 906.053 258.496 905.369 258.496 904.547V891.097ZM270.337 905.514L270.203 906.482C270.115 907.192 269.964 907.932 269.751 908.701C269.543 909.477 269.327 910.196 269.103 910.859C268.884 911.522 268.703 912.048 268.561 912.439H266.679C266.756 912.072 266.862 911.575 266.998 910.947C267.135 910.326 267.268 909.631 267.398 908.861C267.528 908.092 267.626 907.308 267.691 906.509L267.78 905.514H270.337ZM131.099 925.731H128.329C128.222 925.139 128.024 924.618 127.734 924.168C127.444 923.719 127.089 923.337 126.669 923.023C126.248 922.709 125.778 922.473 125.257 922.313C124.742 922.153 124.195 922.073 123.615 922.073C122.567 922.073 121.629 922.337 120.8 922.863C119.978 923.39 119.327 924.162 118.847 925.18C118.374 926.198 118.137 927.441 118.137 928.909C118.137 930.389 118.374 931.638 118.847 932.656C119.327 933.674 119.981 934.443 120.809 934.964C121.638 935.485 122.57 935.745 123.606 935.745C124.18 935.745 124.724 935.668 125.239 935.514C125.76 935.354 126.231 935.121 126.651 934.813C127.071 934.505 127.426 934.129 127.716 933.685C128.012 933.236 128.216 932.721 128.329 932.141L131.099 932.15C130.951 933.043 130.664 933.866 130.238 934.618C129.817 935.363 129.276 936.008 128.613 936.553C127.956 937.092 127.204 937.509 126.358 937.805C125.512 938.101 124.588 938.249 123.588 938.249C122.014 938.249 120.611 937.876 119.38 937.13C118.149 936.378 117.178 935.304 116.468 933.907C115.764 932.511 115.412 930.844 115.412 928.909C115.412 926.968 115.767 925.302 116.477 923.911C117.187 922.514 118.158 921.443 119.389 920.697C120.62 919.945 122.02 919.57 123.588 919.57C124.553 919.57 125.452 919.709 126.287 919.987C127.127 920.259 127.882 920.662 128.551 921.194C129.22 921.721 129.773 922.366 130.211 923.13C130.649 923.887 130.945 924.754 131.099 925.731ZM138.137 938.302C137.273 938.302 136.491 938.142 135.793 937.822C135.094 937.497 134.541 937.026 134.133 936.411C133.73 935.795 133.529 935.041 133.529 934.147C133.529 933.378 133.677 932.744 133.973 932.247C134.269 931.75 134.668 931.356 135.171 931.066C135.675 930.776 136.237 930.557 136.858 930.409C137.48 930.261 138.113 930.149 138.758 930.072C139.575 929.977 140.238 929.9 140.747 929.841C141.256 929.776 141.626 929.673 141.856 929.531C142.087 929.388 142.203 929.158 142.203 928.838V928.776C142.203 928.001 141.984 927.4 141.546 926.974C141.114 926.548 140.469 926.335 139.61 926.335C138.717 926.335 138.012 926.533 137.497 926.929C136.988 927.32 136.636 927.755 136.441 928.234L133.946 927.666C134.242 926.838 134.674 926.169 135.242 925.66C135.817 925.145 136.476 924.772 137.222 924.541C137.968 924.304 138.752 924.186 139.575 924.186C140.119 924.186 140.696 924.251 141.306 924.381C141.922 924.506 142.496 924.737 143.028 925.074C143.567 925.411 144.008 925.894 144.351 926.521C144.694 927.142 144.866 927.95 144.866 928.945V938H142.274V936.136H142.167C141.996 936.479 141.738 936.816 141.395 937.148C141.052 937.479 140.611 937.754 140.072 937.973C139.533 938.192 138.888 938.302 138.137 938.302ZM138.714 936.171C139.448 936.171 140.075 936.026 140.596 935.736C141.123 935.446 141.522 935.067 141.794 934.6C142.072 934.126 142.212 933.62 142.212 933.082V931.324C142.117 931.419 141.933 931.507 141.661 931.59C141.395 931.667 141.09 931.735 140.747 931.794C140.403 931.848 140.069 931.898 139.744 931.945C139.418 931.987 139.146 932.022 138.927 932.052C138.412 932.117 137.941 932.226 137.515 932.38C137.095 932.534 136.758 932.756 136.503 933.046C136.255 933.33 136.13 933.709 136.13 934.183C136.13 934.839 136.373 935.337 136.858 935.674C137.344 936.005 137.962 936.171 138.714 936.171ZM148.402 938V924.364H150.95V926.583H151.118C151.402 925.831 151.867 925.246 152.512 924.825C153.157 924.399 153.93 924.186 154.829 924.186C155.741 924.186 156.504 924.399 157.12 924.825C157.741 925.251 158.2 925.837 158.496 926.583H158.638C158.963 925.855 159.481 925.275 160.191 924.843C160.902 924.405 161.748 924.186 162.73 924.186C163.967 924.186 164.977 924.574 165.758 925.349C166.545 926.124 166.939 927.293 166.939 928.856V938H164.284V929.104C164.284 928.181 164.033 927.512 163.529 927.098C163.026 926.684 162.426 926.477 161.727 926.477C160.863 926.477 160.191 926.743 159.712 927.276C159.233 927.802 158.993 928.48 158.993 929.309V938H156.347V928.936C156.347 928.196 156.116 927.601 155.655 927.151C155.193 926.701 154.592 926.477 153.853 926.477C153.35 926.477 152.885 926.61 152.459 926.876C152.039 927.136 151.698 927.5 151.438 927.968C151.183 928.436 151.056 928.977 151.056 929.593V938H148.402ZM170.709 938V919.818H173.364V926.574H173.524C173.678 926.29 173.9 925.962 174.19 925.589C174.48 925.216 174.882 924.89 175.397 924.612C175.912 924.328 176.592 924.186 177.439 924.186C178.54 924.186 179.522 924.464 180.386 925.021C181.25 925.577 181.928 926.379 182.419 927.426C182.916 928.474 183.165 929.735 183.165 931.208C183.165 932.682 182.919 933.946 182.428 934.999C181.937 936.047 181.262 936.855 180.404 937.423C179.546 937.985 178.566 938.266 177.465 938.266C176.637 938.266 175.959 938.127 175.432 937.849C174.912 937.571 174.503 937.245 174.207 936.873C173.911 936.5 173.684 936.168 173.524 935.878H173.302V938H170.709ZM173.311 931.182C173.311 932.141 173.45 932.981 173.728 933.703C174.006 934.425 174.409 934.99 174.935 935.399C175.462 935.801 176.107 936.002 176.871 936.002C177.664 936.002 178.327 935.792 178.859 935.372C179.392 934.946 179.794 934.369 180.067 933.641C180.345 932.913 180.484 932.093 180.484 931.182C180.484 930.282 180.348 929.474 180.076 928.758C179.809 928.042 179.407 927.477 178.868 927.062C178.335 926.648 177.67 926.441 176.871 926.441C176.101 926.441 175.45 926.639 174.918 927.036C174.391 927.432 173.991 927.986 173.719 928.696C173.447 929.406 173.311 930.235 173.311 931.182ZM186.146 938V924.364H188.711V926.53H188.854C189.102 925.796 189.54 925.219 190.167 924.799C190.801 924.373 191.517 924.159 192.316 924.159C192.482 924.159 192.677 924.165 192.902 924.177C193.133 924.189 193.313 924.204 193.443 924.222V926.761C193.337 926.731 193.147 926.699 192.875 926.663C192.603 926.622 192.331 926.601 192.058 926.601C191.431 926.601 190.872 926.734 190.381 927C189.895 927.261 189.51 927.625 189.226 928.092C188.942 928.554 188.8 929.081 188.8 929.673V938H186.146ZM195.741 938V924.364H198.395V938H195.741ZM197.081 922.26C196.619 922.26 196.223 922.106 195.891 921.798C195.566 921.484 195.403 921.111 195.403 920.679C195.403 920.241 195.566 919.868 195.891 919.561C196.223 919.247 196.619 919.09 197.081 919.09C197.543 919.09 197.936 919.247 198.262 919.561C198.593 919.868 198.759 920.241 198.759 920.679C198.759 921.111 198.593 921.484 198.262 921.798C197.936 922.106 197.543 922.26 197.081 922.26ZM207.071 938.266C205.97 938.266 204.988 937.985 204.123 937.423C203.265 936.855 202.59 936.047 202.099 934.999C201.614 933.946 201.371 932.682 201.371 931.208C201.371 929.735 201.617 928.474 202.108 927.426C202.605 926.379 203.286 925.577 204.15 925.021C205.014 924.464 205.994 924.186 207.089 924.186C207.935 924.186 208.616 924.328 209.131 924.612C209.651 924.89 210.054 925.216 210.338 925.589C210.628 925.962 210.853 926.29 211.013 926.574H211.172V919.818H213.827V938H211.235V935.878H211.013C210.853 936.168 210.622 936.5 210.32 936.873C210.024 937.245 209.616 937.571 209.095 937.849C208.574 938.127 207.899 938.266 207.071 938.266ZM207.657 936.002C208.42 936.002 209.065 935.801 209.592 935.399C210.125 934.99 210.527 934.425 210.8 933.703C211.078 932.981 211.217 932.141 211.217 931.182C211.217 930.235 211.081 929.406 210.808 928.696C210.536 927.986 210.137 927.432 209.61 927.036C209.083 926.639 208.432 926.441 207.657 926.441C206.858 926.441 206.192 926.648 205.659 927.062C205.127 927.477 204.724 928.042 204.452 928.758C204.186 929.474 204.052 930.282 204.052 931.182C204.052 932.093 204.189 932.913 204.461 933.641C204.733 934.369 205.135 934.946 205.668 935.372C206.207 935.792 206.87 936.002 207.657 936.002ZM223.333 943.398C222.25 943.398 221.318 943.256 220.536 942.972C219.761 942.688 219.128 942.312 218.636 941.844C218.145 941.377 217.778 940.865 217.536 940.308L219.817 939.367C219.977 939.628 220.19 939.903 220.456 940.193C220.729 940.489 221.096 940.74 221.557 940.947C222.025 941.155 222.626 941.258 223.359 941.258C224.366 941.258 225.197 941.013 225.854 940.521C226.511 940.036 226.84 939.261 226.84 938.195V935.514H226.671C226.511 935.804 226.28 936.127 225.978 936.482C225.682 936.837 225.274 937.145 224.753 937.405C224.232 937.666 223.555 937.796 222.72 937.796C221.643 937.796 220.672 937.544 219.808 937.041C218.95 936.532 218.27 935.783 217.766 934.795C217.269 933.801 217.021 932.579 217.021 931.129C217.021 929.679 217.266 928.436 217.758 927.4C218.255 926.364 218.935 925.571 219.799 925.021C220.664 924.464 221.643 924.186 222.738 924.186C223.584 924.186 224.268 924.328 224.789 924.612C225.31 924.89 225.715 925.216 226.005 925.589C226.301 925.962 226.529 926.29 226.689 926.574H226.884V924.364H229.485V938.302C229.485 939.474 229.213 940.435 228.668 941.187C228.124 941.939 227.387 942.495 226.458 942.856C225.535 943.217 224.493 943.398 223.333 943.398ZM223.306 935.594C224.07 935.594 224.715 935.417 225.242 935.061C225.774 934.7 226.177 934.185 226.449 933.517C226.727 932.842 226.866 932.034 226.866 931.093C226.866 930.176 226.73 929.368 226.458 928.669C226.186 927.971 225.786 927.426 225.259 927.036C224.733 926.639 224.082 926.441 223.306 926.441C222.507 926.441 221.841 926.648 221.309 927.062C220.776 927.471 220.374 928.027 220.101 928.732C219.835 929.436 219.702 930.223 219.702 931.093C219.702 931.987 219.838 932.771 220.11 933.446C220.382 934.12 220.785 934.647 221.318 935.026C221.856 935.405 222.519 935.594 223.306 935.594ZM238.922 938.275C237.579 938.275 236.422 937.988 235.451 937.414C234.486 936.834 233.741 936.02 233.214 934.973C232.693 933.919 232.433 932.685 232.433 931.271C232.433 929.874 232.693 928.643 233.214 927.577C233.741 926.512 234.475 925.681 235.416 925.083C236.363 924.485 237.469 924.186 238.736 924.186C239.505 924.186 240.251 924.313 240.973 924.568C241.695 924.822 242.343 925.222 242.917 925.766C243.491 926.311 243.944 927.018 244.276 927.888C244.607 928.752 244.773 929.803 244.773 931.04V931.981H233.933V929.992H242.172C242.172 929.294 242.03 928.675 241.745 928.137C241.461 927.592 241.062 927.163 240.547 926.849C240.038 926.536 239.44 926.379 238.754 926.379C238.008 926.379 237.357 926.562 236.801 926.929C236.25 927.29 235.824 927.764 235.522 928.35C235.226 928.93 235.078 929.56 235.078 930.241V931.794C235.078 932.706 235.238 933.481 235.558 934.12C235.883 934.76 236.336 935.248 236.916 935.585C237.496 935.917 238.174 936.082 238.949 936.082C239.452 936.082 239.911 936.011 240.325 935.869C240.739 935.721 241.097 935.502 241.399 935.212C241.701 934.922 241.932 934.564 242.092 934.138L244.604 934.591C244.403 935.331 244.042 935.979 243.521 936.535C243.006 937.086 242.358 937.515 241.577 937.822C240.801 938.124 239.917 938.275 238.922 938.275ZM251.172 935.514L251.038 936.482C250.95 937.192 250.799 937.932 250.586 938.701C250.378 939.477 250.162 940.196 249.938 940.859C249.719 941.522 249.538 942.048 249.396 942.439H247.514C247.591 942.072 247.697 941.575 247.833 940.947C247.97 940.326 248.103 939.631 248.233 938.861C248.363 938.092 248.461 937.308 248.526 936.509L248.615 935.514H251.172ZM261.456 919.818H264.786L270.574 933.952H270.787L276.575 919.818H279.905V938H277.295V924.843H277.126L271.764 937.973H269.597L264.235 924.834H264.067V938H261.456V919.818ZM285.429 938H282.517L289.06 919.818H292.229L298.772 938H295.86L290.72 923.121H290.578L285.429 938ZM285.917 930.88H295.363V933.188H285.917V930.88ZM314.095 938.302C312.693 938.296 311.494 937.926 310.5 937.192C309.506 936.458 308.745 935.39 308.218 933.987C307.692 932.585 307.428 930.895 307.428 928.918C307.428 926.947 307.692 925.263 308.218 923.866C308.751 922.47 309.514 921.404 310.509 920.67C311.509 919.937 312.705 919.57 314.095 919.57C315.486 919.57 316.679 919.94 317.673 920.679C318.668 921.413 319.428 922.479 319.955 923.875C320.487 925.266 320.754 926.947 320.754 928.918C320.754 930.901 320.49 932.593 319.964 933.996C319.437 935.393 318.676 936.461 317.682 937.201C316.688 937.935 315.492 938.302 314.095 938.302ZM314.095 935.931C315.326 935.931 316.288 935.331 316.981 934.129C317.679 932.928 318.028 931.191 318.028 928.918C318.028 927.409 317.869 926.133 317.549 925.092C317.235 924.044 316.782 923.251 316.191 922.712C315.605 922.168 314.906 921.896 314.095 921.896C312.87 921.896 311.909 922.499 311.21 923.707C310.512 924.914 310.16 926.651 310.154 928.918C310.154 930.433 310.311 931.714 310.624 932.762C310.944 933.804 311.397 934.594 311.983 935.132C312.568 935.665 313.273 935.931 314.095 935.931ZM323.903 938V936.011L330.056 929.637C330.713 928.945 331.254 928.338 331.68 927.817C332.112 927.29 332.435 926.79 332.648 926.317C332.861 925.843 332.968 925.34 332.968 924.808C332.968 924.204 332.825 923.683 332.541 923.245C332.257 922.801 331.87 922.461 331.378 922.224C330.887 921.981 330.334 921.86 329.718 921.86C329.067 921.86 328.499 921.993 328.014 922.26C327.528 922.526 327.155 922.902 326.895 923.387C326.635 923.872 326.504 924.441 326.504 925.092H323.885C323.885 923.985 324.14 923.017 324.649 922.189C325.158 921.36 325.856 920.718 326.744 920.262C327.632 919.8 328.641 919.57 329.771 919.57C330.914 919.57 331.92 919.797 332.79 920.253C333.666 920.703 334.349 921.319 334.841 922.1C335.332 922.875 335.578 923.751 335.578 924.728C335.578 925.402 335.45 926.062 335.196 926.707C334.947 927.353 334.512 928.072 333.891 928.865C333.269 929.652 332.405 930.608 331.298 931.732L327.685 935.514V935.647H335.871V938H323.903ZM346.133 919.818V938H343.381V922.57H343.275L338.925 925.411V922.783L343.461 919.818H346.133ZM357.95 919.818V938H355.198V922.57H355.091L350.741 925.411V922.783L355.278 919.818H357.95ZM362.486 934.449V932.229L370.343 919.818H372.092V923.085H370.982L365.363 931.981V932.123H376.132V934.449H362.486ZM371.107 938V933.774L371.124 932.762V919.818H373.726V938H371.107Z" fill="#553F2E"/>
<path d="M983.079 1335.02L899.332 1265.11L912.394 1249.47L926.025 1260.84L926.889 1259.81C923.73 1254.21 922.513 1248.35 923.239 1242.24C923.93 1236.09 926.581 1230.25 931.193 1224.73C935.865 1219.13 941.088 1215.53 946.861 1213.94C952.664 1212.31 958.614 1212.49 964.711 1214.5L965.439 1213.63C962.637 1207.9 961.73 1201.74 962.717 1195.16C963.669 1188.56 966.663 1182.24 971.7 1176.2C978.041 1168.61 985.595 1164.4 994.362 1163.57C1003.16 1162.71 1012.36 1166.29 1021.95 1174.3L1078.11 1221.18L1064.5 1237.48L1009.87 1191.88C1004.2 1187.14 998.803 1185.26 993.679 1186.22C988.556 1187.19 984.204 1189.82 980.624 1194.11C976.194 1199.41 974.385 1204.9 975.199 1210.58C975.976 1216.22 978.91 1221.17 983.998 1225.42L1037.38 1269.98L1023.81 1286.22L968.145 1239.75C963.602 1235.96 958.765 1234.33 953.636 1234.86C948.507 1235.39 944.046 1237.92 940.253 1242.47C937.674 1245.56 936.11 1249.09 935.561 1253.08C935.006 1256.99 935.497 1260.95 937.034 1264.94C938.6 1268.9 941.274 1272.46 945.054 1275.62L996.688 1318.72L983.079 1335.02ZM1128.17 1164.64C1121.28 1172.9 1113.59 1178.53 1105.09 1181.55C1096.58 1184.5 1087.76 1184.91 1078.62 1182.77C1069.48 1180.57 1060.57 1175.84 1051.88 1168.59C1043.3 1161.43 1037.08 1153.52 1033.2 1144.86C1029.36 1136.16 1028.02 1127.39 1029.17 1118.55C1030.35 1109.67 1034.19 1101.34 1040.69 1093.56C1044.63 1088.83 1049.24 1084.91 1054.5 1081.78C1059.76 1078.65 1065.54 1076.71 1071.83 1075.98C1078.12 1075.25 1084.78 1076.09 1091.82 1078.52C1098.83 1080.91 1106.13 1085.28 1113.73 1091.62L1119.51 1096.44L1063.93 1163.02L1051.72 1152.82L1093.96 1102.22C1089.67 1098.64 1085.14 1096.35 1080.38 1095.33C1075.58 1094.28 1070.89 1094.54 1066.33 1096.09C1061.79 1097.61 1057.76 1100.48 1054.24 1104.69C1050.42 1109.27 1048.21 1114.21 1047.61 1119.51C1047.01 1124.74 1047.73 1129.78 1049.78 1134.64C1051.83 1139.43 1054.94 1143.57 1059.12 1147.06L1068.66 1155.03C1074.26 1159.7 1079.84 1162.69 1085.4 1164.01C1091 1165.29 1096.32 1165.01 1101.36 1163.18C1106.37 1161.31 1110.86 1158 1114.84 1153.24C1117.42 1150.15 1119.33 1146.97 1120.59 1143.7C1121.8 1140.39 1122.29 1137.07 1122.06 1133.73C1121.82 1130.39 1120.81 1127.14 1119.01 1123.97L1134.67 1110.86C1138.18 1115.89 1140.31 1121.43 1141.06 1127.48C1141.8 1133.46 1141.11 1139.64 1139 1146.02C1136.88 1152.33 1133.27 1158.54 1128.17 1164.64Z" fill="#B3CC1F" fill-opacity="0.5"/>
</g>
<path d="M1 0V473H1097V0" stroke="#1E1E1E"/>
<path d="M564.726 1356.34L528.304 1248.27L545.91 1247.75L571.928 1330.55L573.064 1330.52L593.901 1246.35L611.791 1245.82L637.232 1328.35L638.368 1328.32L659.498 1244.42L677.104 1243.91L647.077 1353.92L630.607 1354.41L604.297 1271.34L602.593 1271.39L581.196 1355.86L564.726 1356.34ZM702.451 1352.3L699.253 1243.26L716.007 1242.77L719.205 1351.81L702.451 1352.3ZM707.239 1224.83C703.974 1224.93 701.125 1223.9 698.693 1221.74C696.309 1219.59 695.071 1216.95 694.98 1213.82C694.888 1210.7 695.969 1207.99 698.223 1205.7C700.524 1203.41 703.308 1202.21 706.573 1202.12C709.839 1202.02 712.664 1203.05 715.048 1205.21C717.48 1207.36 718.741 1210 718.833 1213.12C718.925 1216.25 717.82 1218.96 715.519 1221.25C713.265 1223.54 710.505 1224.74 707.239 1224.83ZM795.252 1240.44L795.669 1254.64L736.887 1256.36L736.471 1242.17L795.252 1240.44ZM757.275 1350.69L753.636 1226.6C753.452 1220.35 754.767 1215.1 757.579 1210.85C760.391 1206.6 764.11 1203.36 768.734 1201.15C773.359 1198.93 778.274 1197.74 783.48 1197.59C787.597 1197.47 790.968 1197.7 793.59 1198.28C796.212 1198.87 798.171 1199.43 799.465 1199.96L795.063 1214.58C794.202 1214.32 793.009 1214 791.482 1213.62C790.002 1213.24 788.055 1213.08 785.642 1213.15C780.104 1213.32 776.146 1214.83 773.767 1217.7C771.435 1220.56 770.348 1224.69 770.506 1230.08L774.029 1350.2L757.275 1350.69ZM833.921 1389.37C831.081 1389.46 828.542 1389.29 826.304 1388.88C824.067 1388.52 822.516 1388.14 821.652 1387.74L825.478 1372.85C829.579 1373.77 833.187 1374.05 836.302 1373.67C839.418 1373.29 842.145 1371.82 844.486 1369.24C846.874 1366.71 849.005 1362.64 850.878 1357.04L853.752 1348.43L810.214 1240L828.388 1239.47L861.037 1325.48L862.173 1325.45L889.725 1237.67L907.899 1237.14L865.276 1363.44C863.359 1369.14 860.916 1373.87 857.948 1377.65C854.982 1381.48 851.49 1384.36 847.472 1386.27C843.502 1388.19 838.985 1389.22 833.921 1389.37Z" fill="#553F2E" fill-opacity="0.5"/>
<path d="M564.726 1356.34L563.778 1356.66L564.015 1357.36L564.755 1357.34L564.726 1356.34ZM528.304 1248.27L528.275 1247.27L526.925 1247.31L527.356 1248.59L528.304 1248.27ZM545.91 1247.75L546.864 1247.45L546.637 1246.73L545.881 1246.75L545.91 1247.75ZM571.928 1330.55L570.974 1330.85L571.2 1331.57L571.957 1331.55L571.928 1330.55ZM573.064 1330.52L573.093 1331.52L573.852 1331.49L574.034 1330.76L573.064 1330.52ZM593.901 1246.35L593.872 1245.35L593.113 1245.37L592.93 1246.11L593.901 1246.35ZM611.791 1245.82L612.746 1245.53L612.522 1244.8L611.762 1244.82L611.791 1245.82ZM637.232 1328.35L636.277 1328.64L636.501 1329.37L637.261 1329.35L637.232 1328.35ZM638.368 1328.32L638.397 1329.32L639.153 1329.29L639.338 1328.56L638.368 1328.32ZM659.498 1244.42L659.468 1243.42L658.713 1243.44L658.528 1244.18L659.498 1244.42ZM677.104 1243.91L678.068 1244.17L678.424 1242.87L677.074 1242.91L677.104 1243.91ZM647.077 1353.92L647.106 1354.92L647.847 1354.9L648.042 1354.19L647.077 1353.92ZM630.607 1354.41L629.653 1354.71L629.881 1355.43L630.636 1355.41L630.607 1354.41ZM604.297 1271.34L605.25 1271.03L605.022 1270.31L604.268 1270.34L604.297 1271.34ZM602.593 1271.39L602.564 1270.39L601.809 1270.41L601.624 1271.14L602.593 1271.39ZM581.196 1355.86L581.225 1356.86L581.98 1356.83L582.166 1356.1L581.196 1355.86ZM565.674 1356.02L529.252 1247.95L527.356 1248.59L563.778 1356.66L565.674 1356.02ZM528.333 1249.27L545.939 1248.75L545.881 1246.75L528.275 1247.27L528.333 1249.27ZM544.956 1248.05L570.974 1330.85L572.882 1330.25L546.864 1247.45L544.956 1248.05ZM571.957 1331.55L573.093 1331.52L573.034 1329.52L571.898 1329.55L571.957 1331.55ZM574.034 1330.76L594.872 1246.59L592.93 1246.11L572.093 1330.28L574.034 1330.76ZM593.93 1247.35L611.82 1246.82L611.762 1244.82L593.872 1245.35L593.93 1247.35ZM610.835 1246.12L636.277 1328.64L638.188 1328.06L612.746 1245.53L610.835 1246.12ZM637.261 1329.35L638.397 1329.32L638.339 1327.32L637.203 1327.35L637.261 1329.35ZM639.338 1328.56L660.467 1244.67L658.528 1244.18L637.398 1328.07L639.338 1328.56ZM659.527 1245.42L677.133 1244.91L677.074 1242.91L659.468 1243.42L659.527 1245.42ZM676.139 1243.64L646.112 1353.66L648.042 1354.19L678.068 1244.17L676.139 1243.64ZM647.048 1352.92L630.577 1353.41L630.636 1355.41L647.106 1354.92L647.048 1352.92ZM631.56 1354.11L605.25 1271.03L603.344 1271.64L629.653 1354.71L631.56 1354.11ZM604.268 1270.34L602.564 1270.39L602.622 1272.39L604.326 1272.34L604.268 1270.34ZM601.624 1271.14L580.227 1355.61L582.166 1356.1L603.562 1271.63L601.624 1271.14ZM581.167 1354.86L564.697 1355.34L564.755 1357.34L581.225 1356.86L581.167 1354.86ZM702.451 1352.3L701.451 1352.33L701.481 1353.33L702.48 1353.3L702.451 1352.3ZM699.253 1243.26L699.224 1242.26L698.224 1242.29L698.254 1243.29L699.253 1243.26ZM716.007 1242.77L717.007 1242.74L716.978 1241.74L715.978 1241.77L716.007 1242.77ZM719.205 1351.81L719.234 1352.81L720.234 1352.78L720.205 1351.78L719.205 1351.81ZM698.693 1221.74L698.023 1222.49L698.03 1222.49L698.693 1221.74ZM698.223 1205.7L697.517 1204.99L697.51 1205L698.223 1205.7ZM715.048 1205.21L714.377 1205.95L714.385 1205.95L715.048 1205.21ZM715.519 1221.25L714.813 1220.54L714.806 1220.55L715.519 1221.25ZM703.45 1352.27L700.253 1243.23L698.254 1243.29L701.451 1352.33L703.45 1352.27ZM699.283 1244.26L716.037 1243.76L715.978 1241.77L699.224 1242.26L699.283 1244.26ZM715.008 1242.79L718.205 1351.84L720.205 1351.78L717.007 1242.74L715.008 1242.79ZM719.176 1350.81L702.422 1351.3L702.48 1353.3L719.234 1352.81L719.176 1350.81ZM707.21 1223.83C704.197 1223.92 701.597 1222.98 699.357 1221L698.03 1222.49C700.654 1224.82 703.75 1225.94 707.269 1225.83L707.21 1223.83ZM699.364 1221C697.175 1219.02 696.063 1216.64 695.979 1213.79L693.98 1213.85C694.08 1217.26 695.443 1220.15 698.023 1222.49L699.364 1221ZM695.979 1213.79C695.896 1210.95 696.867 1208.51 698.936 1206.4L697.51 1205C695.071 1207.48 693.88 1210.45 693.98 1213.85L695.979 1213.79ZM698.929 1206.41C701.049 1204.29 703.59 1203.2 706.603 1203.11L706.544 1201.12C703.025 1201.22 700 1202.52 697.517 1204.99L698.929 1206.41ZM706.603 1203.11C709.615 1203.03 712.188 1203.97 714.377 1205.95L715.719 1204.46C713.14 1202.13 710.063 1201.01 706.544 1201.12L706.603 1203.11ZM714.385 1205.95C716.619 1207.93 717.75 1210.32 717.833 1213.15L719.833 1213.09C719.733 1209.68 718.34 1206.79 715.711 1204.46L714.385 1205.95ZM717.833 1213.15C717.917 1215.99 716.927 1218.43 714.813 1220.54L716.225 1221.96C718.712 1219.48 719.933 1216.51 719.833 1213.09L717.833 1213.15ZM714.806 1220.55C712.736 1222.65 710.223 1223.74 707.21 1223.83L707.269 1225.83C710.788 1225.73 713.794 1224.43 716.232 1221.95L714.806 1220.55ZM795.252 1240.44L796.252 1240.41L796.223 1239.41L795.223 1239.44L795.252 1240.44ZM795.669 1254.64L795.698 1255.64L796.698 1255.61L796.668 1254.61L795.669 1254.64ZM736.887 1256.36L735.888 1256.39L735.917 1257.39L736.917 1257.36L736.887 1256.36ZM736.471 1242.17L736.442 1241.17L735.442 1241.19L735.471 1242.19L736.471 1242.17ZM757.275 1350.69L756.275 1350.72L756.304 1351.72L757.304 1351.69L757.275 1350.69ZM757.579 1210.85L756.745 1210.3L756.745 1210.3L757.579 1210.85ZM768.734 1201.15L768.301 1200.24L768.301 1200.24L768.734 1201.15ZM793.59 1198.28L793.372 1199.26L793.372 1199.26L793.59 1198.28ZM799.465 1199.96L800.423 1200.25L800.685 1199.38L799.845 1199.03L799.465 1199.96ZM795.063 1214.58L794.774 1215.54L795.732 1215.83L796.02 1214.87L795.063 1214.58ZM791.482 1213.62L791.231 1214.59L791.239 1214.59L791.482 1213.62ZM773.767 1217.7L772.998 1217.06L772.992 1217.06L773.767 1217.7ZM774.029 1350.2L774.058 1351.2L775.058 1351.17L775.028 1350.17L774.029 1350.2ZM794.253 1240.47L794.669 1254.67L796.668 1254.61L796.252 1240.41L794.253 1240.47ZM795.64 1253.64L736.858 1255.36L736.917 1257.36L795.698 1255.64L795.64 1253.64ZM737.887 1256.33L737.471 1242.14L735.471 1242.19L735.888 1256.39L737.887 1256.33ZM736.5 1243.16L795.282 1241.44L795.223 1239.44L736.442 1241.17L736.5 1243.16ZM758.274 1350.66L754.635 1226.57L752.636 1226.63L756.275 1350.72L758.274 1350.66ZM754.635 1226.57C754.457 1220.48 755.738 1215.45 758.413 1211.4L756.745 1210.3C753.796 1214.76 752.448 1220.22 752.636 1226.63L754.635 1226.57ZM758.413 1211.4C761.125 1207.3 764.704 1204.19 769.167 1202.05L768.301 1200.24C763.515 1202.54 759.658 1205.9 756.745 1210.3L758.413 1211.4ZM769.167 1202.05C773.663 1199.89 778.441 1198.73 783.509 1198.59L783.451 1196.59C778.107 1196.74 773.054 1197.96 768.301 1200.24L769.167 1202.05ZM783.509 1198.59C787.583 1198.47 790.861 1198.7 793.372 1199.26L793.808 1197.31C791.074 1196.7 787.612 1196.46 783.451 1196.59L783.509 1198.59ZM793.372 1199.26C795.98 1199.84 797.872 1200.39 799.086 1200.89L799.845 1199.03C798.47 1198.47 796.445 1197.9 793.808 1197.31L793.372 1199.26ZM798.508 1199.67L794.105 1214.3L796.02 1214.87L800.423 1200.25L798.508 1199.67ZM795.351 1213.63C794.468 1213.36 793.257 1213.04 791.724 1212.65L791.239 1214.59C792.761 1214.97 793.937 1215.29 794.774 1215.54L795.351 1213.63ZM791.732 1212.65C790.124 1212.24 788.073 1212.08 785.612 1212.16L785.671 1214.15C788.038 1214.08 789.88 1214.24 791.231 1214.59L791.732 1212.65ZM785.612 1212.16C779.93 1212.32 775.635 1213.88 772.998 1217.06L774.536 1218.33C776.658 1215.78 780.279 1214.31 785.671 1214.15L785.612 1212.16ZM772.992 1217.06C770.451 1220.18 769.345 1224.59 769.507 1230.11L771.506 1230.05C771.352 1224.79 772.419 1220.93 774.542 1218.33L772.992 1217.06ZM769.507 1230.11L773.029 1350.23L775.028 1350.17L771.506 1230.05L769.507 1230.11ZM773.999 1349.2L757.245 1349.69L757.304 1351.69L774.058 1351.2L773.999 1349.2ZM826.304 1388.88L826.483 1387.9L826.473 1387.9L826.463 1387.9L826.304 1388.88ZM821.652 1387.74L820.683 1387.49L820.476 1388.3L821.231 1388.65L821.652 1387.74ZM825.478 1372.85L825.698 1371.88L824.751 1371.66L824.51 1372.6L825.478 1372.85ZM836.302 1373.67L836.183 1372.68L836.183 1372.68L836.302 1373.67ZM844.486 1369.24L843.758 1368.55L843.751 1368.56L843.745 1368.57L844.486 1369.24ZM850.878 1357.04L851.826 1357.36L851.827 1357.36L850.878 1357.04ZM853.752 1348.43L854.7 1348.75L854.817 1348.4L854.68 1348.06L853.752 1348.43ZM810.214 1240L810.185 1239L808.752 1239.05L809.286 1240.38L810.214 1240ZM828.388 1239.47L829.323 1239.11L829.07 1238.45L828.359 1238.47L828.388 1239.47ZM861.037 1325.48L860.102 1325.84L860.355 1326.5L861.066 1326.48L861.037 1325.48ZM862.173 1325.45L862.202 1326.45L862.914 1326.43L863.127 1325.75L862.173 1325.45ZM889.725 1237.67L889.696 1236.67L888.984 1236.69L888.771 1237.37L889.725 1237.67ZM907.899 1237.14L908.847 1237.46L909.306 1236.1L907.87 1236.14L907.899 1237.14ZM865.276 1363.44L864.329 1363.12L864.329 1363.12L865.276 1363.44ZM857.948 1377.65L857.162 1377.04L857.158 1377.04L857.948 1377.65ZM847.472 1386.27L847.041 1385.37L847.037 1385.37L847.472 1386.27ZM833.891 1388.37C831.105 1388.45 828.638 1388.29 826.483 1387.9L826.124 1389.87C828.446 1390.29 831.057 1390.46 833.95 1390.37L833.891 1388.37ZM826.463 1387.9C824.226 1387.54 822.799 1387.17 822.072 1386.84L821.231 1388.65C822.233 1389.11 823.907 1389.51 826.144 1389.87L826.463 1387.9ZM822.62 1387.99L826.447 1373.1L824.51 1372.6L820.683 1387.49L822.62 1387.99ZM825.259 1373.83C829.435 1374.77 833.162 1375.06 836.422 1374.66L836.183 1372.68C833.212 1373.04 829.722 1372.78 825.698 1371.88L825.259 1373.83ZM836.422 1374.66C839.803 1374.26 842.743 1372.65 845.226 1369.91L843.745 1368.57C841.547 1370.99 839.032 1372.33 836.183 1372.68L836.422 1374.66ZM845.213 1369.92C847.748 1367.24 849.935 1363.01 851.826 1357.36L849.93 1356.73C848.075 1362.27 846.001 1366.17 843.758 1368.55L845.213 1369.92ZM851.827 1357.36L854.7 1348.75L852.803 1348.12L849.929 1356.73L851.827 1357.36ZM854.68 1348.06L811.142 1239.63L809.286 1240.38L852.824 1348.8L854.68 1348.06ZM810.243 1241L828.417 1240.47L828.359 1238.47L810.185 1239L810.243 1241ZM827.453 1239.82L860.102 1325.84L861.972 1325.13L829.323 1239.11L827.453 1239.82ZM861.066 1326.48L862.202 1326.45L862.143 1324.45L861.008 1324.48L861.066 1326.48ZM863.127 1325.75L890.679 1237.97L888.771 1237.37L861.219 1325.15L863.127 1325.75ZM889.755 1238.67L907.929 1238.14L907.87 1236.14L889.696 1236.67L889.755 1238.67ZM906.952 1236.82L864.329 1363.12L866.224 1363.76L908.847 1237.46L906.952 1236.82ZM864.329 1363.12C862.439 1368.73 860.044 1373.36 857.162 1377.04L858.735 1378.27C861.788 1374.38 864.279 1369.54 866.224 1363.76L864.329 1363.12ZM857.158 1377.04C854.278 1380.76 850.906 1383.53 847.041 1385.37L847.903 1387.18C852.073 1385.19 855.685 1382.21 858.739 1378.27L857.158 1377.04ZM847.037 1385.37C843.211 1387.22 838.836 1388.23 833.891 1388.37L833.95 1390.37C839.134 1390.22 843.792 1389.16 847.907 1387.18L847.037 1385.37Z" fill="#553F2E" fill-opacity="0.5"/>
<defs>
<clipPath id="clip0_0_1">
<rect width="1087" height="546" fill="white" transform="translate(13 756)"/>
</clipPath>
</defs>
</svg>
