<svg width="916" height="830" viewBox="0 0 916 830" fill="none" xmlns="http://www.w3.org/2000/svg">
<rect width="916" height="830" fill="#1E1E1E"/>
<g clip-path="url(#clip0_0_1)">
<rect width="916" height="830" fill="white"/>
<g filter="url(#filter0_b_0_1)">
<path d="M127.731 42.1342C122.299 36.702 115.85 32.3929 108.753 29.453C101.655 26.5131 86.3657 25 86.3657 25C78.6834 25 71.0763 26.5132 63.9788 29.4531C56.8812 32.393 50.4322 36.702 45 42.1343" stroke="#B3CC1F" stroke-width="10"/>
</g>
<g filter="url(#filter1_b_0_1)">
<path d="M82.1806 25.7264C76.1719 23.3524 70.477 22.2484 65.4211 22.4774C60.3652 22.7063 52.7139 27.0609 52.7139 27.0609C49.3805 29.858 47.0968 33.8398 45.9934 38.7792" stroke="#B3CC1F" stroke-width="10"/>
</g>
<g filter="url(#filter2_b_0_1)">
<path d="M127.631 42.4782C125.159 37.2479 121.902 32.8704 118.045 29.5956C114.188 26.3208 105.151 23.3919 105.151 23.3919C100.496 22.5711 95.6585 23.0536 90.914 24.8117" stroke="#B3CC1F" stroke-width="10"/>
</g>
<g filter="url(#filter3_b_0_1)">
<path d="M117 55C112.929 50.8785 108.096 47.6091 102.777 45.3786C97.4581 43.148 91.7572 42 86 42C80.2428 42 74.5419 43.148 69.2229 45.3786C63.9039 47.6091 59.071 50.8785 55 55" stroke="#553F2E" stroke-width="10"/>
</g>
<g filter="url(#filter4_b_0_1)">
<path d="M104 67C101.636 64.7807 98.83 63.0203 95.7415 61.8192C92.6531 60.6182 89.3429 60 86 60C82.6571 60 79.3469 60.6182 76.2585 61.8192C73.17 63.0203 70.3638 64.7807 68 67" stroke="#553F2E" stroke-width="10"/>
</g>
<g filter="url(#filter5_b_0_1)">
<path d="M57.0114 111L50.3636 89.1818H53.8864L58.6023 105.886H58.8295L63.4886 89.1818H67.0682L71.6705 105.83H71.8977L76.6136 89.1818H80.1364L73.4886 111H70.1932L65.4205 94.2386H65.0795L60.3068 111H57.0114ZM84.5682 111V89.1818H87.9205V111H84.5682ZM86.2727 85.5455C85.6193 85.5455 85.0559 85.3229 84.5824 84.8778C84.1184 84.4328 83.8864 83.8977 83.8864 83.2727C83.8864 82.6477 84.1184 82.1127 84.5824 81.6676C85.0559 81.2225 85.6193 81 86.2727 81C86.9261 81 87.4848 81.2225 87.9489 81.6676C88.4223 82.1127 88.6591 82.6477 88.6591 83.2727C88.6591 83.8977 88.4223 84.4328 87.9489 84.8778C87.4848 85.3229 86.9261 85.5455 86.2727 85.5455ZM103.776 89.1818V92.0227H92.0149V89.1818H103.776ZM95.5376 111V86.1705C95.5376 84.9205 95.8312 83.8788 96.4183 83.0455C97.0054 82.2121 97.7678 81.5871 98.7053 81.1705C99.6428 80.7538 100.632 80.5455 101.674 80.5455C102.498 80.5455 103.17 80.6117 103.691 80.7443C104.212 80.8769 104.6 81 104.856 81.1136L103.89 84.0114C103.719 83.9545 103.483 83.8835 103.18 83.7983C102.886 83.7131 102.498 83.6705 102.015 83.6705C100.907 83.6705 100.107 83.9498 99.6143 84.5085C99.1314 85.0672 98.8899 85.8864 98.8899 86.9659V111H95.5376ZM110.634 119.182C110.065 119.182 109.559 119.134 109.114 119.04C108.669 118.955 108.361 118.869 108.19 118.784L109.043 115.83C109.857 116.038 110.577 116.114 111.202 116.057C111.827 116 112.381 115.721 112.864 115.219C113.356 114.726 113.806 113.926 114.213 112.818L114.838 111.114L106.77 89.1818H110.406L116.429 106.568H116.656L122.679 89.1818H126.315L117.054 114.182C116.637 115.309 116.121 116.241 115.506 116.98C114.89 117.728 114.175 118.282 113.361 118.642C112.556 119.002 111.647 119.182 110.634 119.182Z" fill="#553F2E"/>
<path d="M57.0114 111L56.0548 111.291L56.2707 112H57.0114V111ZM50.3636 89.1818V88.1818H49.0136L49.4071 89.4733L50.3636 89.1818ZM53.8864 89.1818L54.8487 88.9101L54.6431 88.1818H53.8864V89.1818ZM58.6023 105.886L57.6399 106.158L57.8455 106.886H58.6023V105.886ZM58.8295 105.886V106.886H59.5888L59.7928 106.155L58.8295 105.886ZM63.4886 89.1818V88.1818H62.7294L62.5254 88.9132L63.4886 89.1818ZM67.0682 89.1818L68.032 88.9154L67.8292 88.1818H67.0682V89.1818ZM71.6705 105.83L70.7066 106.096L70.9094 106.83H71.6705V105.83ZM71.8977 105.83V106.83H72.6538L72.8599 106.102L71.8977 105.83ZM76.6136 89.1818V88.1818H75.8576L75.6515 88.9093L76.6136 89.1818ZM80.1364 89.1818L81.0929 89.4733L81.4864 88.1818H80.1364V89.1818ZM73.4886 111V112H74.2293L74.4452 111.291L73.4886 111ZM70.1932 111L69.2314 111.274L69.4382 112H70.1932V111ZM65.4205 94.2386L66.3822 93.9648L66.1755 93.2386H65.4205V94.2386ZM65.0795 94.2386V93.2386H64.3245L64.1178 93.9648L65.0795 94.2386ZM60.3068 111V112H61.0618L61.2686 111.274L60.3068 111ZM57.9679 110.709L51.3202 88.8904L49.4071 89.4733L56.0548 111.291L57.9679 110.709ZM50.3636 90.1818H53.8864V88.1818H50.3636V90.1818ZM52.924 89.4535L57.6399 106.158L59.5647 105.615L54.8487 88.9101L52.924 89.4535ZM58.6023 106.886H58.8295V104.886H58.6023V106.886ZM59.7928 106.155L64.4519 89.4505L62.5254 88.9132L57.8663 105.618L59.7928 106.155ZM63.4886 90.1818H67.0682V88.1818H63.4886V90.1818ZM66.1043 89.4483L70.7066 106.096L72.6343 105.563L68.032 88.9154L66.1043 89.4483ZM71.6705 106.83H71.8977V104.83H71.6705V106.83ZM72.8599 106.102L77.5758 89.4544L75.6515 88.9093L70.9356 105.557L72.8599 106.102ZM76.6136 90.1818H80.1364V88.1818H76.6136V90.1818ZM79.1798 88.8904L72.5321 110.709L74.4452 111.291L81.0929 89.4733L79.1798 88.8904ZM73.4886 110H70.1932V112H73.4886V110ZM71.155 110.726L66.3822 93.9648L64.4587 94.5125L69.2314 111.274L71.155 110.726ZM65.4205 93.2386H65.0795V95.2386H65.4205V93.2386ZM64.1178 93.9648L59.345 110.726L61.2686 111.274L66.0413 94.5125L64.1178 93.9648ZM60.3068 110H57.0114V112H60.3068V110ZM84.5682 111H83.5682V112H84.5682V111ZM84.5682 89.1818V88.1818H83.5682V89.1818H84.5682ZM87.9205 89.1818H88.9205V88.1818H87.9205V89.1818ZM87.9205 111V112H88.9205V111H87.9205ZM84.5824 84.8778L83.8901 85.5996L83.8975 85.6065L84.5824 84.8778ZM84.5824 81.6676L83.8974 80.9389L83.8902 80.9459L84.5824 81.6676ZM87.9489 81.6676L87.2566 82.3893L87.264 82.3962L87.9489 81.6676ZM87.9489 84.8778L87.2639 84.1492L87.2566 84.1562L87.9489 84.8778ZM85.5682 111V89.1818H83.5682V111H85.5682ZM84.5682 90.1818H87.9205V88.1818H84.5682V90.1818ZM86.9205 89.1818V111H88.9205V89.1818H86.9205ZM87.9205 110H84.5682V112H87.9205V110ZM86.2727 84.5455C85.8723 84.5455 85.5542 84.4189 85.2673 84.1492L83.8975 85.6065C84.5575 86.2269 85.3664 86.5455 86.2727 86.5455V84.5455ZM85.2746 84.1562C85.0008 83.8936 84.8864 83.6166 84.8864 83.2727H82.8864C82.8864 84.1789 83.2359 84.972 83.8902 85.5995L85.2746 84.1562ZM84.8864 83.2727C84.8864 82.9289 85.0008 82.6519 85.2746 82.3893L83.8902 80.9459C83.2359 81.5735 82.8864 82.3666 82.8864 83.2727H84.8864ZM85.2673 82.3962C85.5542 82.1266 85.8723 82 86.2727 82V80C85.3664 80 84.5575 80.3185 83.8975 80.939L85.2673 82.3962ZM86.2727 82C86.6728 82 86.9822 82.126 87.2566 82.3893L88.6411 80.9459C87.9875 80.319 87.1795 80 86.2727 80V82ZM87.264 82.3962C87.5454 82.6608 87.6591 82.9358 87.6591 83.2727H89.6591C89.6591 82.3597 89.2993 81.5646 88.6338 80.939L87.264 82.3962ZM87.6591 83.2727C87.6591 83.6097 87.5454 83.8847 87.264 84.1492L88.6338 85.6065C89.2993 84.9809 89.6591 84.1858 89.6591 83.2727H87.6591ZM87.2566 84.1562C86.9822 84.4194 86.6728 84.5455 86.2727 84.5455V86.5455C87.1795 86.5455 87.9875 86.2264 88.6411 85.5995L87.2566 84.1562ZM103.776 89.1818H104.776V88.1818H103.776V89.1818ZM103.776 92.0227V93.0227H104.776V92.0227H103.776ZM92.0149 92.0227H91.0149V93.0227H92.0149V92.0227ZM92.0149 89.1818V88.1818H91.0149V89.1818H92.0149ZM95.5376 111H94.5376V112H95.5376V111ZM96.4183 83.0455L95.6008 82.4695L95.6008 82.4695L96.4183 83.0455ZM98.7053 81.1705L98.2991 80.2566L98.2991 80.2566L98.7053 81.1705ZM103.691 80.7443L103.444 81.7134L103.444 81.7134L103.691 80.7443ZM104.856 81.1136L105.805 81.4299L106.092 80.5686L105.262 80.1998L104.856 81.1136ZM103.89 84.0114L103.574 84.96L104.522 85.2763L104.839 84.3276L103.89 84.0114ZM103.18 83.7983L102.901 84.7587L102.909 84.7609L103.18 83.7983ZM99.6143 84.5085L98.8641 83.8473L98.8578 83.8546L99.6143 84.5085ZM98.8899 111V112H99.8899V111H98.8899ZM102.776 89.1818V92.0227H104.776V89.1818H102.776ZM103.776 91.0227H92.0149V93.0227H103.776V91.0227ZM93.0149 92.0227V89.1818H91.0149V92.0227H93.0149ZM92.0149 90.1818H103.776V88.1818H92.0149V90.1818ZM96.5376 111V86.1705H94.5376V111H96.5376ZM96.5376 86.1705C96.5376 85.0794 96.7921 84.2512 97.2358 83.6214L95.6008 82.4695C94.8703 83.5063 94.5376 84.7615 94.5376 86.1705H96.5376ZM97.2358 83.6214C97.7182 82.9368 98.3379 82.428 99.1114 82.0843L98.2991 80.2566C97.1976 80.7462 96.2927 81.4875 95.6008 82.4695L97.2358 83.6214ZM99.1114 82.0843C99.919 81.7253 100.77 81.5455 101.674 81.5455V79.5455C100.495 79.5455 99.3665 79.7823 98.2991 80.2566L99.1114 82.0843ZM101.674 81.5455C102.454 81.5455 103.035 81.6092 103.444 81.7134L103.938 79.7752C103.306 79.6143 102.542 79.5455 101.674 79.5455V81.5455ZM103.444 81.7134C103.951 81.8423 104.273 81.9489 104.45 82.0274L105.262 80.1998C104.927 80.0511 104.473 79.9115 103.938 79.7752L103.444 81.7134ZM103.907 80.7974L102.941 83.6951L104.839 84.3276L105.805 81.4299L103.907 80.7974ZM104.206 83.0627C104.014 82.9985 103.759 82.9225 103.45 82.8356L102.909 84.7609C103.206 84.8445 103.425 84.9106 103.574 84.96L104.206 83.0627ZM103.459 82.8379C103.038 82.7158 102.544 82.6705 102.015 82.6705V84.6705C102.451 84.6705 102.735 84.7104 102.901 84.7586L103.459 82.8379ZM102.015 82.6705C100.761 82.6705 99.6234 82.9859 98.8641 83.8473L100.365 85.1697C100.59 84.9137 101.052 84.6705 102.015 84.6705V82.6705ZM98.8578 83.8546C98.1591 84.6629 97.8899 85.7546 97.8899 86.9659H99.8899C99.8899 86.0181 100.104 85.4715 100.371 85.1625L98.8578 83.8546ZM97.8899 86.9659V111H99.8899V86.9659H97.8899ZM98.8899 110H95.5376V112H98.8899V110ZM109.114 119.04L109.322 118.062L109.312 118.06L109.302 118.058L109.114 119.04ZM108.19 118.784L107.23 118.507L106.999 119.306L107.743 119.679L108.19 118.784ZM109.043 115.83L109.29 114.861L108.351 114.62L108.082 115.552L109.043 115.83ZM111.202 116.057L111.111 115.061L111.111 115.061L111.202 116.057ZM112.864 115.219L112.157 114.512L112.15 114.518L112.143 114.525L112.864 115.219ZM114.213 112.818L115.152 113.163L115.152 113.162L114.213 112.818ZM114.838 111.114L115.777 111.458L115.903 111.113L115.777 110.768L114.838 111.114ZM106.77 89.1818V88.1818H105.336L105.831 89.5271L106.77 89.1818ZM110.406 89.1818L111.351 88.8545L111.118 88.1818H110.406V89.1818ZM116.429 106.568L115.484 106.896L115.717 107.568H116.429V106.568ZM116.656 106.568V107.568H117.368L117.601 106.896L116.656 106.568ZM122.679 89.1818V88.1818H121.967L121.734 88.8545L122.679 89.1818ZM126.315 89.1818L127.253 89.5292L127.752 88.1818H126.315V89.1818ZM117.054 114.182L116.116 113.834L116.116 113.835L117.054 114.182ZM115.506 116.98L114.737 116.34L114.733 116.345L115.506 116.98ZM113.361 118.642L112.957 117.727L112.953 117.729L113.361 118.642ZM110.634 118.182C110.119 118.182 109.684 118.139 109.322 118.062L108.906 120.018C109.433 120.13 110.012 120.182 110.634 120.182V118.182ZM109.302 118.058C109.096 118.018 108.936 117.981 108.816 117.948C108.757 117.932 108.712 117.918 108.68 117.906C108.646 117.894 108.634 117.888 108.638 117.89L107.743 119.679C108.049 119.832 108.48 119.937 108.926 120.022L109.302 118.058ZM109.151 119.061L110.003 116.107L108.082 115.552L107.23 118.507L109.151 119.061ZM108.795 116.798C109.684 117.026 110.523 117.123 111.292 117.053L111.111 115.061C110.631 115.105 110.03 115.05 109.29 114.861L108.795 116.798ZM111.292 117.053C112.184 116.972 112.954 116.567 113.584 115.912L112.143 114.525C111.807 114.874 111.47 115.028 111.111 115.061L111.292 117.053ZM113.571 115.926C114.213 115.283 114.725 114.325 115.152 113.163L113.274 112.473C112.887 113.527 112.499 114.169 112.157 114.512L113.571 115.926ZM115.152 113.162L115.777 111.458L113.899 110.769L113.274 112.474L115.152 113.162ZM115.777 110.768L107.708 88.8366L105.831 89.5271L113.9 111.459L115.777 110.768ZM106.77 90.1818H110.406V88.1818H106.77V90.1818ZM109.461 89.5091L115.484 106.896L117.374 106.241L111.351 88.8545L109.461 89.5091ZM116.429 107.568H116.656V105.568H116.429V107.568ZM117.601 106.896L123.624 89.5091L121.734 88.8545L115.711 106.241L117.601 106.896ZM122.679 90.1818H126.315V88.1818H122.679V90.1818ZM125.378 88.8344L116.116 113.834L117.992 114.529L127.253 89.5292L125.378 88.8344ZM116.116 113.835C115.729 114.881 115.265 115.707 114.737 116.34L116.274 117.62C116.978 116.776 117.545 115.737 117.992 114.529L116.116 113.835ZM114.733 116.345C114.208 116.983 113.616 117.436 112.957 117.727L113.765 119.557C114.734 119.128 115.572 118.473 116.278 117.615L114.733 116.345ZM112.953 117.729C112.294 118.024 111.527 118.182 110.634 118.182V120.182C111.767 120.182 112.818 119.98 113.769 119.555L112.953 117.729Z" fill="#553F2E"/>
</g>
<g filter="url(#filter6_b_0_1)">
<path d="M141.855 111V89.1818H145.932V92.733H146.202C146.656 91.5303 147.4 90.5928 148.432 89.9205C149.464 89.2386 150.7 88.8977 152.139 88.8977C153.598 88.8977 154.819 89.2386 155.804 89.9205C156.798 90.6023 157.532 91.5398 158.006 92.733H158.233C158.754 91.5682 159.582 90.6402 160.719 89.9489C161.855 89.2481 163.209 88.8977 164.781 88.8977C166.76 88.8977 168.375 89.518 169.625 90.7585C170.884 91.9991 171.514 93.8693 171.514 96.3693V111H167.267V96.767C167.267 95.2898 166.865 94.2197 166.06 93.5568C165.255 92.8939 164.294 92.5625 163.176 92.5625C161.794 92.5625 160.719 92.9886 159.952 93.8409C159.185 94.6837 158.801 95.768 158.801 97.0938V111H154.568V96.4972C154.568 95.3134 154.199 94.3617 153.46 93.642C152.722 92.9223 151.76 92.5625 150.577 92.5625C149.772 92.5625 149.028 92.7756 148.347 93.2017C147.674 93.6184 147.13 94.2008 146.713 94.9489C146.306 95.697 146.102 96.5634 146.102 97.5483V111H141.855ZM186.61 111.44C184.46 111.44 182.609 110.981 181.056 110.062C179.513 109.134 178.319 107.832 177.477 106.156C176.643 104.471 176.227 102.496 176.227 100.233C176.227 97.9981 176.643 96.0284 177.477 94.3239C178.319 92.6193 179.494 91.2888 180.999 90.3324C182.514 89.3759 184.285 88.8977 186.312 88.8977C187.543 88.8977 188.736 89.1013 189.891 89.5085C191.047 89.9157 192.084 90.5549 193.002 91.4261C193.921 92.2973 194.645 93.429 195.175 94.821C195.706 96.2036 195.971 97.8845 195.971 99.8636V101.369H178.627V98.1875H191.809C191.809 97.0701 191.582 96.0805 191.127 95.2188C190.673 94.3475 190.033 93.661 189.21 93.1591C188.395 92.6572 187.439 92.4062 186.34 92.4062C185.147 92.4062 184.105 92.6998 183.215 93.2869C182.335 93.8646 181.653 94.6222 181.17 95.5597C180.696 96.4877 180.46 97.4962 180.46 98.5852V101.071C180.46 102.529 180.715 103.77 181.227 104.793C181.747 105.815 182.472 106.597 183.4 107.136C184.328 107.667 185.412 107.932 186.653 107.932C187.458 107.932 188.192 107.818 188.854 107.591C189.517 107.354 190.09 107.004 190.573 106.54C191.056 106.076 191.425 105.503 191.681 104.821L195.701 105.545C195.379 106.729 194.801 107.766 193.968 108.656C193.144 109.537 192.107 110.223 190.857 110.716C189.617 111.199 188.201 111.44 186.61 111.44Z" fill="#B3CC1F"/>
</g>
<path d="M0.5 138H912.5" stroke="#B3CC1F"/>
<path d="M797.784 791V777.364H800.332V779.583H800.501C800.785 778.831 801.25 778.246 801.895 777.825C802.54 777.399 803.312 777.186 804.212 777.186C805.123 777.186 805.887 777.399 806.502 777.825C807.124 778.251 807.583 778.837 807.879 779.583H808.021C808.346 778.855 808.864 778.275 809.574 777.843C810.284 777.405 811.131 777.186 812.113 777.186C813.35 777.186 814.359 777.574 815.141 778.349C815.928 779.124 816.321 780.293 816.321 781.856V791H813.667V782.104C813.667 781.181 813.415 780.512 812.912 780.098C812.409 779.684 811.808 779.477 811.11 779.477C810.246 779.477 809.574 779.743 809.095 780.276C808.615 780.802 808.376 781.48 808.376 782.309V791H805.73V781.936C805.73 781.196 805.499 780.601 805.038 780.151C804.576 779.701 803.975 779.477 803.235 779.477C802.732 779.477 802.268 779.61 801.842 779.876C801.421 780.136 801.081 780.5 800.821 780.968C800.566 781.436 800.439 781.977 800.439 782.593V791H797.784ZM825.756 791.275C824.413 791.275 823.256 790.988 822.285 790.414C821.32 789.834 820.575 789.02 820.048 787.973C819.527 786.919 819.267 785.685 819.267 784.271C819.267 782.874 819.527 781.643 820.048 780.577C820.575 779.512 821.309 778.681 822.25 778.083C823.197 777.485 824.303 777.186 825.57 777.186C826.339 777.186 827.085 777.313 827.807 777.568C828.529 777.822 829.177 778.222 829.751 778.766C830.325 779.311 830.778 780.018 831.11 780.888C831.441 781.752 831.607 782.803 831.607 784.04V784.981H820.767V782.992H829.006C829.006 782.294 828.864 781.675 828.579 781.137C828.295 780.592 827.896 780.163 827.381 779.849C826.872 779.536 826.274 779.379 825.588 779.379C824.842 779.379 824.191 779.562 823.634 779.929C823.084 780.29 822.658 780.764 822.356 781.35C822.06 781.93 821.912 782.56 821.912 783.241V784.794C821.912 785.706 822.072 786.481 822.392 787.12C822.717 787.76 823.17 788.248 823.75 788.585C824.33 788.917 825.008 789.082 825.783 789.082C826.286 789.082 826.745 789.011 827.159 788.869C827.573 788.721 827.931 788.502 828.233 788.212C828.535 787.922 828.766 787.564 828.926 787.138L831.438 787.591C831.237 788.331 830.876 788.979 830.355 789.535C829.84 790.086 829.192 790.515 828.411 790.822C827.635 791.124 826.751 791.275 825.756 791.275Z" fill="#553F2E"/>
<path d="M744.741 791L740.728 777.364H743.471L746.143 787.378H746.277L748.958 777.364H751.701L754.364 787.333H754.498L757.152 777.364H759.895L755.891 791H753.184L750.414 781.154H750.21L747.44 791H744.741ZM762.414 791V777.364H765.069V791H762.414ZM763.755 775.26C763.293 775.26 762.897 775.106 762.565 774.798C762.24 774.484 762.077 774.111 762.077 773.679C762.077 773.241 762.24 772.868 762.565 772.561C762.897 772.247 763.293 772.09 763.755 772.09C764.217 772.09 764.61 772.247 764.936 772.561C765.267 772.868 765.433 773.241 765.433 773.679C765.433 774.111 765.267 774.484 764.936 774.798C764.61 775.106 764.217 775.26 763.755 775.26ZM775.13 777.364V779.494H767.424V777.364H775.13ZM769.537 791V775.783C769.537 774.931 769.723 774.224 770.096 773.662C770.469 773.093 770.963 772.67 771.578 772.392C772.194 772.108 772.863 771.966 773.585 771.966C774.118 771.966 774.573 772.01 774.952 772.099C775.331 772.182 775.612 772.259 775.795 772.33L775.174 774.478C775.05 774.443 774.89 774.401 774.695 774.354C774.499 774.301 774.263 774.274 773.984 774.274C773.339 774.274 772.878 774.434 772.599 774.754C772.327 775.073 772.191 775.535 772.191 776.138V791H769.537ZM779.546 796.114C779.15 796.114 778.789 796.081 778.463 796.016C778.138 795.957 777.895 795.892 777.735 795.821L778.374 793.646C778.86 793.776 779.292 793.832 779.671 793.814C780.049 793.797 780.384 793.654 780.674 793.388C780.97 793.122 781.23 792.687 781.455 792.083L781.784 791.178L776.794 777.364H779.635L783.089 787.946H783.231L786.684 777.364H789.534L783.914 792.82C783.654 793.53 783.322 794.131 782.92 794.622C782.517 795.119 782.038 795.492 781.482 795.741C780.925 795.989 780.28 796.114 779.546 796.114Z" fill="#B3CC1F" fill-opacity="0.35"/>
</g>
<defs>
<filter id="filter0_b_0_1" x="37.4645" y="16" width="97.8026" height="33.6698" filterUnits="userSpaceOnUse" color-interpolation-filters="sRGB">
<feFlood flood-opacity="0" result="BackgroundImageFix"/>
<feGaussianBlur in="BackgroundImageFix" stdDeviation="2"/>
<feComposite in2="SourceAlpha" operator="in" result="effect1_backgroundBlur_0_1"/>
<feBlend mode="normal" in="SourceGraphic" in2="effect1_backgroundBlur_0_1" result="shape"/>
</filter>
<filter id="filter1_b_0_1" x="37.1137" y="13.4478" width="50.9041" height="30.4215" filterUnits="userSpaceOnUse" color-interpolation-filters="sRGB">
<feFlood flood-opacity="0" result="BackgroundImageFix"/>
<feGaussianBlur in="BackgroundImageFix" stdDeviation="2"/>
<feComposite in2="SourceAlpha" operator="in" result="effect1_backgroundBlur_0_1"/>
<feBlend mode="normal" in="SourceGraphic" in2="effect1_backgroundBlur_0_1" result="shape"/>
</filter>
<filter id="filter2_b_0_1" x="85.1766" y="14.0033" width="50.9749" height="34.6113" filterUnits="userSpaceOnUse" color-interpolation-filters="sRGB">
<feFlood flood-opacity="0" result="BackgroundImageFix"/>
<feGaussianBlur in="BackgroundImageFix" stdDeviation="2"/>
<feComposite in2="SourceAlpha" operator="in" result="effect1_backgroundBlur_0_1"/>
<feBlend mode="normal" in="SourceGraphic" in2="effect1_backgroundBlur_0_1" result="shape"/>
</filter>
<filter id="filter3_b_0_1" x="47.4427" y="33" width="77.1146" height="29.5137" filterUnits="userSpaceOnUse" color-interpolation-filters="sRGB">
<feFlood flood-opacity="0" result="BackgroundImageFix"/>
<feGaussianBlur in="BackgroundImageFix" stdDeviation="2"/>
<feComposite in2="SourceAlpha" operator="in" result="effect1_backgroundBlur_0_1"/>
<feBlend mode="normal" in="SourceGraphic" in2="effect1_backgroundBlur_0_1" result="shape"/>
</filter>
<filter id="filter4_b_0_1" x="60.5777" y="51" width="50.8447" height="23.6452" filterUnits="userSpaceOnUse" color-interpolation-filters="sRGB">
<feFlood flood-opacity="0" result="BackgroundImageFix"/>
<feGaussianBlur in="BackgroundImageFix" stdDeviation="2"/>
<feComposite in2="SourceAlpha" operator="in" result="effect1_backgroundBlur_0_1"/>
<feBlend mode="normal" in="SourceGraphic" in2="effect1_backgroundBlur_0_1" result="shape"/>
</filter>
<filter id="filter5_b_0_1" x="46.3636" y="76.5454" width="83.9517" height="46.6364" filterUnits="userSpaceOnUse" color-interpolation-filters="sRGB">
<feFlood flood-opacity="0" result="BackgroundImageFix"/>
<feGaussianBlur in="BackgroundImageFix" stdDeviation="2"/>
<feComposite in2="SourceAlpha" operator="in" result="effect1_backgroundBlur_0_1"/>
<feBlend mode="normal" in="SourceGraphic" in2="effect1_backgroundBlur_0_1" result="shape"/>
</filter>
<filter id="filter6_b_0_1" x="137.855" y="84.8977" width="62.1158" height="30.5426" filterUnits="userSpaceOnUse" color-interpolation-filters="sRGB">
<feFlood flood-opacity="0" result="BackgroundImageFix"/>
<feGaussianBlur in="BackgroundImageFix" stdDeviation="2"/>
<feComposite in2="SourceAlpha" operator="in" result="effect1_backgroundBlur_0_1"/>
<feBlend mode="normal" in="SourceGraphic" in2="effect1_backgroundBlur_0_1" result="shape"/>
</filter>
<clipPath id="clip0_0_1">
<rect width="916" height="830" fill="white"/>
</clipPath>
</defs>
</svg>
