<svg width="553" height="687" viewBox="0 0 553 687" fill="none" xmlns="http://www.w3.org/2000/svg">
<rect width="553" height="687" fill="#1E1E1E"/>
<rect width="553" height="352" fill="#F7ECDF"/>
<path d="M40 52.8275C58.856 35.8019 87.9438 37.2858 104.969 56.1418" stroke="#B3CC1F" stroke-width="8"/>
<path d="M49.2884 63.3036C62.3586 51.4079 82.5975 52.36 94.4932 65.4302" stroke="#553F2E" stroke-width="8"/>
<path d="M58.0387 72.9178C65.7991 65.8547 77.8159 66.42 84.879 74.1805" stroke="#553F2E" stroke-width="8"/>
<path d="M77.2846 81.6615C74.473 78.5723 69.532 78.4907 66.2484 81.4792" stroke="#553F2E" stroke-width="8"/>
<path d="M62.1484 104.318L61.6984 104.418L59.1984 97.1181L57.2484 102.818C57.0818 102.868 56.8234 103.11 56.4734 103.543C56.1234 103.976 55.9484 104.235 55.9484 104.318L55.4984 104.418L51.9484 94.2681C51.7984 93.8848 51.6318 93.6098 51.4484 93.4431C51.2818 93.2598 51.0151 93.1681 50.6484 93.1681H50.2984V92.4181H54.9984L54.9484 93.1681C54.2818 93.1681 53.9484 93.3681 53.9484 93.7681C53.9484 93.9014 54.0151 94.1681 54.1484 94.5681L56.5484 101.368L58.5984 95.4181L58.1484 94.2681C57.8651 93.5348 57.4984 93.1681 57.0484 93.1681V92.4181H61.4984V93.1681H61.2984C60.5651 93.1681 60.1984 93.3681 60.1984 93.7681C60.1984 93.8348 60.2484 94.0181 60.3484 94.3181L62.7484 101.368L65.1984 94.2181C65.3318 93.9014 65.3984 93.6764 65.3984 93.5431C65.3984 93.3931 65.3068 93.2931 65.1234 93.2431C64.9568 93.1931 64.5651 93.1681 63.9484 93.1681H63.6484V92.4181H68.3484V93.1681H68.0984C67.5484 93.1681 67.1651 93.2514 66.9484 93.4181C66.7318 93.5848 66.5484 93.9014 66.3984 94.3681L63.4984 102.818C63.3484 102.818 63.0818 103.051 62.6984 103.518C62.3318 103.968 62.1484 104.235 62.1484 104.318ZM71.7881 86.6681C72.1714 86.6681 72.4631 86.7931 72.6631 87.0431C72.8798 87.2931 72.9881 87.6181 72.9881 88.0181C72.9881 88.4014 72.8298 88.7264 72.5131 88.9931C72.1964 89.2431 71.8464 89.3681 71.4631 89.3681C71.0964 89.3681 70.8048 89.2431 70.5881 88.9931C70.3881 88.7431 70.2881 88.4348 70.2881 88.0681C70.2881 87.6848 70.4464 87.3598 70.7631 87.0931C71.0798 86.8098 71.4214 86.6681 71.7881 86.6681ZM74.5381 104.068H69.4881V103.368H69.8881C70.3381 103.368 70.6214 103.293 70.7381 103.143C70.8714 102.993 70.9381 102.751 70.9381 102.418V94.9181C70.9381 94.6014 70.8298 94.3764 70.6131 94.2431C70.4131 94.0931 70.0381 94.0181 69.4881 94.0181V93.3181C69.8214 93.3181 70.3214 93.2014 70.9881 92.9681C71.6714 92.7181 72.1881 92.4848 72.5381 92.2681L72.9881 92.1681V102.268C72.9881 102.535 72.9964 102.726 73.0131 102.843C73.0464 102.96 73.1464 103.076 73.3131 103.193C73.4798 103.31 73.7381 103.368 74.0881 103.368H74.5381V104.068ZM83.2438 84.7681C83.8771 84.7681 84.5938 84.9681 85.3938 85.3681L85.1938 87.6181L84.4938 87.5681C84.4938 87.2348 84.3271 86.8514 83.9938 86.4181C83.6604 85.9848 83.2271 85.7681 82.6938 85.7681C81.7938 85.7681 81.1188 86.2098 80.6688 87.0931C80.2188 87.9764 79.9938 89.4014 79.9938 91.3681C79.9938 92.0348 80.3271 92.3681 80.9938 92.3681H83.4438V93.4181H80.0438V102.218C80.0438 102.485 80.0521 102.685 80.0688 102.818C80.1021 102.935 80.2021 103.06 80.3688 103.193C80.5354 103.31 80.7938 103.368 81.1438 103.368H81.9438V104.068H76.5438V103.368H76.8438C77.2104 103.368 77.4771 103.31 77.6438 103.193C77.8271 103.06 77.9271 102.935 77.9438 102.818C77.9771 102.685 77.9938 102.485 77.9938 102.218V94.3181C77.9938 94.0014 77.9354 93.7764 77.8188 93.6431C77.7021 93.4931 77.4604 93.4181 77.0938 93.4181H76.5438V92.3681H77.9938V91.2681C77.9938 86.9348 79.7438 84.7681 83.2438 84.7681ZM83.6875 109.868L84.0875 107.918H84.4375C84.4708 108.101 84.6208 108.301 84.8875 108.518C85.1542 108.751 85.4375 108.868 85.7375 108.868C86.7708 108.868 87.5042 108.518 87.9375 107.818C88.3708 107.118 88.8208 105.851 89.2875 104.018L85.4875 94.1681C85.3375 93.8181 85.1792 93.5681 85.0125 93.4181C84.8458 93.2514 84.5875 93.1681 84.2375 93.1681H83.8875V92.4181H88.7875V93.1681H88.6375C87.9375 93.1681 87.5875 93.3681 87.5875 93.7681C87.5875 93.8514 87.6708 94.1181 87.8375 94.5681L90.3875 101.368L93.1875 94.3181C93.3875 93.9181 93.4875 93.6681 93.4875 93.5681C93.4875 93.4181 93.3875 93.3181 93.1875 93.2681C93.0042 93.2014 92.6208 93.1681 92.0375 93.1681H91.8375V92.4181H96.4875V93.1681H96.2375C95.6708 93.1681 95.2792 93.2514 95.0625 93.4181C94.8458 93.5848 94.6542 93.9014 94.4875 94.3681L89.4375 107.018C88.9875 108.118 88.4458 108.935 87.8125 109.468C87.1958 110.001 86.3542 110.268 85.2875 110.268C84.8875 110.268 84.3542 110.135 83.6875 109.868Z" fill="#553F2E"/>
<path d="M119.148 103.068H114.798V102.368H114.898C115.082 102.368 115.232 102.276 115.348 102.093C115.482 101.91 115.548 101.685 115.548 101.418V95.0681C115.548 94.4014 115.382 93.8514 115.048 93.4181C114.732 92.9848 114.315 92.7681 113.798 92.7681C113.298 92.7681 112.832 92.8848 112.398 93.1181C111.982 93.3514 111.64 93.6348 111.373 93.9681C111.123 94.3014 110.898 94.6514 110.698 95.0181C110.365 95.6681 110.198 96.1514 110.198 96.4681V101.368C110.198 102.035 110.565 102.368 111.298 102.368H111.748V103.068H107.398V102.368H107.548C107.698 102.368 107.832 102.276 107.948 102.093C108.082 101.91 108.148 101.685 108.148 101.418V95.0681C108.148 94.4014 107.99 93.8514 107.673 93.4181C107.357 92.9848 106.923 92.7681 106.373 92.7681C105.84 92.7681 105.332 92.9431 104.848 93.2931C104.365 93.6431 103.982 94.0514 103.698 94.5181C103.132 95.4681 102.848 96.1348 102.848 96.5181V101.268C102.848 101.535 102.857 101.726 102.873 101.843C102.907 101.96 103.007 102.076 103.173 102.193C103.34 102.31 103.598 102.368 103.948 102.368H104.398V103.068H99.3484V102.368H99.7484C100.198 102.368 100.482 102.293 100.598 102.143C100.732 101.993 100.798 101.751 100.798 101.418V93.9181C100.798 93.6014 100.69 93.3764 100.473 93.2431C100.273 93.0931 99.8984 93.0181 99.3484 93.0181V92.3181C99.6818 92.3181 100.182 92.2014 100.848 91.9681C101.532 91.7181 102.048 91.4848 102.398 91.2681L102.848 91.1681V94.3681C103.332 93.2348 103.907 92.4014 104.573 91.8681C105.257 91.3348 106.182 91.0681 107.348 91.0681C107.882 91.0681 108.348 91.1848 108.748 91.4181C109.148 91.6348 109.448 91.9264 109.648 92.2931C109.982 92.9431 110.165 93.6348 110.198 94.3681C110.582 93.2514 111.123 92.4264 111.823 91.8931C112.523 91.3431 113.465 91.0681 114.648 91.0681C115.248 91.0681 115.757 91.2014 116.173 91.4681C116.59 91.7348 116.89 92.0764 117.073 92.4931C117.39 93.2098 117.548 93.9181 117.548 94.6181V101.368C117.548 101.601 117.565 101.776 117.598 101.893C117.682 102.21 118.032 102.368 118.648 102.368H119.148V103.068ZM130.651 100.018L131.101 100.468C130.035 102.435 128.118 103.418 125.351 103.418C124.068 103.418 122.968 102.851 122.051 101.718C121.151 100.585 120.701 99.3181 120.701 97.9181C120.701 96.0348 121.31 94.4264 122.526 93.0931C123.76 91.7431 125.251 91.0681 127.001 91.0681C127.835 91.0681 128.568 91.3098 129.201 91.7931C130.335 92.6764 130.901 93.8181 130.901 95.2181C130.901 95.4181 130.86 95.6598 130.776 95.9431C130.71 96.2264 130.651 96.3681 130.601 96.3681L122.551 96.6181C122.551 97.9181 122.96 99.1181 123.776 100.218C124.593 101.318 125.585 101.868 126.751 101.868C127.585 101.868 128.351 101.701 129.051 101.368C129.768 101.018 130.301 100.568 130.651 100.018ZM122.801 95.6181L128.651 95.3681C128.685 95.3681 128.701 95.2181 128.701 94.9181C128.701 94.0514 128.443 93.4348 127.926 93.0681C127.426 92.7014 126.726 92.5181 125.826 92.5181C124.943 92.5181 124.218 92.7931 123.651 93.3431C123.085 93.8931 122.801 94.6514 122.801 95.6181Z" fill="#B3CC1F"/>
<path d="M0 156C0 150.477 4.47715 146 10 146H543C548.523 146 553 150.477 553 156V352H0V156Z" fill="#553F2E"/>
<path d="M336.054 215.45L335.504 214.5C336.204 214.033 336.829 213.458 337.379 212.775C337.929 212.092 338.204 211.467 338.204 210.9V194.35C338.204 194.1 338.187 193.908 338.154 193.775C338.12 193.642 338.012 193.525 337.829 193.425C337.645 193.308 337.37 193.25 337.004 193.25H336.204V192.5H342.554V193.25H341.604C341.237 193.25 340.962 193.308 340.779 193.425C340.595 193.525 340.487 193.642 340.454 193.775C340.42 193.908 340.404 194.1 340.404 194.35V210.15C340.404 211.867 339.937 213.1 339.004 213.85C338.687 214.1 338.404 214.283 338.154 214.4C337.904 214.533 337.554 214.7 337.104 214.9C336.654 215.117 336.304 215.3 336.054 215.45ZM349.11 210.35C347.644 210.35 346.419 209.8 345.435 208.7C344.452 207.6 343.96 206.317 343.96 204.85C343.96 202.983 344.66 201.375 346.06 200.025C347.477 198.675 348.969 198 350.535 198C352.102 198 353.36 198.558 354.31 199.675C355.277 200.775 355.76 202.05 355.76 203.5C355.76 205.317 355.085 206.917 353.735 208.3C352.402 209.667 350.86 210.35 349.11 210.35ZM345.71 203.5C345.71 205.05 346.177 206.342 347.11 207.375C348.06 208.392 349.119 208.9 350.285 208.9C351.469 208.9 352.394 208.458 353.06 207.575C353.727 206.692 354.06 205.783 354.06 204.85C354.06 203.433 353.619 202.2 352.735 201.15C351.869 200.083 350.81 199.55 349.56 199.55C348.31 199.55 347.352 199.975 346.685 200.825C346.035 201.658 345.71 202.55 345.71 203.5ZM370.118 210H365.768V209.3H365.918C366.085 209.3 366.227 209.217 366.343 209.05C366.46 208.867 366.518 208.633 366.518 208.35V202C366.518 200.467 365.852 199.7 364.518 199.7C363.568 199.7 362.727 200.2 361.993 201.2C361.277 202.2 360.918 202.95 360.918 203.45V208.2C360.918 208.45 360.935 208.642 360.968 208.775C361.052 209.125 361.402 209.3 362.018 209.3H362.518V210H357.468V209.3H357.818C358.268 209.3 358.56 209.225 358.693 209.075C358.843 208.908 358.918 208.667 358.918 208.35V193.5C358.918 193.183 358.81 192.958 358.593 192.825C358.377 192.675 358.002 192.6 357.468 192.6V191.9C357.818 191.9 358.335 191.808 359.018 191.625C359.702 191.442 360.185 191.25 360.468 191.05L360.918 190.95V201.3C361.785 199.1 363.352 198 365.618 198C366.218 198 366.727 198.133 367.143 198.4C367.577 198.667 367.885 199.008 368.068 199.425C368.402 200.125 368.568 200.833 368.568 201.55V208.3C368.568 208.533 368.585 208.708 368.618 208.825C368.685 209.142 369.018 209.3 369.618 209.3H370.118V210ZM384.671 210H380.371V209.3H380.471C380.655 209.3 380.805 209.208 380.921 209.025C381.055 208.842 381.121 208.617 381.121 208.35V202C381.121 201.25 380.938 200.683 380.571 200.3C380.221 199.9 379.721 199.7 379.071 199.7C378.138 199.7 377.313 200.2 376.596 201.2C375.88 202.2 375.521 202.95 375.521 203.45V208.2C375.521 208.467 375.53 208.658 375.546 208.775C375.58 208.892 375.68 209.008 375.846 209.125C376.013 209.242 376.271 209.3 376.621 209.3H377.071V210H372.021V209.3H372.421C372.871 209.3 373.155 209.225 373.271 209.075C373.405 208.925 373.471 208.683 373.471 208.35V200.85C373.471 200.533 373.363 200.308 373.146 200.175C372.946 200.025 372.571 199.95 372.021 199.95V199.25C372.355 199.25 372.855 199.133 373.521 198.9C374.205 198.65 374.721 198.417 375.071 198.2L375.521 198.1V201.3C375.905 200.25 376.496 199.442 377.296 198.875C378.096 198.292 379.071 198 380.221 198C380.821 198 381.33 198.133 381.746 198.4C382.163 198.667 382.463 199.008 382.646 199.425C382.963 200.142 383.121 200.85 383.121 201.55V208.3C383.121 208.533 383.138 208.708 383.171 208.825C383.255 209.142 383.605 209.3 384.221 209.3H384.671V210ZM397.02 194.15V207.75C397.986 208.317 399.303 208.6 400.97 208.6C402.953 208.6 404.703 208.058 406.22 206.975C406.986 206.425 407.595 205.658 408.045 204.675C408.495 203.692 408.72 202.583 408.72 201.35C408.72 200.1 408.47 198.992 407.97 198.025C407.486 197.058 406.853 196.283 406.07 195.7C404.486 194.5 402.853 193.9 401.17 193.9L397.02 194.15ZM396.67 192.5L402.87 192.25C405.186 192.25 407.011 193 408.345 194.5C409.695 196 410.37 198.008 410.37 200.525C410.37 203.025 409.403 205.233 407.47 207.15C405.553 209.05 403.303 210 400.72 210H392.82V209.25H393.67C394.17 209.25 394.495 209.158 394.645 208.975C394.795 208.792 394.87 208.517 394.87 208.15V194.35C394.87 193.967 394.786 193.692 394.62 193.525C394.47 193.342 394.153 193.25 393.67 193.25H392.82V192.5H396.67ZM417.128 210.35C415.661 210.35 414.436 209.8 413.453 208.7C412.469 207.6 411.978 206.317 411.978 204.85C411.978 202.983 412.678 201.375 414.078 200.025C415.494 198.675 416.986 198 418.553 198C420.119 198 421.378 198.558 422.328 199.675C423.294 200.775 423.778 202.05 423.778 203.5C423.778 205.317 423.103 206.917 421.753 208.3C420.419 209.667 418.878 210.35 417.128 210.35ZM413.728 203.5C413.728 205.05 414.194 206.342 415.128 207.375C416.078 208.392 417.136 208.9 418.303 208.9C419.486 208.9 420.411 208.458 421.078 207.575C421.744 206.692 422.078 205.783 422.078 204.85C422.078 203.433 421.636 202.2 420.753 201.15C419.886 200.083 418.828 199.55 417.578 199.55C416.328 199.55 415.369 199.975 414.703 200.825C414.053 201.658 413.728 202.55 413.728 203.5ZM435.136 206.95L435.586 207.4C434.519 209.367 432.603 210.35 429.836 210.35C428.553 210.35 427.453 209.783 426.536 208.65C425.636 207.517 425.186 206.25 425.186 204.85C425.186 202.967 425.794 201.358 427.011 200.025C428.244 198.675 429.736 198 431.486 198C432.319 198 433.053 198.242 433.686 198.725C434.819 199.608 435.386 200.75 435.386 202.15C435.386 202.35 435.344 202.592 435.261 202.875C435.194 203.158 435.136 203.3 435.086 203.3L427.036 203.55C427.036 204.85 427.444 206.05 428.261 207.15C429.078 208.25 430.069 208.8 431.236 208.8C432.069 208.8 432.836 208.633 433.536 208.3C434.253 207.95 434.786 207.5 435.136 206.95ZM427.286 202.55L433.136 202.3C433.169 202.3 433.186 202.15 433.186 201.85C433.186 200.983 432.928 200.367 432.411 200C431.911 199.633 431.211 199.45 430.311 199.45C429.428 199.45 428.703 199.725 428.136 200.275C427.569 200.825 427.286 201.583 427.286 202.55ZM351.835 240.75C351.819 240.75 351.777 240.75 351.71 240.75C351.644 240.75 351.385 240.917 350.935 241.25L345.185 226.2L343.985 239.3C343.952 239.567 344.077 239.792 344.36 239.975C344.644 240.158 345.035 240.25 345.535 240.25H346.585V241H340.585V240.25H341.385C342.352 240.25 342.869 239.883 342.935 239.15L344.185 225.35C344.219 225.033 344.102 224.775 343.835 224.575C343.585 224.358 343.185 224.25 342.635 224.25H341.835V223.5H346.535L351.885 237.6L357.285 223.5H361.785V224.2H360.785C359.985 224.2 359.585 224.508 359.585 225.125C359.585 225.175 359.585 225.233 359.585 225.3L360.735 239.15C360.769 239.533 360.86 239.817 361.01 240C361.177 240.167 361.469 240.25 361.885 240.25H362.885V241H356.485V240.25H357.335C357.802 240.25 358.119 240.175 358.285 240.025C358.452 239.875 358.535 239.717 358.535 239.55C358.535 239.367 358.535 239.233 358.535 239.15L357.435 226.05L351.835 240.75ZM375.229 241H371.629V239C370.795 239.9 370.104 240.517 369.554 240.85C369.004 241.183 368.254 241.35 367.304 241.35C366.37 241.35 365.637 241.133 365.104 240.7C364.587 240.25 364.329 239.625 364.329 238.825C364.329 238.025 364.67 237.25 365.354 236.5C366.054 235.733 366.862 235.158 367.779 234.775C368.712 234.375 369.529 234.075 370.229 233.875C370.929 233.658 371.395 233.55 371.629 233.55V233C371.629 231.433 370.979 230.65 369.679 230.65C368.779 230.65 367.937 230.842 367.154 231.225C366.387 231.608 365.812 232.1 365.429 232.7L364.929 232.25C366.045 230.083 367.979 229 370.729 229C371.429 229 372.004 229.192 372.454 229.575C372.92 229.942 373.229 230.375 373.379 230.875C373.545 231.375 373.629 231.933 373.629 232.55V239.3C373.629 239.517 373.645 239.683 373.679 239.8C373.712 239.917 373.812 240.033 373.979 240.15C374.162 240.25 374.429 240.3 374.779 240.3H375.229V241ZM371.629 237.6V234.55C370.329 234.8 369.12 235.3 368.004 236.05C366.887 236.8 366.329 237.617 366.329 238.5C366.329 238.85 366.495 239.158 366.829 239.425C367.179 239.675 367.604 239.8 368.104 239.8C368.62 239.8 369.229 239.575 369.929 239.125C370.629 238.658 371.195 238.15 371.629 237.6ZM389.823 241H385.523V240.3H385.623C385.806 240.3 385.956 240.208 386.073 240.025C386.206 239.842 386.273 239.617 386.273 239.35V233C386.273 232.25 386.089 231.683 385.723 231.3C385.373 230.9 384.873 230.7 384.223 230.7C383.289 230.7 382.464 231.2 381.748 232.2C381.031 233.2 380.673 233.95 380.673 234.45V239.2C380.673 239.467 380.681 239.658 380.698 239.775C380.731 239.892 380.831 240.008 380.998 240.125C381.164 240.242 381.423 240.3 381.773 240.3H382.223V241H377.173V240.3H377.573C378.023 240.3 378.306 240.225 378.423 240.075C378.556 239.925 378.623 239.683 378.623 239.35V231.85C378.623 231.533 378.514 231.308 378.298 231.175C378.098 231.025 377.723 230.95 377.173 230.95V230.25C377.506 230.25 378.006 230.133 378.673 229.9C379.356 229.65 379.873 229.417 380.223 229.2L380.673 229.1V232.3C381.056 231.25 381.648 230.442 382.448 229.875C383.248 229.292 384.223 229 385.373 229C385.973 229 386.481 229.133 386.898 229.4C387.314 229.667 387.614 230.008 387.798 230.425C388.114 231.142 388.273 231.85 388.273 232.55V239.3C388.273 239.533 388.289 239.708 388.323 239.825C388.406 240.142 388.756 240.3 389.373 240.3H389.823V241ZM402.499 241H398.899V239C398.066 239.9 397.374 240.517 396.824 240.85C396.274 241.183 395.524 241.35 394.574 241.35C393.641 241.35 392.907 241.133 392.374 240.7C391.857 240.25 391.599 239.625 391.599 238.825C391.599 238.025 391.941 237.25 392.624 236.5C393.324 235.733 394.132 235.158 395.049 234.775C395.982 234.375 396.799 234.075 397.499 233.875C398.199 233.658 398.666 233.55 398.899 233.55V233C398.899 231.433 398.249 230.65 396.949 230.65C396.049 230.65 395.207 230.842 394.424 231.225C393.657 231.608 393.082 232.1 392.699 232.7L392.199 232.25C393.316 230.083 395.249 229 397.999 229C398.699 229 399.274 229.192 399.724 229.575C400.191 229.942 400.499 230.375 400.649 230.875C400.816 231.375 400.899 231.933 400.899 232.55V239.3C400.899 239.517 400.916 239.683 400.949 239.8C400.982 239.917 401.082 240.033 401.249 240.15C401.432 240.25 401.699 240.3 402.049 240.3H402.499V241ZM398.899 237.6V234.55C397.599 234.8 396.391 235.3 395.274 236.05C394.157 236.8 393.599 237.617 393.599 238.5C393.599 238.85 393.766 239.158 394.099 239.425C394.449 239.675 394.874 239.8 395.374 239.8C395.891 239.8 396.499 239.575 397.199 239.125C397.899 238.658 398.466 238.15 398.899 237.6ZM407.87 239.7L410.37 239.6C412.27 239.6 413.587 239.808 414.32 240.225C415.053 240.625 415.42 241.275 415.42 242.175C415.42 243.075 415.162 243.858 414.645 244.525C414.128 245.192 413.453 245.717 412.62 246.1C410.97 246.833 409.203 247.2 407.32 247.2C406.22 247.2 405.328 246.933 404.645 246.4C403.962 245.883 403.62 245.233 403.62 244.45C403.62 242.617 404.403 241.433 405.97 240.9C405.587 240.9 405.27 240.817 405.02 240.65C404.787 240.483 404.67 240.3 404.67 240.1C404.67 239.883 404.703 239.675 404.77 239.475C404.837 239.275 404.945 239.075 405.095 238.875C405.245 238.658 405.37 238.492 405.47 238.375C405.587 238.242 405.77 238.05 406.02 237.8L406.52 237.3C405.62 236.5 405.17 235.417 405.17 234.05C405.17 232.667 405.687 231.475 406.72 230.475C407.753 229.458 408.887 228.95 410.12 228.95C410.887 228.95 411.57 229.167 412.17 229.6C412.87 228.8 414.037 228.4 415.67 228.4L415.42 230.55C415.32 230.4 415.145 230.258 414.895 230.125C414.645 229.975 414.453 229.9 414.32 229.9C413.87 229.9 413.403 230.05 412.92 230.35C413.553 231.083 413.87 231.967 413.87 233C413.87 234.3 413.37 235.458 412.37 236.475C411.37 237.492 410.237 238 408.97 238C408.32 238 407.787 237.883 407.37 237.65C406.67 238.483 406.32 239 406.32 239.2C406.32 239.533 406.837 239.7 407.87 239.7ZM409.12 240.95H407.37C406.853 241.267 406.512 241.508 406.345 241.675C406.178 241.842 406.037 242 405.92 242.15C405.803 242.3 405.703 242.45 405.62 242.6C405.453 242.95 405.37 243.342 405.37 243.775C405.37 244.208 405.57 244.583 405.97 244.9C406.653 245.4 407.603 245.65 408.82 245.65C410.053 245.65 411.195 245.442 412.245 245.025C413.295 244.608 413.82 244.033 413.82 243.3C413.82 242.567 413.395 241.992 412.545 241.575C411.695 241.158 410.553 240.95 409.12 240.95ZM406.77 233.175C406.77 234.058 407.078 234.842 407.695 235.525C408.328 236.208 409.037 236.55 409.82 236.55C410.603 236.55 411.203 236.308 411.62 235.825C412.053 235.325 412.27 234.667 412.27 233.85C412.27 233.017 411.962 232.233 411.345 231.5C410.745 230.767 410.037 230.4 409.22 230.4C408.403 230.4 407.787 230.642 407.37 231.125C406.97 231.592 406.77 232.275 406.77 233.175ZM426.518 237.95L426.968 238.4C425.901 240.367 423.984 241.35 421.218 241.35C419.934 241.35 418.834 240.783 417.918 239.65C417.018 238.517 416.568 237.25 416.568 235.85C416.568 233.967 417.176 232.358 418.393 231.025C419.626 229.675 421.118 229 422.868 229C423.701 229 424.434 229.242 425.068 229.725C426.201 230.608 426.768 231.75 426.768 233.15C426.768 233.35 426.726 233.592 426.643 233.875C426.576 234.158 426.518 234.3 426.468 234.3L418.418 234.55C418.418 235.85 418.826 237.05 419.643 238.15C420.459 239.25 421.451 239.8 422.618 239.8C423.451 239.8 424.218 239.633 424.918 239.3C425.634 238.95 426.168 238.5 426.518 237.95ZM418.668 233.55L424.518 233.3C424.551 233.3 424.568 233.15 424.568 232.85C424.568 231.983 424.309 231.367 423.793 231C423.293 230.633 422.593 230.45 421.693 230.45C420.809 230.45 420.084 230.725 419.518 231.275C418.951 231.825 418.668 232.583 418.668 233.55ZM434.306 241H428.906V240.3H429.306C429.756 240.3 430.039 240.225 430.156 240.075C430.289 239.925 430.356 239.683 430.356 239.35V231.85C430.356 231.533 430.248 231.308 430.031 231.175C429.831 231.025 429.456 230.95 428.906 230.95V230.25C429.239 230.25 429.739 230.133 430.406 229.9C431.089 229.65 431.606 229.417 431.956 229.2L432.406 229.1V232.2C433.006 230.883 433.689 230.017 434.456 229.6C435.223 229.167 436.356 228.95 437.856 228.95L437.706 231.85H436.956C436.956 231.617 436.864 231.392 436.681 231.175C436.514 230.958 436.239 230.85 435.856 230.85C435.023 230.85 434.239 231.3 433.506 232.2C432.773 233.1 432.406 233.967 432.406 234.8V239.2C432.406 239.467 432.414 239.658 432.431 239.775C432.464 239.892 432.564 240.008 432.731 240.125C432.898 240.242 433.156 240.3 433.506 240.3H434.306V241ZM279.889 303H266.489V302.3H267.339C267.823 302.3 268.139 302.208 268.289 302.025C268.456 301.842 268.539 301.55 268.539 301.15V287.35C268.539 287.017 268.431 286.742 268.214 286.525C268.014 286.308 267.723 286.2 267.339 286.2H266.489V285.5H279.689L279.889 288.95L279.189 289.1C279.189 288.5 278.948 287.925 278.464 287.375C277.981 286.825 277.306 286.55 276.439 286.55H271.889C271.389 286.55 271.064 286.65 270.914 286.85C270.764 287.033 270.689 287.3 270.689 287.65V293.35H275.689C275.939 293.35 276.131 293.342 276.264 293.325C276.398 293.292 276.514 293.2 276.614 293.05C276.731 292.9 276.789 292.683 276.789 292.4V291.25H277.539V296.45H276.789V295.4C276.789 294.983 276.698 294.717 276.514 294.6C276.331 294.467 276.056 294.4 275.689 294.4H270.689V300.85C270.689 301.2 270.764 301.475 270.914 301.675C271.064 301.858 271.389 301.95 271.889 301.95H276.639C277.523 301.95 278.298 301.667 278.964 301.1C279.648 300.533 280.006 299.983 280.039 299.45L280.739 299.55L279.889 303ZM302.38 303H298.03V302.3H298.13C298.314 302.3 298.464 302.208 298.58 302.025C298.714 301.842 298.78 301.617 298.78 301.35V295C298.78 294.333 298.614 293.783 298.28 293.35C297.964 292.917 297.547 292.7 297.03 292.7C296.53 292.7 296.064 292.817 295.63 293.05C295.214 293.283 294.872 293.567 294.605 293.9C294.355 294.233 294.13 294.583 293.93 294.95C293.597 295.6 293.43 296.083 293.43 296.4V301.3C293.43 301.967 293.797 302.3 294.53 302.3H294.98V303H290.63V302.3H290.78C290.93 302.3 291.064 302.208 291.18 302.025C291.314 301.842 291.38 301.617 291.38 301.35V295C291.38 294.333 291.222 293.783 290.905 293.35C290.589 292.917 290.155 292.7 289.605 292.7C289.072 292.7 288.564 292.875 288.08 293.225C287.597 293.575 287.214 293.983 286.93 294.45C286.364 295.4 286.08 296.067 286.08 296.45V301.2C286.08 301.467 286.089 301.658 286.105 301.775C286.139 301.892 286.239 302.008 286.405 302.125C286.572 302.242 286.83 302.3 287.18 302.3H287.63V303H282.58V302.3H282.98C283.43 302.3 283.714 302.225 283.83 302.075C283.964 301.925 284.03 301.683 284.03 301.35V293.85C284.03 293.533 283.922 293.308 283.705 293.175C283.505 293.025 283.13 292.95 282.58 292.95V292.25C282.914 292.25 283.414 292.133 284.08 291.9C284.764 291.65 285.28 291.417 285.63 291.2L286.08 291.1V294.3C286.564 293.167 287.139 292.333 287.805 291.8C288.489 291.267 289.414 291 290.58 291C291.114 291 291.58 291.117 291.98 291.35C292.38 291.567 292.68 291.858 292.88 292.225C293.214 292.875 293.397 293.567 293.43 294.3C293.814 293.183 294.355 292.358 295.055 291.825C295.755 291.275 296.697 291 297.88 291C298.48 291 298.989 291.133 299.405 291.4C299.822 291.667 300.122 292.008 300.305 292.425C300.622 293.142 300.78 293.85 300.78 294.55V301.3C300.78 301.533 300.797 301.708 300.83 301.825C300.914 302.142 301.264 302.3 301.88 302.3H302.38V303ZM315.133 303H311.533V301C310.7 301.9 310.008 302.517 309.458 302.85C308.908 303.183 308.158 303.35 307.208 303.35C306.275 303.35 305.542 303.133 305.008 302.7C304.492 302.25 304.233 301.625 304.233 300.825C304.233 300.025 304.575 299.25 305.258 298.5C305.958 297.733 306.767 297.158 307.683 296.775C308.617 296.375 309.433 296.075 310.133 295.875C310.833 295.658 311.3 295.55 311.533 295.55V295C311.533 293.433 310.883 292.65 309.583 292.65C308.683 292.65 307.842 292.842 307.058 293.225C306.292 293.608 305.717 294.1 305.333 294.7L304.833 294.25C305.95 292.083 307.883 291 310.633 291C311.333 291 311.908 291.192 312.358 291.575C312.825 291.942 313.133 292.375 313.283 292.875C313.45 293.375 313.533 293.933 313.533 294.55V301.3C313.533 301.517 313.55 301.683 313.583 301.8C313.617 301.917 313.717 302.033 313.883 302.15C314.067 302.25 314.333 302.3 314.683 302.3H315.133V303ZM311.533 299.6V296.55C310.233 296.8 309.025 297.3 307.908 298.05C306.792 298.8 306.233 299.617 306.233 300.5C306.233 300.85 306.4 301.158 306.733 301.425C307.083 301.675 307.508 301.8 308.008 301.8C308.525 301.8 309.133 301.575 309.833 301.125C310.533 300.658 311.1 300.15 311.533 299.6ZM319.378 285.6C319.761 285.6 320.053 285.725 320.253 285.975C320.469 286.225 320.578 286.55 320.578 286.95C320.578 287.333 320.419 287.658 320.103 287.925C319.786 288.175 319.436 288.3 319.053 288.3C318.686 288.3 318.394 288.175 318.178 287.925C317.978 287.675 317.878 287.367 317.878 287C317.878 286.617 318.036 286.292 318.353 286.025C318.669 285.742 319.011 285.6 319.378 285.6ZM322.128 303H317.078V302.3H317.478C317.928 302.3 318.211 302.225 318.328 302.075C318.461 301.925 318.528 301.683 318.528 301.35V293.85C318.528 293.533 318.419 293.308 318.203 293.175C318.003 293.025 317.628 292.95 317.078 292.95V292.25C317.411 292.25 317.911 292.133 318.578 291.9C319.261 291.65 319.778 291.417 320.128 291.2L320.578 291.1V301.2C320.578 301.467 320.586 301.658 320.603 301.775C320.636 301.892 320.736 302.008 320.903 302.125C321.069 302.242 321.328 302.3 321.678 302.3H322.128V303ZM328.983 303H323.983V302.3H324.333C324.7 302.3 324.967 302.225 325.133 302.075C325.3 301.908 325.383 301.633 325.383 301.25V286.5C325.383 286.183 325.275 285.958 325.058 285.825C324.842 285.675 324.467 285.6 323.933 285.6V284.9C324.267 284.9 324.775 284.808 325.458 284.625C326.158 284.442 326.667 284.25 326.983 284.05L327.433 283.95V301.2C327.433 301.467 327.442 301.658 327.458 301.775C327.492 301.892 327.592 302.008 327.758 302.125C327.925 302.242 328.183 302.3 328.533 302.3H328.983V303ZM333.766 292.5C334.133 292.5 334.425 292.633 334.641 292.9C334.875 293.167 334.991 293.492 334.991 293.875C334.991 294.258 334.825 294.583 334.491 294.85C334.175 295.117 333.825 295.25 333.441 295.25C333.075 295.25 332.791 295.117 332.591 294.85C332.391 294.583 332.291 294.267 332.291 293.9C332.291 293.533 332.441 293.208 332.741 292.925C333.058 292.642 333.4 292.5 333.766 292.5ZM333.766 300.65C334.133 300.65 334.425 300.775 334.641 301.025C334.875 301.275 334.991 301.6 334.991 302C334.991 302.383 334.833 302.708 334.516 302.975C334.2 303.225 333.85 303.35 333.466 303.35C333.083 303.35 332.791 303.225 332.591 302.975C332.391 302.708 332.291 302.392 332.291 302.025C332.291 301.658 332.441 301.342 332.741 301.075C333.058 300.792 333.4 300.65 333.766 300.65ZM346.028 285.6C346.411 285.6 346.703 285.725 346.903 285.975C347.119 286.225 347.228 286.55 347.228 286.95C347.228 287.333 347.069 287.658 346.753 287.925C346.436 288.175 346.086 288.3 345.703 288.3C345.336 288.3 345.044 288.175 344.828 287.925C344.628 287.675 344.528 287.367 344.528 287C344.528 286.617 344.686 286.292 345.003 286.025C345.319 285.742 345.661 285.6 346.028 285.6ZM343.328 309L342.928 308.35C343.661 307.9 344.219 307.383 344.603 306.8C344.986 306.217 345.178 305.45 345.178 304.5V293.85C345.178 293.533 345.069 293.308 344.853 293.175C344.653 293.025 344.278 292.95 343.728 292.95V292.25C344.061 292.25 344.561 292.133 345.228 291.9C345.911 291.65 346.428 291.417 346.778 291.2L347.228 291.1V303.55C347.228 304.85 346.861 305.983 346.128 306.95C345.411 307.933 344.478 308.617 343.328 309ZM355.202 303.35C353.735 303.35 352.51 302.8 351.527 301.7C350.543 300.6 350.052 299.317 350.052 297.85C350.052 295.983 350.752 294.375 352.152 293.025C353.568 291.675 355.06 291 356.627 291C358.193 291 359.452 291.558 360.402 292.675C361.368 293.775 361.852 295.05 361.852 296.5C361.852 298.317 361.177 299.917 359.827 301.3C358.493 302.667 356.952 303.35 355.202 303.35ZM351.802 296.5C351.802 298.05 352.268 299.342 353.202 300.375C354.152 301.392 355.21 301.9 356.377 301.9C357.56 301.9 358.485 301.458 359.152 300.575C359.818 299.692 360.152 298.783 360.152 297.85C360.152 296.433 359.71 295.2 358.827 294.15C357.96 293.083 356.902 292.55 355.652 292.55C354.402 292.55 353.443 292.975 352.777 293.825C352.127 294.658 351.802 295.55 351.802 296.5ZM376.21 303H371.86V302.3H372.01C372.176 302.3 372.318 302.217 372.435 302.05C372.551 301.867 372.61 301.633 372.61 301.35V295C372.61 293.467 371.943 292.7 370.61 292.7C369.66 292.7 368.818 293.2 368.085 294.2C367.368 295.2 367.01 295.95 367.01 296.45V301.2C367.01 301.45 367.026 301.642 367.06 301.775C367.143 302.125 367.493 302.3 368.11 302.3H368.61V303H363.56V302.3H363.91C364.36 302.3 364.651 302.225 364.785 302.075C364.935 301.908 365.01 301.667 365.01 301.35V286.5C365.01 286.183 364.901 285.958 364.685 285.825C364.468 285.675 364.093 285.6 363.56 285.6V284.9C363.91 284.9 364.426 284.808 365.11 284.625C365.793 284.442 366.276 284.25 366.56 284.05L367.01 283.95V294.3C367.876 292.1 369.443 291 371.71 291C372.31 291 372.818 291.133 373.235 291.4C373.668 291.667 373.976 292.008 374.16 292.425C374.493 293.125 374.66 293.833 374.66 294.55V301.3C374.66 301.533 374.676 301.708 374.71 301.825C374.776 302.142 375.11 302.3 375.71 302.3H376.21V303ZM390.763 303H386.463V302.3H386.563C386.746 302.3 386.896 302.208 387.013 302.025C387.146 301.842 387.213 301.617 387.213 301.35V295C387.213 294.25 387.029 293.683 386.663 293.3C386.313 292.9 385.813 292.7 385.163 292.7C384.229 292.7 383.404 293.2 382.688 294.2C381.971 295.2 381.613 295.95 381.613 296.45V301.2C381.613 301.467 381.621 301.658 381.638 301.775C381.671 301.892 381.771 302.008 381.938 302.125C382.104 302.242 382.363 302.3 382.713 302.3H383.163V303H378.113V302.3H378.513C378.963 302.3 379.246 302.225 379.363 302.075C379.496 301.925 379.563 301.683 379.563 301.35V293.85C379.563 293.533 379.454 293.308 379.238 293.175C379.038 293.025 378.663 292.95 378.113 292.95V292.25C378.446 292.25 378.946 292.133 379.613 291.9C380.296 291.65 380.813 291.417 381.163 291.2L381.613 291.1V294.3C381.996 293.25 382.588 292.442 383.388 291.875C384.188 291.292 385.163 291 386.313 291C386.913 291 387.421 291.133 387.838 291.4C388.254 291.667 388.554 292.008 388.738 292.425C389.054 293.142 389.213 293.85 389.213 294.55V301.3C389.213 301.533 389.229 301.708 389.263 301.825C389.346 302.142 389.696 302.3 390.313 302.3H390.763V303ZM404.311 303H400.711V300.1C400.361 301.05 399.794 301.833 399.011 302.45C398.228 303.05 397.253 303.35 396.086 303.35C394.936 303.35 394.028 302.975 393.361 302.225C392.694 301.475 392.361 300.467 392.361 299.2C392.361 296.85 392.969 294.9 394.186 293.35C395.419 291.783 396.928 291 398.711 291C399.111 291 399.778 291.167 400.711 291.5V286.5C400.711 286.183 400.603 285.958 400.386 285.825C400.169 285.675 399.794 285.6 399.261 285.6V284.9C399.611 284.9 400.128 284.808 400.811 284.625C401.494 284.442 401.978 284.25 402.261 284.05L402.711 283.95V301.3C402.711 301.617 402.769 301.85 402.886 302C403.019 302.133 403.328 302.2 403.811 302.2H404.311V303ZM400.711 298.05V293.6C400.644 293.5 400.544 293.367 400.411 293.2C400.278 293.033 399.994 292.817 399.561 292.55C399.144 292.283 398.711 292.15 398.261 292.15C397.044 292.15 396.028 292.725 395.211 293.875C394.411 295.025 394.011 296.483 394.011 298.25C394.011 299.233 394.303 300.05 394.886 300.7C395.486 301.333 396.244 301.65 397.161 301.65C398.094 301.65 398.919 301.15 399.636 300.15C400.353 299.133 400.711 298.433 400.711 298.05ZM422.209 304.65L422.059 305.55C420.242 307.317 417.95 308.2 415.184 308.2C412.417 308.2 410.225 307.45 408.609 305.95C407.009 304.467 406.209 302.217 406.209 299.2C406.209 297.517 406.475 295.9 407.009 294.35C407.542 292.783 408.284 291.392 409.234 290.175C410.2 288.942 411.425 287.958 412.909 287.225C414.392 286.475 416.025 286.1 417.809 286.1C420.559 286.1 422.742 286.875 424.359 288.425C425.992 289.958 426.809 292.1 426.809 294.85C426.809 297.033 426.175 298.933 424.909 300.55C423.642 302.15 422.209 302.95 420.609 302.95C419.892 302.95 419.359 302.617 419.009 301.95C418.925 301.783 418.834 301.283 418.734 300.45C418.634 299.6 418.575 299.117 418.559 299C417.892 300.033 417.1 300.95 416.184 301.75C415.267 302.55 414.417 302.95 413.634 302.95C412.85 302.95 412.309 302.708 412.009 302.225C411.709 301.725 411.559 301.033 411.559 300.15C411.559 297.967 412.309 295.967 413.809 294.15C415.325 292.317 416.842 291.4 418.359 291.4C418.842 291.4 419.175 291.467 419.359 291.6L419.509 291L421.309 290.25C420.925 291.733 420.65 293.033 420.484 294.15C420.334 295.267 420.192 296.733 420.059 298.55C420.059 299.417 420.242 300.117 420.609 300.65C420.992 301.183 421.459 301.45 422.009 301.45C422.792 301.45 423.584 300.967 424.384 300C425.2 299.017 425.609 297.733 425.609 296.15C425.609 293.433 424.792 291.267 423.159 289.65C421.542 288.017 419.592 287.2 417.309 287.2C414.609 287.2 412.434 288.267 410.784 290.4C409.134 292.517 408.309 295.133 408.309 298.25C408.309 300.967 409.034 303.067 410.484 304.55C411.934 306.05 413.875 306.8 416.309 306.8C418.759 306.8 420.725 306.083 422.209 304.65ZM418.509 297.05L419.109 293.3C418.742 292.933 418.209 292.75 417.509 292.75C416.375 292.75 415.417 293.425 414.634 294.775C413.85 296.108 413.459 297.575 413.459 299.175C413.459 300.758 413.825 301.55 414.559 301.55C415.092 301.55 415.642 301.267 416.209 300.7C417.225 299.717 417.992 298.5 418.509 297.05ZM439.621 303.25L439.171 303.35L436.671 296.05L434.721 301.75C434.554 301.8 434.296 302.042 433.946 302.475C433.596 302.908 433.421 303.167 433.421 303.25L432.971 303.35L429.421 293.2C429.271 292.817 429.104 292.542 428.921 292.375C428.754 292.192 428.487 292.1 428.121 292.1H427.771V291.35H432.471L432.421 292.1C431.754 292.1 431.421 292.3 431.421 292.7C431.421 292.833 431.487 293.1 431.621 293.5L434.021 300.3L436.071 294.35L435.621 293.2C435.337 292.467 434.971 292.1 434.521 292.1V291.35H438.971V292.1H438.771C438.037 292.1 437.671 292.3 437.671 292.7C437.671 292.767 437.721 292.95 437.821 293.25L440.221 300.3L442.671 293.15C442.804 292.833 442.871 292.608 442.871 292.475C442.871 292.325 442.779 292.225 442.596 292.175C442.429 292.125 442.037 292.1 441.421 292.1H441.121V291.35H445.821V292.1H445.571C445.021 292.1 444.637 292.183 444.421 292.35C444.204 292.517 444.021 292.833 443.871 293.3L440.971 301.75C440.821 301.75 440.554 301.983 440.171 302.45C439.804 302.9 439.621 303.167 439.621 303.25ZM449.26 285.6C449.644 285.6 449.935 285.725 450.135 285.975C450.352 286.225 450.46 286.55 450.46 286.95C450.46 287.333 450.302 287.658 449.985 287.925C449.669 288.175 449.319 288.3 448.935 288.3C448.569 288.3 448.277 288.175 448.06 287.925C447.86 287.675 447.76 287.367 447.76 287C447.76 286.617 447.919 286.292 448.235 286.025C448.552 285.742 448.894 285.6 449.26 285.6ZM452.01 303H446.96V302.3H447.36C447.81 302.3 448.094 302.225 448.21 302.075C448.344 301.925 448.41 301.683 448.41 301.35V293.85C448.41 293.533 448.302 293.308 448.085 293.175C447.885 293.025 447.51 292.95 446.96 292.95V292.25C447.294 292.25 447.794 292.133 448.46 291.9C449.144 291.65 449.66 291.417 450.01 291.2L450.46 291.1V301.2C450.46 301.467 450.469 301.658 450.485 301.775C450.519 301.892 450.619 302.008 450.785 302.125C450.952 302.242 451.21 302.3 451.56 302.3H452.01V303ZM460.716 283.7C461.349 283.7 462.066 283.9 462.866 284.3L462.666 286.55L461.966 286.5C461.966 286.167 461.799 285.783 461.466 285.35C461.133 284.917 460.699 284.7 460.166 284.7C459.266 284.7 458.591 285.142 458.141 286.025C457.691 286.908 457.466 288.333 457.466 290.3C457.466 290.967 457.799 291.3 458.466 291.3H460.916V292.35H457.516V301.15C457.516 301.417 457.524 301.617 457.541 301.75C457.574 301.867 457.674 301.992 457.841 302.125C458.008 302.242 458.266 302.3 458.616 302.3H459.416V303H454.016V302.3H454.316C454.683 302.3 454.949 302.242 455.116 302.125C455.299 301.992 455.399 301.867 455.416 301.75C455.449 301.617 455.466 301.417 455.466 301.15V293.25C455.466 292.933 455.408 292.708 455.291 292.575C455.174 292.425 454.933 292.35 454.566 292.35H454.016V291.3H455.466V290.2C455.466 285.867 457.216 283.7 460.716 283.7ZM461.16 308.8L461.56 306.85H461.91C461.943 307.033 462.093 307.233 462.36 307.45C462.626 307.683 462.91 307.8 463.21 307.8C464.243 307.8 464.976 307.45 465.41 306.75C465.843 306.05 466.293 304.783 466.76 302.95L462.96 293.1C462.81 292.75 462.651 292.5 462.485 292.35C462.318 292.183 462.06 292.1 461.71 292.1H461.36V291.35H466.26V292.1H466.11C465.41 292.1 465.06 292.3 465.06 292.7C465.06 292.783 465.143 293.05 465.31 293.5L467.86 300.3L470.66 293.25C470.86 292.85 470.96 292.6 470.96 292.5C470.96 292.35 470.86 292.25 470.66 292.2C470.476 292.133 470.093 292.1 469.51 292.1H469.31V291.35H473.96V292.1H473.71C473.143 292.1 472.751 292.183 472.535 292.35C472.318 292.517 472.126 292.833 471.96 293.3L466.91 305.95C466.46 307.05 465.918 307.867 465.285 308.4C464.668 308.933 463.826 309.2 462.76 309.2C462.36 309.2 461.826 309.067 461.16 308.8ZM476.059 300.65C476.442 300.65 476.734 300.783 476.934 301.05C477.15 301.317 477.259 301.642 477.259 302.025C477.259 302.408 477.1 302.733 476.784 303C476.467 303.267 476.117 303.4 475.734 303.4C475.367 303.4 475.075 303.267 474.859 303C474.659 302.733 474.559 302.417 474.559 302.05C474.559 301.683 474.717 301.358 475.034 301.075C475.35 300.792 475.692 300.65 476.059 300.65ZM499.597 303H495.247V302.3H495.347C495.531 302.3 495.681 302.208 495.797 302.025C495.931 301.842 495.997 301.617 495.997 301.35V295C495.997 294.333 495.831 293.783 495.497 293.35C495.181 292.917 494.764 292.7 494.247 292.7C493.747 292.7 493.281 292.817 492.847 293.05C492.431 293.283 492.089 293.567 491.822 293.9C491.572 294.233 491.347 294.583 491.147 294.95C490.814 295.6 490.647 296.083 490.647 296.4V301.3C490.647 301.967 491.014 302.3 491.747 302.3H492.197V303H487.847V302.3H487.997C488.147 302.3 488.281 302.208 488.397 302.025C488.531 301.842 488.597 301.617 488.597 301.35V295C488.597 294.333 488.439 293.783 488.122 293.35C487.806 292.917 487.372 292.7 486.822 292.7C486.289 292.7 485.781 292.875 485.297 293.225C484.814 293.575 484.431 293.983 484.147 294.45C483.581 295.4 483.297 296.067 483.297 296.45V301.2C483.297 301.467 483.306 301.658 483.322 301.775C483.356 301.892 483.456 302.008 483.622 302.125C483.789 302.242 484.047 302.3 484.397 302.3H484.847V303H479.797V302.3H480.197C480.647 302.3 480.931 302.225 481.047 302.075C481.181 301.925 481.247 301.683 481.247 301.35V293.85C481.247 293.533 481.139 293.308 480.922 293.175C480.722 293.025 480.347 292.95 479.797 292.95V292.25C480.131 292.25 480.631 292.133 481.297 291.9C481.981 291.65 482.497 291.417 482.847 291.2L483.297 291.1V294.3C483.781 293.167 484.356 292.333 485.022 291.8C485.706 291.267 486.631 291 487.797 291C488.331 291 488.797 291.117 489.197 291.35C489.597 291.567 489.897 291.858 490.097 292.225C490.431 292.875 490.614 293.567 490.647 294.3C491.031 293.183 491.572 292.358 492.272 291.825C492.972 291.275 493.914 291 495.097 291C495.697 291 496.206 291.133 496.622 291.4C497.039 291.667 497.339 292.008 497.522 292.425C497.839 293.142 497.997 293.85 497.997 294.55V301.3C497.997 301.533 498.014 301.708 498.047 301.825C498.131 302.142 498.481 302.3 499.097 302.3H499.597V303ZM511.1 299.95L511.55 300.4C510.484 302.367 508.567 303.35 505.8 303.35C504.517 303.35 503.417 302.783 502.5 301.65C501.6 300.517 501.15 299.25 501.15 297.85C501.15 295.967 501.759 294.358 502.975 293.025C504.209 291.675 505.7 291 507.45 291C508.284 291 509.017 291.242 509.65 291.725C510.784 292.608 511.35 293.75 511.35 295.15C511.35 295.35 511.309 295.592 511.225 295.875C511.159 296.158 511.1 296.3 511.05 296.3L503 296.55C503 297.85 503.409 299.05 504.225 300.15C505.042 301.25 506.034 301.8 507.2 301.8C508.034 301.8 508.8 301.633 509.5 301.3C510.217 300.95 510.75 300.5 511.1 299.95ZM503.25 295.55L509.1 295.3C509.134 295.3 509.15 295.15 509.15 294.85C509.15 293.983 508.892 293.367 508.375 293C507.875 292.633 507.175 292.45 506.275 292.45C505.392 292.45 504.667 292.725 504.1 293.275C503.534 293.825 503.25 294.583 503.25 295.55ZM274.708 325.15L275.908 325.2C277.158 325.2 278.308 325 279.358 324.6C279.975 324.367 280.467 324 280.833 323.5C281.217 323 281.408 322.383 281.408 321.65C281.408 319.017 279.825 317.7 276.658 317.7L274.058 317.8V332.2C274.058 332.433 274.075 332.617 274.108 332.75C274.142 332.883 274.25 333.008 274.433 333.125C274.617 333.242 274.892 333.3 275.258 333.3H276.208V334H269.858V333.3H270.658C271.025 333.3 271.3 333.242 271.483 333.125C271.667 333.008 271.775 332.883 271.808 332.75C271.842 332.617 271.858 332.433 271.858 332.2V318.35C271.858 317.967 271.775 317.692 271.608 317.525C271.458 317.342 271.142 317.25 270.658 317.25H269.858V316.5H273.708L278.458 316.25C279.958 316.25 281.167 316.575 282.083 317.225C283 317.875 283.458 318.792 283.458 319.975C283.458 321.142 283.183 322.167 282.633 323.05C282.1 323.917 281.433 324.567 280.633 325C279.117 325.8 277.758 326.2 276.558 326.2C275.858 326.2 275.308 326.183 274.908 326.15L274.708 325.15ZM297.596 334H293.246V333.3H293.396C293.563 333.3 293.705 333.217 293.821 333.05C293.938 332.867 293.996 332.633 293.996 332.35V326C293.996 324.467 293.33 323.7 291.996 323.7C291.046 323.7 290.205 324.2 289.471 325.2C288.755 326.2 288.396 326.95 288.396 327.45V332.2C288.396 332.45 288.413 332.642 288.446 332.775C288.53 333.125 288.88 333.3 289.496 333.3H289.996V334H284.946V333.3H285.296C285.746 333.3 286.038 333.225 286.171 333.075C286.321 332.908 286.396 332.667 286.396 332.35V317.5C286.396 317.183 286.288 316.958 286.071 316.825C285.855 316.675 285.48 316.6 284.946 316.6V315.9C285.296 315.9 285.813 315.808 286.496 315.625C287.18 315.442 287.663 315.25 287.946 315.05L288.396 314.95V325.3C289.263 323.1 290.83 322 293.096 322C293.696 322 294.205 322.133 294.621 322.4C295.055 322.667 295.363 323.008 295.546 323.425C295.88 324.125 296.046 324.833 296.046 325.55V332.3C296.046 332.533 296.063 332.708 296.096 332.825C296.163 333.142 296.496 333.3 297.096 333.3H297.596V334ZM304.249 334.35C302.783 334.35 301.558 333.8 300.574 332.7C299.591 331.6 299.099 330.317 299.099 328.85C299.099 326.983 299.799 325.375 301.199 324.025C302.616 322.675 304.108 322 305.674 322C307.241 322 308.499 322.558 309.449 323.675C310.416 324.775 310.899 326.05 310.899 327.5C310.899 329.317 310.224 330.917 308.874 332.3C307.541 333.667 305.999 334.35 304.249 334.35ZM300.849 327.5C300.849 329.05 301.316 330.342 302.249 331.375C303.199 332.392 304.258 332.9 305.424 332.9C306.608 332.9 307.533 332.458 308.199 331.575C308.866 330.692 309.199 329.783 309.199 328.85C309.199 327.433 308.758 326.2 307.874 325.15C307.008 324.083 305.949 323.55 304.699 323.55C303.449 323.55 302.491 323.975 301.824 324.825C301.174 325.658 300.849 326.55 300.849 327.5ZM325.357 334H321.057V333.3H321.157C321.341 333.3 321.491 333.208 321.607 333.025C321.741 332.842 321.807 332.617 321.807 332.35V326C321.807 325.25 321.624 324.683 321.257 324.3C320.907 323.9 320.407 323.7 319.757 323.7C318.824 323.7 317.999 324.2 317.282 325.2C316.566 326.2 316.207 326.95 316.207 327.45V332.2C316.207 332.467 316.216 332.658 316.232 332.775C316.266 332.892 316.366 333.008 316.532 333.125C316.699 333.242 316.957 333.3 317.307 333.3H317.757V334H312.707V333.3H313.107C313.557 333.3 313.841 333.225 313.957 333.075C314.091 332.925 314.157 332.683 314.157 332.35V324.85C314.157 324.533 314.049 324.308 313.832 324.175C313.632 324.025 313.257 323.95 312.707 323.95V323.25C313.041 323.25 313.541 323.133 314.207 322.9C314.891 322.65 315.407 322.417 315.757 322.2L316.207 322.1V325.3C316.591 324.25 317.182 323.442 317.982 322.875C318.782 322.292 319.757 322 320.907 322C321.507 322 322.016 322.133 322.432 322.4C322.849 322.667 323.149 323.008 323.332 323.425C323.649 324.142 323.807 324.85 323.807 325.55V332.3C323.807 332.533 323.824 332.708 323.857 332.825C323.941 333.142 324.291 333.3 324.907 333.3H325.357V334ZM336.906 330.95L337.356 331.4C336.289 333.367 334.373 334.35 331.606 334.35C330.323 334.35 329.223 333.783 328.306 332.65C327.406 331.517 326.956 330.25 326.956 328.85C326.956 326.967 327.564 325.358 328.781 324.025C330.014 322.675 331.506 322 333.256 322C334.089 322 334.823 322.242 335.456 322.725C336.589 323.608 337.156 324.75 337.156 326.15C337.156 326.35 337.114 326.592 337.031 326.875C336.964 327.158 336.906 327.3 336.856 327.3L328.806 327.55C328.806 328.85 329.214 330.05 330.031 331.15C330.848 332.25 331.839 332.8 333.006 332.8C333.839 332.8 334.606 332.633 335.306 332.3C336.023 331.95 336.556 331.5 336.906 330.95ZM329.056 326.55L334.906 326.3C334.939 326.3 334.956 326.15 334.956 325.85C334.956 324.983 334.698 324.367 334.181 324C333.681 323.633 332.981 323.45 332.081 323.45C331.198 323.45 330.473 323.725 329.906 324.275C329.339 324.825 329.056 325.583 329.056 326.55ZM342.091 323.5C342.458 323.5 342.75 323.633 342.966 323.9C343.2 324.167 343.316 324.492 343.316 324.875C343.316 325.258 343.15 325.583 342.816 325.85C342.5 326.117 342.15 326.25 341.766 326.25C341.4 326.25 341.116 326.117 340.916 325.85C340.716 325.583 340.616 325.267 340.616 324.9C340.616 324.533 340.766 324.208 341.066 323.925C341.383 323.642 341.725 323.5 342.091 323.5ZM342.091 331.65C342.458 331.65 342.75 331.775 342.966 332.025C343.2 332.275 343.316 332.6 343.316 333C343.316 333.383 343.158 333.708 342.841 333.975C342.525 334.225 342.175 334.35 341.791 334.35C341.408 334.35 341.116 334.225 340.916 333.975C340.716 333.708 340.616 333.392 340.616 333.025C340.616 332.658 340.766 332.342 341.066 332.075C341.383 331.792 341.725 331.65 342.091 331.65ZM352.628 332.65L353.628 329.95H354.278C354.695 331.483 355.395 332.433 356.378 332.8C356.828 332.967 357.378 333.05 358.028 333.05C359.261 333.05 360.27 332.633 361.053 331.8C361.836 330.967 362.228 329.817 362.228 328.35C362.228 327.3 361.828 326.325 361.028 325.425C360.228 324.508 359.245 324.05 358.078 324.05C356.928 324.05 355.611 324.667 354.128 325.9H353.528L354.078 316.75H359.928C360.728 316.75 361.295 316.667 361.628 316.5C361.978 316.317 362.211 316.067 362.328 315.75L362.778 315.85L362.128 318.85H355.378L355.078 323.8H355.178C356.011 323.217 356.703 322.833 357.253 322.65C357.82 322.45 358.511 322.35 359.328 322.35C360.661 322.35 361.828 322.908 362.828 324.025C363.828 325.125 364.328 326.35 364.328 327.7C364.328 329.733 363.62 331.35 362.203 332.55C360.786 333.75 359.111 334.35 357.178 334.35C356.211 334.35 355.395 334.217 354.728 333.95C354.061 333.683 353.361 333.25 352.628 332.65ZM366.324 332.65L367.324 329.95H367.974C368.391 331.483 369.091 332.433 370.074 332.8C370.524 332.967 371.074 333.05 371.724 333.05C372.958 333.05 373.966 332.633 374.749 331.8C375.533 330.967 375.924 329.817 375.924 328.35C375.924 327.3 375.524 326.325 374.724 325.425C373.924 324.508 372.941 324.05 371.774 324.05C370.624 324.05 369.308 324.667 367.824 325.9H367.224L367.774 316.75H373.624C374.424 316.75 374.991 316.667 375.324 316.5C375.674 316.317 375.908 316.067 376.024 315.75L376.474 315.85L375.824 318.85H369.074L368.774 323.8H368.874C369.708 323.217 370.399 322.833 370.949 322.65C371.516 322.45 372.208 322.35 373.024 322.35C374.358 322.35 375.524 322.908 376.524 324.025C377.524 325.125 378.024 326.35 378.024 327.7C378.024 329.733 377.316 331.35 375.899 332.55C374.483 333.75 372.808 334.35 370.874 334.35C369.908 334.35 369.091 334.217 368.424 333.95C367.758 333.683 367.058 333.25 366.324 332.65ZM380.021 332.65L381.021 329.95H381.671C382.087 331.483 382.787 332.433 383.771 332.8C384.221 332.967 384.771 333.05 385.421 333.05C386.654 333.05 387.662 332.633 388.446 331.8C389.229 330.967 389.621 329.817 389.621 328.35C389.621 327.3 389.221 326.325 388.421 325.425C387.621 324.508 386.637 324.05 385.471 324.05C384.321 324.05 383.004 324.667 381.521 325.9H380.921L381.471 316.75H387.321C388.121 316.75 388.687 316.667 389.021 316.5C389.371 316.317 389.604 316.067 389.721 315.75L390.171 315.85L389.521 318.85H382.771L382.471 323.8H382.571C383.404 323.217 384.096 322.833 384.646 322.65C385.212 322.45 385.904 322.35 386.721 322.35C388.054 322.35 389.221 322.908 390.221 324.025C391.221 325.125 391.721 326.35 391.721 327.7C391.721 329.733 391.012 331.35 389.596 332.55C388.179 333.75 386.504 334.35 384.571 334.35C383.604 334.35 382.787 334.217 382.121 333.95C381.454 333.683 380.754 333.25 380.021 332.65ZM404.042 328.35H394.092V327.15H404.042V328.35ZM413.825 334H406.925V333.3H407.875C408.941 333.3 409.475 332.917 409.475 332.15V320.35C409.475 319.867 409.283 319.517 408.9 319.3C408.516 319.067 407.775 318.95 406.675 318.95V318.25C408.508 318.25 409.975 317.7 411.075 316.6L411.675 316.5V332.15C411.675 332.617 411.775 332.925 411.975 333.075C412.175 333.225 412.591 333.3 413.225 333.3H413.825V334ZM427.124 334H415.524V333.4C417.874 331.133 419.974 328.783 421.824 326.35C423.691 323.9 424.624 321.933 424.624 320.45C424.624 318.917 423.741 318.15 421.974 318.15C421.224 318.15 420.433 318.425 419.599 318.975C418.783 319.508 418.124 320.15 417.624 320.9L417.074 320.45C417.691 319.25 418.549 318.292 419.649 317.575C420.766 316.858 422.108 316.5 423.674 316.5C424.674 316.5 425.483 316.783 426.099 317.35C426.716 317.917 427.024 318.8 427.024 320C427.024 321.517 426.424 323.05 425.224 324.6C424.591 325.417 423.974 326.15 423.374 326.8C422.791 327.45 421.974 328.325 420.924 329.425C419.891 330.508 419.041 331.433 418.374 332.2H424.324C425.208 332.2 425.933 331.925 426.499 331.375C427.083 330.825 427.374 330.267 427.374 329.7L428.074 329.85L427.124 334ZM439.244 319.3C439.244 320.933 437.911 322.467 435.244 323.9L435.294 324C435.811 323.767 436.294 323.65 436.744 323.65C437.961 323.65 438.953 324.033 439.719 324.8C440.503 325.55 440.894 326.617 440.894 328C440.894 329.9 440.186 331.433 438.769 332.6C437.353 333.767 435.694 334.35 433.794 334.35C432.828 334.35 432.019 334.233 431.369 334C430.736 333.783 430.094 333.383 429.444 332.8L429.844 330.15H430.494C430.728 331.117 431.094 331.858 431.594 332.375C432.111 332.892 433.019 333.15 434.319 333.15C435.636 333.15 436.669 332.783 437.419 332.05C438.169 331.3 438.544 330.3 438.544 329.05C438.544 327.8 438.228 326.817 437.594 326.1C436.961 325.367 436.044 325 434.844 325C434.094 325 433.411 325.083 432.794 325.25V324.55L433.894 323.95C434.944 323.433 435.661 322.883 436.044 322.3C436.444 321.7 436.644 321 436.644 320.2C436.644 318.867 435.811 318.2 434.144 318.2C433.161 318.2 432.236 318.567 431.369 319.3C430.936 319.667 430.603 319.967 430.369 320.2L429.894 319.7C431.211 317.567 433.178 316.5 435.794 316.5C436.878 316.5 437.719 316.767 438.319 317.3C438.936 317.817 439.244 318.483 439.244 319.3ZM453.212 328.35H443.262V327.15H453.212V328.35ZM463.195 327.1V318.7C460.478 322.667 458.645 325.442 457.695 327.025V327.125L463.195 327.1ZM467.495 334H461.145V333.3H461.995C462.495 333.3 462.82 333.2 462.97 333C463.12 332.8 463.195 332.517 463.195 332.15V328.7H455.22V328.225C456.236 326.575 457.678 324.533 459.545 322.1C461.411 319.65 462.628 318.033 463.195 317.25C463.945 317.25 464.528 316.883 464.945 316.15L465.295 316.05V327.1C467.178 327.1 468.203 326.633 468.37 325.7L468.845 325.8L468.145 328.7H465.295V332.15C465.295 332.517 465.378 332.8 465.545 333C465.711 333.2 466.045 333.3 466.545 333.3H467.495V334ZM470.841 332.65L471.841 329.95H472.491C472.907 331.483 473.607 332.433 474.591 332.8C475.041 332.967 475.591 333.05 476.241 333.05C477.474 333.05 478.482 332.633 479.266 331.8C480.049 330.967 480.441 329.817 480.441 328.35C480.441 327.3 480.041 326.325 479.241 325.425C478.441 324.508 477.457 324.05 476.291 324.05C475.141 324.05 473.824 324.667 472.341 325.9H471.741L472.291 316.75H478.141C478.941 316.75 479.507 316.667 479.841 316.5C480.191 316.317 480.424 316.067 480.541 315.75L480.991 315.85L480.341 318.85H473.591L473.291 323.8H473.391C474.224 323.217 474.916 322.833 475.466 322.65C476.032 322.45 476.724 322.35 477.541 322.35C478.874 322.35 480.041 322.908 481.041 324.025C482.041 325.125 482.541 326.35 482.541 327.7C482.541 329.733 481.832 331.35 480.416 332.55C478.999 333.75 477.324 334.35 475.391 334.35C474.424 334.35 473.607 334.217 472.941 333.95C472.274 333.683 471.574 333.25 470.841 332.65ZM494.687 316L494.937 316.75C492.97 317.717 491.287 318.817 489.887 320.05C488.487 321.267 487.42 322.817 486.687 324.7C487.637 323.8 488.912 323.35 490.512 323.35C492.129 323.35 493.42 323.883 494.387 324.95C495.354 326.017 495.837 327.217 495.837 328.55C495.837 330.167 495.22 331.542 493.987 332.675C492.77 333.792 491.27 334.35 489.487 334.35C487.987 334.35 486.729 333.792 485.712 332.675C484.695 331.542 484.187 330.142 484.187 328.475C484.187 326.792 484.462 325.258 485.012 323.875C485.579 322.492 486.354 321.3 487.337 320.3C489.32 318.3 491.77 316.867 494.687 316ZM490.887 333.1C491.82 333.1 492.57 332.758 493.137 332.075C493.704 331.392 493.987 330.567 493.987 329.6C493.987 328.65 493.645 327.608 492.962 326.475C492.629 325.925 492.162 325.467 491.562 325.1C490.979 324.733 490.27 324.55 489.437 324.55C488.62 324.55 487.92 324.892 487.337 325.575C486.77 326.258 486.487 327.083 486.487 328.05C486.487 329.483 486.92 330.683 487.787 331.65C488.654 332.617 489.687 333.1 490.887 333.1ZM501.593 334H498.693C499.643 331.883 500.368 330.308 500.868 329.275C501.385 328.242 502.227 326.767 503.393 324.85C504.577 322.933 505.96 320.933 507.543 318.85H501.043C500.077 318.85 499.277 319.092 498.643 319.575C498.01 320.058 497.677 320.55 497.643 321.05L496.943 320.95L497.943 316.75H509.643L509.593 317.35C507.277 320.4 505.418 323.4 504.018 326.35C502.635 329.283 501.827 331.833 501.593 334Z" fill="#B3CC1F"/>
<g clip-path="url(#clip0_0_1)">
<rect width="553" height="312" transform="translate(0 375)" fill="#F7ECDF"/>
<path d="M405 601.459C461.305 553.157 548.161 557.366 599 610.862" stroke="#B3CC1F" stroke-opacity="0.3" stroke-width="8"/>
<path d="M432.735 631.18C471.763 597.431 532.197 600.132 567.718 637.213" stroke="#553F2E" stroke-opacity="0.2" stroke-width="8"/>
<path d="M458.864 658.456C482.037 638.418 517.919 640.021 539.01 662.038" stroke="#553F2E" stroke-opacity="0.2" stroke-width="8"/>
<path d="M516.333 683.262C507.937 674.498 493.183 674.266 483.379 682.745" stroke="#553F2E" stroke-opacity="0.2" stroke-width="8"/>
<path d="M56.65 503H52.3V502.3H52.45C52.6167 502.3 52.7583 502.217 52.875 502.05C52.9917 501.867 53.05 501.633 53.05 501.35V495C53.05 493.467 52.3833 492.7 51.05 492.7C50.1 492.7 49.2583 493.2 48.525 494.2C47.8083 495.2 47.45 495.95 47.45 496.45V501.2C47.45 501.45 47.4667 501.642 47.5 501.775C47.5833 502.125 47.9333 502.3 48.55 502.3H49.05V503H44V502.3H44.35C44.8 502.3 45.0917 502.225 45.225 502.075C45.375 501.908 45.45 501.667 45.45 501.35V486.5C45.45 486.183 45.3417 485.958 45.125 485.825C44.9083 485.675 44.5333 485.6 44 485.6V484.9C44.35 484.9 44.8667 484.808 45.55 484.625C46.2333 484.442 46.7167 484.25 47 484.05L47.45 483.95V494.3C48.3167 492.1 49.8833 491 52.15 491C52.75 491 53.2583 491.133 53.675 491.4C54.1083 491.667 54.4167 492.008 54.6 492.425C54.9333 493.125 55.1 493.833 55.1 494.55V501.3C55.1 501.533 55.1167 501.708 55.15 501.825C55.2167 502.142 55.55 502.3 56.15 502.3H56.65V503ZM65.6031 501.45L65.8031 502.05C64.5531 502.917 63.1865 503.35 61.7031 503.35C61.1698 503.35 60.7115 503.158 60.3281 502.775C59.9448 502.392 59.7531 501.883 59.7531 501.25V492.4H58.3031V491.35H58.8531C59.4031 491.35 59.9115 491.017 60.3781 490.35C60.8615 489.683 61.1031 489.067 61.1031 488.5H61.7531V491.35H65.1531V492.4H62.7031C62.0698 492.4 61.7531 492.7 61.7531 493.3V500.45C61.7531 501.55 62.1531 502.1 62.9531 502.1C63.8531 502.1 64.7365 501.883 65.6031 501.45ZM74.0504 501.45L74.2504 502.05C73.0004 502.917 71.6337 503.35 70.1504 503.35C69.6171 503.35 69.1587 503.158 68.7754 502.775C68.3921 502.392 68.2004 501.883 68.2004 501.25V492.4H66.7504V491.35H67.3004C67.8504 491.35 68.3587 491.017 68.8254 490.35C69.3087 489.683 69.5504 489.067 69.5504 488.5H70.2004V491.35H73.6004V492.4H71.1504C70.5171 492.4 70.2004 492.7 70.2004 493.3V500.45C70.2004 501.55 70.6004 502.1 71.4004 502.1C72.3004 502.1 73.1837 501.883 74.0504 501.45ZM80.3977 508.85H75.3477V508.1H75.6477C76.0143 508.1 76.281 508.042 76.4477 507.925C76.631 507.808 76.731 507.692 76.7477 507.575C76.781 507.458 76.7977 507.267 76.7977 507V494.05C76.7977 493.283 76.3143 492.9 75.3477 492.9V492.25C75.6643 492.25 76.1643 492.125 76.8477 491.875C77.531 491.608 78.031 491.367 78.3477 491.15L78.7977 491.1V494.25C79.1477 493.3 79.7143 492.525 80.4977 491.925C81.281 491.308 82.2477 491 83.3977 491C84.5477 491 85.456 491.375 86.1227 492.125C86.806 492.875 87.1477 493.883 87.1477 495.15C87.1477 497.5 86.531 499.458 85.2977 501.025C84.0643 502.575 82.5643 503.35 80.7977 503.35C80.181 503.35 79.5143 503.183 78.7977 502.85V507.1C78.7977 507.333 78.8143 507.508 78.8477 507.625C78.931 507.942 79.281 508.1 79.8977 508.1H80.3977V508.85ZM78.7977 496.3V500.75C78.8643 500.85 78.9643 500.983 79.0977 501.15C79.231 501.317 79.506 501.533 79.9227 501.8C80.356 502.067 80.7977 502.2 81.2477 502.2C82.4643 502.2 83.4727 501.625 84.2727 500.475C85.0893 499.325 85.4977 497.867 85.4977 496.1C85.4977 495.117 85.1893 494.308 84.5727 493.675C83.9727 493.025 83.2143 492.7 82.2977 492.7C81.3977 492.7 80.5893 493.208 79.8727 494.225C79.156 495.225 78.7977 495.917 78.7977 496.3ZM88.9975 502.3L89.2475 499.6L89.9475 499.65C89.9475 500.217 90.3141 500.758 91.0475 501.275C91.7808 501.792 92.5725 502.05 93.4225 502.05C95.1725 502.05 96.0475 501.517 96.0475 500.45C96.0475 499.917 95.8225 499.442 95.3725 499.025C94.9225 498.608 94.3808 498.267 93.7475 498C93.1141 497.717 92.4808 497.433 91.8475 497.15C91.2141 496.85 90.6725 496.467 90.2225 496C89.7725 495.517 89.5475 494.967 89.5475 494.35C89.5475 492.183 91.1475 491.1 94.3475 491.1C95.0641 491.1 95.8475 491.3 96.6975 491.7L96.5475 494.2H95.9475C95.9475 493.733 95.6725 493.283 95.1225 492.85C94.5891 492.417 94.0058 492.2 93.3725 492.2C92.7391 492.2 92.1975 492.325 91.7475 492.575C91.3141 492.825 91.0975 493.2 91.0975 493.7C91.0975 494.183 91.3225 494.583 91.7725 494.9C92.2225 495.217 92.7641 495.475 93.3975 495.675C94.0308 495.875 94.6641 496.1 95.2975 496.35C95.9308 496.6 96.4725 497.008 96.9225 497.575C97.3725 498.142 97.5975 498.85 97.5975 499.7C97.5975 500.55 97.3225 501.258 96.7725 501.825C95.7891 502.842 94.3641 503.35 92.4975 503.35C91.0475 503.35 89.8808 503 88.9975 502.3ZM102.415 492.5C102.781 492.5 103.073 492.633 103.29 492.9C103.523 493.167 103.64 493.492 103.64 493.875C103.64 494.258 103.473 494.583 103.14 494.85C102.823 495.117 102.473 495.25 102.09 495.25C101.723 495.25 101.44 495.117 101.24 494.85C101.04 494.583 100.94 494.267 100.94 493.9C100.94 493.533 101.09 493.208 101.39 492.925C101.706 492.642 102.048 492.5 102.415 492.5ZM102.415 500.65C102.781 500.65 103.073 500.775 103.29 501.025C103.523 501.275 103.64 501.6 103.64 502C103.64 502.383 103.481 502.708 103.165 502.975C102.848 503.225 102.498 503.35 102.115 503.35C101.731 503.35 101.44 503.225 101.24 502.975C101.04 502.708 100.94 502.392 100.94 502.025C100.94 501.658 101.09 501.342 101.39 501.075C101.706 500.792 102.048 500.65 102.415 500.65ZM107.945 508.85H106.695L112.845 484.35H113.995L107.945 508.85ZM117.442 508.85H116.192L122.342 484.35H123.492L117.442 508.85ZM136.589 503.25L136.139 503.35L133.639 496.05L131.689 501.75C131.523 501.8 131.264 502.042 130.914 502.475C130.564 502.908 130.389 503.167 130.389 503.25L129.939 503.35L126.389 493.2C126.239 492.817 126.073 492.542 125.889 492.375C125.723 492.192 125.456 492.1 125.089 492.1H124.739V491.35H129.439L129.389 492.1C128.723 492.1 128.389 492.3 128.389 492.7C128.389 492.833 128.456 493.1 128.589 493.5L130.989 500.3L133.039 494.35L132.589 493.2C132.306 492.467 131.939 492.1 131.489 492.1V491.35H135.939V492.1H135.739C135.006 492.1 134.639 492.3 134.639 492.7C134.639 492.767 134.689 492.95 134.789 493.25L137.189 500.3L139.639 493.15C139.773 492.833 139.839 492.608 139.839 492.475C139.839 492.325 139.748 492.225 139.564 492.175C139.398 492.125 139.006 492.1 138.389 492.1H138.089V491.35H142.789V492.1H142.539C141.989 492.1 141.606 492.183 141.389 492.35C141.173 492.517 140.989 492.833 140.839 493.3L137.939 501.75C137.789 501.75 137.523 501.983 137.139 502.45C136.773 502.9 136.589 503.167 136.589 503.25ZM154.729 503.25L154.279 503.35L151.779 496.05L149.829 501.75C149.662 501.8 149.404 502.042 149.054 502.475C148.704 502.908 148.529 503.167 148.529 503.25L148.079 503.35L144.529 493.2C144.379 492.817 144.212 492.542 144.029 492.375C143.862 492.192 143.596 492.1 143.229 492.1H142.879V491.35H147.579L147.529 492.1C146.862 492.1 146.529 492.3 146.529 492.7C146.529 492.833 146.596 493.1 146.729 493.5L149.129 500.3L151.179 494.35L150.729 493.2C150.446 492.467 150.079 492.1 149.629 492.1V491.35H154.079V492.1H153.879C153.146 492.1 152.779 492.3 152.779 492.7C152.779 492.767 152.829 492.95 152.929 493.25L155.329 500.3L157.779 493.15C157.912 492.833 157.979 492.608 157.979 492.475C157.979 492.325 157.887 492.225 157.704 492.175C157.537 492.125 157.146 492.1 156.529 492.1H156.229V491.35H160.929V492.1H160.679C160.129 492.1 159.746 492.183 159.529 492.35C159.312 492.517 159.129 492.833 158.979 493.3L156.079 501.75C155.929 501.75 155.662 501.983 155.279 502.45C154.912 502.9 154.729 503.167 154.729 503.25ZM172.869 503.25L172.419 503.35L169.919 496.05L167.969 501.75C167.802 501.8 167.544 502.042 167.194 502.475C166.844 502.908 166.669 503.167 166.669 503.25L166.219 503.35L162.669 493.2C162.519 492.817 162.352 492.542 162.169 492.375C162.002 492.192 161.735 492.1 161.369 492.1H161.019V491.35H165.719L165.669 492.1C165.002 492.1 164.669 492.3 164.669 492.7C164.669 492.833 164.735 493.1 164.869 493.5L167.269 500.3L169.319 494.35L168.869 493.2C168.585 492.467 168.219 492.1 167.769 492.1V491.35H172.219V492.1H172.019C171.285 492.1 170.919 492.3 170.919 492.7C170.919 492.767 170.969 492.95 171.069 493.25L173.469 500.3L175.919 493.15C176.052 492.833 176.119 492.608 176.119 492.475C176.119 492.325 176.027 492.225 175.844 492.175C175.677 492.125 175.285 492.1 174.669 492.1H174.369V491.35H179.069V492.1H178.819C178.269 492.1 177.885 492.183 177.669 492.35C177.452 492.517 177.269 492.833 177.119 493.3L174.219 501.75C174.069 501.75 173.802 501.983 173.419 502.45C173.052 502.9 172.869 503.167 172.869 503.25ZM181.157 500.65C181.541 500.65 181.832 500.783 182.032 501.05C182.249 501.317 182.357 501.642 182.357 502.025C182.357 502.408 182.199 502.733 181.882 503C181.566 503.267 181.216 503.4 180.832 503.4C180.466 503.4 180.174 503.267 179.957 503C179.757 502.733 179.657 502.417 179.657 502.05C179.657 501.683 179.816 501.358 180.132 501.075C180.449 500.792 180.791 500.65 181.157 500.65ZM195.452 503.25L195.002 503.35L192.502 496.05L190.552 501.75C190.385 501.8 190.127 502.042 189.777 502.475C189.427 502.908 189.252 503.167 189.252 503.25L188.802 503.35L185.252 493.2C185.102 492.817 184.935 492.542 184.752 492.375C184.585 492.192 184.318 492.1 183.952 492.1H183.602V491.35H188.302L188.252 492.1C187.585 492.1 187.252 492.3 187.252 492.7C187.252 492.833 187.318 493.1 187.452 493.5L189.852 500.3L191.902 494.35L191.452 493.2C191.168 492.467 190.802 492.1 190.352 492.1V491.35H194.802V492.1H194.602C193.868 492.1 193.502 492.3 193.502 492.7C193.502 492.767 193.552 492.95 193.652 493.25L196.052 500.3L198.502 493.15C198.635 492.833 198.702 492.608 198.702 492.475C198.702 492.325 198.61 492.225 198.427 492.175C198.26 492.125 197.868 492.1 197.252 492.1H196.952V491.35H201.652V492.1H201.402C200.852 492.1 200.468 492.183 200.252 492.35C200.035 492.517 199.852 492.833 199.702 493.3L196.802 501.75C196.652 501.75 196.385 501.983 196.002 502.45C195.635 502.9 195.452 503.167 195.452 503.25ZM205.091 485.6C205.475 485.6 205.766 485.725 205.966 485.975C206.183 486.225 206.291 486.55 206.291 486.95C206.291 487.333 206.133 487.658 205.816 487.925C205.5 488.175 205.15 488.3 204.766 488.3C204.4 488.3 204.108 488.175 203.891 487.925C203.691 487.675 203.591 487.367 203.591 487C203.591 486.617 203.75 486.292 204.066 486.025C204.383 485.742 204.725 485.6 205.091 485.6ZM207.841 503H202.791V502.3H203.191C203.641 502.3 203.925 502.225 204.041 502.075C204.175 501.925 204.241 501.683 204.241 501.35V493.85C204.241 493.533 204.133 493.308 203.916 493.175C203.716 493.025 203.341 492.95 202.791 492.95V492.25C203.125 492.25 203.625 492.133 204.291 491.9C204.975 491.65 205.491 491.417 205.841 491.2L206.291 491.1V501.2C206.291 501.467 206.3 501.658 206.316 501.775C206.35 501.892 206.45 502.008 206.616 502.125C206.783 502.242 207.041 502.3 207.391 502.3H207.841V503ZM216.547 483.7C217.18 483.7 217.897 483.9 218.697 484.3L218.497 486.55L217.797 486.5C217.797 486.167 217.63 485.783 217.297 485.35C216.964 484.917 216.53 484.7 215.997 484.7C215.097 484.7 214.422 485.142 213.972 486.025C213.522 486.908 213.297 488.333 213.297 490.3C213.297 490.967 213.63 491.3 214.297 491.3H216.747V492.35H213.347V501.15C213.347 501.417 213.355 501.617 213.372 501.75C213.405 501.867 213.505 501.992 213.672 502.125C213.839 502.242 214.097 502.3 214.447 502.3H215.247V503H209.847V502.3H210.147C210.514 502.3 210.78 502.242 210.947 502.125C211.13 501.992 211.23 501.867 211.247 501.75C211.28 501.617 211.297 501.417 211.297 501.15V493.25C211.297 492.933 211.239 492.708 211.122 492.575C211.005 492.425 210.764 492.35 210.397 492.35H209.847V491.3H211.297V490.2C211.297 485.867 213.047 483.7 216.547 483.7ZM216.991 508.8L217.391 506.85H217.741C217.774 507.033 217.924 507.233 218.191 507.45C218.457 507.683 218.741 507.8 219.041 507.8C220.074 507.8 220.807 507.45 221.241 506.75C221.674 506.05 222.124 504.783 222.591 502.95L218.791 493.1C218.641 492.75 218.482 492.5 218.316 492.35C218.149 492.183 217.891 492.1 217.541 492.1H217.191V491.35H222.091V492.1H221.941C221.241 492.1 220.891 492.3 220.891 492.7C220.891 492.783 220.974 493.05 221.141 493.5L223.691 500.3L226.491 493.25C226.691 492.85 226.791 492.6 226.791 492.5C226.791 492.35 226.691 492.25 226.491 492.2C226.307 492.133 225.924 492.1 225.341 492.1H225.141V491.35H229.791V492.1H229.541C228.974 492.1 228.582 492.183 228.366 492.35C228.149 492.517 227.957 492.833 227.791 493.3L222.741 505.95C222.291 507.05 221.749 507.867 221.116 508.4C220.499 508.933 219.657 509.2 218.591 509.2C218.191 509.2 217.657 509.067 216.991 508.8ZM231.89 500.65C232.273 500.65 232.565 500.783 232.765 501.05C232.982 501.317 233.09 501.642 233.09 502.025C233.09 502.408 232.932 502.733 232.615 503C232.298 503.267 231.948 503.4 231.565 503.4C231.198 503.4 230.907 503.267 230.69 503C230.49 502.733 230.39 502.417 230.39 502.05C230.39 501.683 230.548 501.358 230.865 501.075C231.182 500.792 231.523 500.65 231.89 500.65ZM255.428 503H251.078V502.3H251.178C251.362 502.3 251.512 502.208 251.628 502.025C251.762 501.842 251.828 501.617 251.828 501.35V495C251.828 494.333 251.662 493.783 251.328 493.35C251.012 492.917 250.595 492.7 250.078 492.7C249.578 492.7 249.112 492.817 248.678 493.05C248.262 493.283 247.92 493.567 247.653 493.9C247.403 494.233 247.178 494.583 246.978 494.95C246.645 495.6 246.478 496.083 246.478 496.4V501.3C246.478 501.967 246.845 502.3 247.578 502.3H248.028V503H243.678V502.3H243.828C243.978 502.3 244.112 502.208 244.228 502.025C244.362 501.842 244.428 501.617 244.428 501.35V495C244.428 494.333 244.27 493.783 243.953 493.35C243.637 492.917 243.203 492.7 242.653 492.7C242.12 492.7 241.612 492.875 241.128 493.225C240.645 493.575 240.262 493.983 239.978 494.45C239.412 495.4 239.128 496.067 239.128 496.45V501.2C239.128 501.467 239.137 501.658 239.153 501.775C239.187 501.892 239.287 502.008 239.453 502.125C239.62 502.242 239.878 502.3 240.228 502.3H240.678V503H235.628V502.3H236.028C236.478 502.3 236.762 502.225 236.878 502.075C237.012 501.925 237.078 501.683 237.078 501.35V493.85C237.078 493.533 236.97 493.308 236.753 493.175C236.553 493.025 236.178 492.95 235.628 492.95V492.25C235.962 492.25 236.462 492.133 237.128 491.9C237.812 491.65 238.328 491.417 238.678 491.2L239.128 491.1V494.3C239.612 493.167 240.187 492.333 240.853 491.8C241.537 491.267 242.462 491 243.628 491C244.162 491 244.628 491.117 245.028 491.35C245.428 491.567 245.728 491.858 245.928 492.225C246.262 492.875 246.445 493.567 246.478 494.3C246.862 493.183 247.403 492.358 248.103 491.825C248.803 491.275 249.745 491 250.928 491C251.528 491 252.037 491.133 252.453 491.4C252.87 491.667 253.17 492.008 253.353 492.425C253.67 493.142 253.828 493.85 253.828 494.55V501.3C253.828 501.533 253.845 501.708 253.878 501.825C253.962 502.142 254.312 502.3 254.928 502.3H255.428V503ZM266.931 499.95L267.381 500.4C266.315 502.367 264.398 503.35 261.631 503.35C260.348 503.35 259.248 502.783 258.331 501.65C257.431 500.517 256.981 499.25 256.981 497.85C256.981 495.967 257.59 494.358 258.806 493.025C260.04 491.675 261.531 491 263.281 491C264.115 491 264.848 491.242 265.481 491.725C266.615 492.608 267.181 493.75 267.181 495.15C267.181 495.35 267.14 495.592 267.056 495.875C266.99 496.158 266.931 496.3 266.881 496.3L258.831 496.55C258.831 497.85 259.24 499.05 260.056 500.15C260.873 501.25 261.865 501.8 263.031 501.8C263.865 501.8 264.631 501.633 265.331 501.3C266.048 500.95 266.581 500.5 266.931 499.95ZM259.081 495.55L264.931 495.3C264.965 495.3 264.981 495.15 264.981 494.85C264.981 493.983 264.723 493.367 264.206 493C263.706 492.633 263.006 492.45 262.106 492.45C261.223 492.45 260.498 492.725 259.931 493.275C259.365 493.825 259.081 494.583 259.081 495.55Z" fill="#553F2E"/>
<path d="M53.425 415.3C53.425 416.933 52.0917 418.467 49.425 419.9L49.475 420C49.9917 419.767 50.475 419.65 50.925 419.65C52.1417 419.65 53.1333 420.033 53.9 420.8C54.6833 421.55 55.075 422.617 55.075 424C55.075 425.9 54.3667 427.433 52.95 428.6C51.5333 429.767 49.875 430.35 47.975 430.35C47.0083 430.35 46.2 430.233 45.55 430C44.9167 429.783 44.275 429.383 43.625 428.8L44.025 426.15H44.675C44.9083 427.117 45.275 427.858 45.775 428.375C46.2917 428.892 47.2 429.15 48.5 429.15C49.8167 429.15 50.85 428.783 51.6 428.05C52.35 427.3 52.725 426.3 52.725 425.05C52.725 423.8 52.4083 422.817 51.775 422.1C51.1417 421.367 50.225 421 49.025 421C48.275 421 47.5917 421.083 46.975 421.25V420.55L48.075 419.95C49.125 419.433 49.8417 418.883 50.225 418.3C50.625 417.7 50.825 417 50.825 416.2C50.825 414.867 49.9917 414.2 48.325 414.2C47.3417 414.2 46.4167 414.567 45.55 415.3C45.1167 415.667 44.7833 415.967 44.55 416.2L44.075 415.7C45.3917 413.567 47.3583 412.5 49.975 412.5C51.0583 412.5 51.9 412.767 52.5 413.3C53.1167 413.817 53.425 414.483 53.425 415.3ZM67.8674 430H56.2674V429.4C58.6174 427.133 60.7174 424.783 62.5674 422.35C64.4341 419.9 65.3674 417.933 65.3674 416.45C65.3674 414.917 64.4841 414.15 62.7174 414.15C61.9674 414.15 61.1757 414.425 60.3424 414.975C59.5257 415.508 58.8674 416.15 58.3674 416.9L57.8174 416.45C58.434 415.25 59.2924 414.292 60.3924 413.575C61.509 412.858 62.8507 412.5 64.4174 412.5C65.4174 412.5 66.2257 412.783 66.8424 413.35C67.459 413.917 67.7674 414.8 67.7674 416C67.7674 417.517 67.1674 419.05 65.9674 420.6C65.3341 421.417 64.7174 422.15 64.1174 422.8C63.534 423.45 62.7174 424.325 61.6674 425.425C60.634 426.508 59.784 427.433 59.1174 428.2H65.0674C65.9507 428.2 66.6757 427.925 67.2424 427.375C67.8257 426.825 68.1174 426.267 68.1174 425.7L68.8174 425.85L67.8674 430ZM84.3742 430.35L83.9742 430.5L77.8242 414.35C77.6742 413.983 77.4992 413.708 77.2992 413.525C77.1159 413.342 76.8409 413.25 76.4742 413.25H75.6242V412.5H81.9742V413.25H81.1242C80.4242 413.25 80.0742 413.467 80.0742 413.9C80.0742 414.1 80.1576 414.4 80.3242 414.8L85.1742 427.4L90.1742 414.4L90.4242 413.65C90.4242 413.483 90.3242 413.375 90.1242 413.325C89.9242 413.275 89.5242 413.25 88.9242 413.25H88.3742V412.5H93.3242V413.25H93.0242C92.4576 413.25 92.0409 413.342 91.7742 413.525C91.5242 413.708 91.3242 414.033 91.1742 414.5L85.6742 428.8C85.0742 429.233 84.6409 429.75 84.3742 430.35ZM104.046 430H100.446V428C99.6122 428.9 98.9205 429.517 98.3705 429.85C97.8205 430.183 97.0705 430.35 96.1205 430.35C95.1872 430.35 94.4538 430.133 93.9205 429.7C93.4038 429.25 93.1455 428.625 93.1455 427.825C93.1455 427.025 93.4872 426.25 94.1705 425.5C94.8705 424.733 95.6788 424.158 96.5955 423.775C97.5288 423.375 98.3455 423.075 99.0455 422.875C99.7455 422.658 100.212 422.55 100.446 422.55V422C100.446 420.433 99.7955 419.65 98.4955 419.65C97.5955 419.65 96.7538 419.842 95.9705 420.225C95.2038 420.608 94.6288 421.1 94.2455 421.7L93.7455 421.25C94.8622 419.083 96.7955 418 99.5455 418C100.246 418 100.821 418.192 101.271 418.575C101.737 418.942 102.046 419.375 102.196 419.875C102.362 420.375 102.446 420.933 102.446 421.55V428.3C102.446 428.517 102.462 428.683 102.496 428.8C102.529 428.917 102.629 429.033 102.796 429.15C102.979 429.25 103.246 429.3 103.596 429.3H104.046V430ZM100.446 426.6V423.55C99.1455 423.8 97.9372 424.3 96.8205 425.05C95.7038 425.8 95.1455 426.617 95.1455 427.5C95.1455 427.85 95.3122 428.158 95.6455 428.425C95.9955 428.675 96.4205 428.8 96.9205 428.8C97.4372 428.8 98.0455 428.575 98.7455 428.125C99.4455 427.658 100.012 427.15 100.446 426.6ZM105.99 429.3L106.24 426.6L106.94 426.65C106.94 427.217 107.306 427.758 108.04 428.275C108.773 428.792 109.565 429.05 110.415 429.05C112.165 429.05 113.04 428.517 113.04 427.45C113.04 426.917 112.815 426.442 112.365 426.025C111.915 425.608 111.373 425.267 110.74 425C110.106 424.717 109.473 424.433 108.84 424.15C108.206 423.85 107.665 423.467 107.215 423C106.765 422.517 106.54 421.967 106.54 421.35C106.54 419.183 108.14 418.1 111.34 418.1C112.056 418.1 112.84 418.3 113.69 418.7L113.54 421.2H112.94C112.94 420.733 112.665 420.283 112.115 419.85C111.581 419.417 110.998 419.2 110.365 419.2C109.731 419.2 109.19 419.325 108.74 419.575C108.306 419.825 108.09 420.2 108.09 420.7C108.09 421.183 108.315 421.583 108.765 421.9C109.215 422.217 109.756 422.475 110.39 422.675C111.023 422.875 111.656 423.1 112.29 423.35C112.923 423.6 113.465 424.008 113.915 424.575C114.365 425.142 114.59 425.85 114.59 426.7C114.59 427.55 114.315 428.258 113.765 428.825C112.781 429.842 111.356 430.35 109.49 430.35C108.04 430.35 106.873 430 105.99 429.3ZM116.732 429.3L116.982 426.6L117.682 426.65C117.682 427.217 118.049 427.758 118.782 428.275C119.515 428.792 120.307 429.05 121.157 429.05C122.907 429.05 123.782 428.517 123.782 427.45C123.782 426.917 123.557 426.442 123.107 426.025C122.657 425.608 122.115 425.267 121.482 425C120.849 424.717 120.215 424.433 119.582 424.15C118.949 423.85 118.407 423.467 117.957 423C117.507 422.517 117.282 421.967 117.282 421.35C117.282 419.183 118.882 418.1 122.082 418.1C122.799 418.1 123.582 418.3 124.432 418.7L124.282 421.2H123.682C123.682 420.733 123.407 420.283 122.857 419.85C122.324 419.417 121.74 419.2 121.107 419.2C120.474 419.2 119.932 419.325 119.482 419.575C119.049 419.825 118.832 420.2 118.832 420.7C118.832 421.183 119.057 421.583 119.507 421.9C119.957 422.217 120.499 422.475 121.132 422.675C121.765 422.875 122.399 423.1 123.032 423.35C123.665 423.6 124.207 424.008 124.657 424.575C125.107 425.142 125.332 425.85 125.332 426.7C125.332 427.55 125.057 428.258 124.507 428.825C123.524 429.842 122.099 430.35 120.232 430.35C118.782 430.35 117.615 430 116.732 429.3ZM138.274 430H134.674V428C133.841 428.9 133.149 429.517 132.599 429.85C132.049 430.183 131.299 430.35 130.349 430.35C129.416 430.35 128.682 430.133 128.149 429.7C127.632 429.25 127.374 428.625 127.374 427.825C127.374 427.025 127.716 426.25 128.399 425.5C129.099 424.733 129.907 424.158 130.824 423.775C131.757 423.375 132.574 423.075 133.274 422.875C133.974 422.658 134.441 422.55 134.674 422.55V422C134.674 420.433 134.024 419.65 132.724 419.65C131.824 419.65 130.982 419.842 130.199 420.225C129.432 420.608 128.857 421.1 128.474 421.7L127.974 421.25C129.091 419.083 131.024 418 133.774 418C134.474 418 135.049 418.192 135.499 418.575C135.966 418.942 136.274 419.375 136.424 419.875C136.591 420.375 136.674 420.933 136.674 421.55V428.3C136.674 428.517 136.691 428.683 136.724 428.8C136.757 428.917 136.857 429.033 137.024 429.15C137.207 429.25 137.474 429.3 137.824 429.3H138.274V430ZM134.674 426.6V423.55C133.374 423.8 132.166 424.3 131.049 425.05C129.932 425.8 129.374 426.617 129.374 427.5C129.374 427.85 129.541 428.158 129.874 428.425C130.224 428.675 130.649 428.8 131.149 428.8C131.666 428.8 132.274 428.575 132.974 428.125C133.674 427.658 134.241 427.15 134.674 426.6ZM145.618 430H140.218V429.3H140.618C141.068 429.3 141.351 429.225 141.468 429.075C141.601 428.925 141.668 428.683 141.668 428.35V420.85C141.668 420.533 141.56 420.308 141.343 420.175C141.143 420.025 140.768 419.95 140.218 419.95V419.25C140.551 419.25 141.051 419.133 141.718 418.9C142.401 418.65 142.918 418.417 143.268 418.2L143.718 418.1V421.2C144.318 419.883 145.001 419.017 145.768 418.6C146.535 418.167 147.668 417.95 149.168 417.95L149.018 420.85H148.268C148.268 420.617 148.176 420.392 147.993 420.175C147.826 419.958 147.551 419.85 147.168 419.85C146.335 419.85 145.551 420.3 144.818 421.2C144.085 422.1 143.718 422.967 143.718 423.8V428.2C143.718 428.467 143.726 428.658 143.743 428.775C143.776 428.892 143.876 429.008 144.043 429.125C144.21 429.242 144.468 429.3 144.818 429.3H145.618V430ZM156.527 429.3L156.777 426.6L157.477 426.65C157.477 427.217 157.843 427.758 158.577 428.275C159.31 428.792 160.102 429.05 160.952 429.05C162.702 429.05 163.577 428.517 163.577 427.45C163.577 426.917 163.352 426.442 162.902 426.025C162.452 425.608 161.91 425.267 161.277 425C160.643 424.717 160.01 424.433 159.377 424.15C158.743 423.85 158.202 423.467 157.752 423C157.302 422.517 157.077 421.967 157.077 421.35C157.077 419.183 158.677 418.1 161.877 418.1C162.593 418.1 163.377 418.3 164.227 418.7L164.077 421.2H163.477C163.477 420.733 163.202 420.283 162.652 419.85C162.118 419.417 161.535 419.2 160.902 419.2C160.268 419.2 159.727 419.325 159.277 419.575C158.843 419.825 158.627 420.2 158.627 420.7C158.627 421.183 158.852 421.583 159.302 421.9C159.752 422.217 160.293 422.475 160.927 422.675C161.56 422.875 162.193 423.1 162.827 423.35C163.46 423.6 164.002 424.008 164.452 424.575C164.902 425.142 165.127 425.85 165.127 426.7C165.127 427.55 164.852 428.258 164.302 428.825C163.318 429.842 161.893 430.35 160.027 430.35C158.577 430.35 157.41 430 156.527 429.3ZM174.319 428.45L174.519 429.05C173.269 429.917 171.902 430.35 170.419 430.35C169.886 430.35 169.427 430.158 169.044 429.775C168.661 429.392 168.469 428.883 168.469 428.25V419.4H167.019V418.35H167.569C168.119 418.35 168.627 418.017 169.094 417.35C169.577 416.683 169.819 416.067 169.819 415.5H170.469V418.35H173.869V419.4H171.419C170.786 419.4 170.469 419.7 170.469 420.3V427.45C170.469 428.55 170.869 429.1 171.669 429.1C172.569 429.1 173.452 428.883 174.319 428.45ZM176.566 433.6L176.166 433.1C177.083 432.4 177.65 431.483 177.866 430.35C177.516 430.35 177.233 430.233 177.016 430C176.816 429.783 176.716 429.483 176.716 429.1C176.716 428.7 176.875 428.358 177.191 428.075C177.508 427.792 177.858 427.65 178.241 427.65C178.625 427.65 178.916 427.758 179.116 427.975C179.316 428.192 179.416 428.467 179.416 428.8C179.416 429.567 179.208 430.317 178.791 431.05C178.391 431.8 178.008 432.342 177.641 432.675C177.291 433.025 176.933 433.333 176.566 433.6ZM59.05 456.1L59.65 457C58.3 458.533 56.95 459.667 55.6 460.4C54.25 461.133 52.8 461.5 51.25 461.5C49.3333 461.5 47.625 460.658 46.125 458.975C44.6417 457.292 43.9 455.383 43.9 453.25C43.9 450.567 44.9083 448.2 46.925 446.15C48.9583 444.083 51.3167 443.05 54 443.05C55.0667 443.05 56.4 443.317 58 443.85L57.7 447.35H56.85C56.85 446.733 56.6417 446.25 56.225 445.9C55.8083 445.55 55.3333 445.333 54.8 445.25C54.2833 445.15 53.6333 445.1 52.85 445.1C50.9167 445.1 49.2333 445.667 47.8 446.8C46.3667 447.933 45.65 449.483 45.65 451.45C45.65 452.883 45.9167 454.158 46.45 455.275C46.9833 456.392 47.65 457.25 48.45 457.85C50.0333 459.017 51.55 459.6 53 459.6C53.9 459.6 54.9 459.308 56 458.725C57.1 458.142 58.1167 457.267 59.05 456.1ZM72.3072 461H68.7072V459C67.8739 459.9 67.1822 460.517 66.6322 460.85C66.0822 461.183 65.3322 461.35 64.3822 461.35C63.4489 461.35 62.7156 461.133 62.1822 460.7C61.6656 460.25 61.4072 459.625 61.4072 458.825C61.4072 458.025 61.7489 457.25 62.4322 456.5C63.1322 455.733 63.9406 455.158 64.8572 454.775C65.7906 454.375 66.6072 454.075 67.3072 453.875C68.0072 453.658 68.4739 453.55 68.7072 453.55V453C68.7072 451.433 68.0572 450.65 66.7572 450.65C65.8572 450.65 65.0156 450.842 64.2322 451.225C63.4656 451.608 62.8906 452.1 62.5072 452.7L62.0072 452.25C63.1239 450.083 65.0572 449 67.8072 449C68.5072 449 69.0822 449.192 69.5322 449.575C69.9989 449.942 70.3072 450.375 70.4572 450.875C70.6239 451.375 70.7072 451.933 70.7072 452.55V459.3C70.7072 459.517 70.7239 459.683 70.7572 459.8C70.7906 459.917 70.8906 460.033 71.0572 460.15C71.2406 460.25 71.5072 460.3 71.8572 460.3H72.3072V461ZM68.7072 457.6V454.55C67.4072 454.8 66.1989 455.3 65.0822 456.05C63.9656 456.8 63.4072 457.617 63.4072 458.5C63.4072 458.85 63.5739 459.158 63.9072 459.425C64.2572 459.675 64.6822 459.8 65.1822 459.8C65.6989 459.8 66.3072 459.575 67.0072 459.125C67.7072 458.658 68.2739 458.15 68.7072 457.6ZM94.0514 461H89.7014V460.3H89.8014C89.9847 460.3 90.1347 460.208 90.2514 460.025C90.3847 459.842 90.4514 459.617 90.4514 459.35V453C90.4514 452.333 90.2847 451.783 89.9514 451.35C89.6347 450.917 89.218 450.7 88.7014 450.7C88.2014 450.7 87.7347 450.817 87.3014 451.05C86.8847 451.283 86.543 451.567 86.2764 451.9C86.0264 452.233 85.8014 452.583 85.6014 452.95C85.268 453.6 85.1014 454.083 85.1014 454.4V459.3C85.1014 459.967 85.468 460.3 86.2014 460.3H86.6514V461H82.3014V460.3H82.4514C82.6014 460.3 82.7347 460.208 82.8514 460.025C82.9847 459.842 83.0514 459.617 83.0514 459.35V453C83.0514 452.333 82.893 451.783 82.5764 451.35C82.2597 450.917 81.8264 450.7 81.2764 450.7C80.743 450.7 80.2347 450.875 79.7514 451.225C79.268 451.575 78.8847 451.983 78.6014 452.45C78.0347 453.4 77.7514 454.067 77.7514 454.45V459.2C77.7514 459.467 77.7597 459.658 77.7764 459.775C77.8097 459.892 77.9097 460.008 78.0764 460.125C78.243 460.242 78.5014 460.3 78.8514 460.3H79.3014V461H74.2514V460.3H74.6514C75.1014 460.3 75.3847 460.225 75.5014 460.075C75.6347 459.925 75.7014 459.683 75.7014 459.35V451.85C75.7014 451.533 75.593 451.308 75.3764 451.175C75.1764 451.025 74.8014 450.95 74.2514 450.95V450.25C74.5847 450.25 75.0847 450.133 75.7514 449.9C76.4347 449.65 76.9514 449.417 77.3014 449.2L77.7514 449.1V452.3C78.2347 451.167 78.8097 450.333 79.4764 449.8C80.1597 449.267 81.0847 449 82.2514 449C82.7847 449 83.2514 449.117 83.6514 449.35C84.0514 449.567 84.3514 449.858 84.5514 450.225C84.8847 450.875 85.068 451.567 85.1014 452.3C85.4847 451.183 86.0264 450.358 86.7264 449.825C87.4264 449.275 88.368 449 89.5514 449C90.1514 449 90.6597 449.133 91.0764 449.4C91.493 449.667 91.793 450.008 91.9764 450.425C92.293 451.142 92.4514 451.85 92.4514 452.55V459.3C92.4514 459.533 92.468 459.708 92.5014 459.825C92.5847 460.142 92.9347 460.3 93.5514 460.3H94.0514V461ZM97.1043 459.8V444.5C97.1043 444.183 96.996 443.958 96.7793 443.825C96.5793 443.675 96.2043 443.6 95.6543 443.6V442.9C96.021 442.9 96.5376 442.808 97.2043 442.625C97.8876 442.442 98.3876 442.25 98.7043 442.05L99.1543 441.95V452.3C99.4876 451.333 100.046 450.542 100.829 449.925C101.613 449.308 102.579 449 103.729 449C104.896 449 105.813 449.383 106.479 450.15C107.163 450.9 107.504 451.917 107.504 453.2C107.504 455.55 106.888 457.5 105.654 459.05C104.421 460.583 102.904 461.35 101.104 461.35C100.471 461.35 99.7376 461.158 98.9043 460.775C98.0876 460.392 97.4876 460.067 97.1043 459.8ZM99.1543 454.3V458.75C99.3043 459.05 99.5376 459.325 99.8543 459.575C100.454 460.025 101.021 460.25 101.554 460.25C102.754 460.25 103.763 459.675 104.579 458.525C105.396 457.358 105.804 455.9 105.804 454.15C105.804 453.15 105.504 452.325 104.904 451.675C104.321 451.025 103.571 450.7 102.654 450.7C101.754 450.7 100.946 451.208 100.229 452.225C99.5126 453.225 99.1543 453.917 99.1543 454.3ZM114.71 461H109.31V460.3H109.71C110.16 460.3 110.443 460.225 110.56 460.075C110.693 459.925 110.76 459.683 110.76 459.35V451.85C110.76 451.533 110.652 451.308 110.435 451.175C110.235 451.025 109.86 450.95 109.31 450.95V450.25C109.643 450.25 110.143 450.133 110.81 449.9C111.493 449.65 112.01 449.417 112.36 449.2L112.81 449.1V452.2C113.41 450.883 114.093 450.017 114.86 449.6C115.627 449.167 116.76 448.95 118.26 448.95L118.11 451.85H117.36C117.36 451.617 117.268 451.392 117.085 451.175C116.918 450.958 116.643 450.85 116.26 450.85C115.427 450.85 114.643 451.3 113.91 452.2C113.177 453.1 112.81 453.967 112.81 454.8V459.2C112.81 459.467 112.818 459.658 112.835 459.775C112.868 459.892 112.968 460.008 113.135 460.125C113.302 460.242 113.56 460.3 113.91 460.3H114.71V461ZM121.669 443.6C122.052 443.6 122.344 443.725 122.544 443.975C122.76 444.225 122.869 444.55 122.869 444.95C122.869 445.333 122.71 445.658 122.394 445.925C122.077 446.175 121.727 446.3 121.344 446.3C120.977 446.3 120.685 446.175 120.469 445.925C120.269 445.675 120.169 445.367 120.169 445C120.169 444.617 120.327 444.292 120.644 444.025C120.96 443.742 121.302 443.6 121.669 443.6ZM124.419 461H119.369V460.3H119.769C120.219 460.3 120.502 460.225 120.619 460.075C120.752 459.925 120.819 459.683 120.819 459.35V451.85C120.819 451.533 120.71 451.308 120.494 451.175C120.294 451.025 119.919 450.95 119.369 450.95V450.25C119.702 450.25 120.202 450.133 120.869 449.9C121.552 449.65 122.069 449.417 122.419 449.2L122.869 449.1V459.2C122.869 459.467 122.877 459.658 122.894 459.775C122.927 459.892 123.027 460.008 123.194 460.125C123.36 460.242 123.619 460.3 123.969 460.3H124.419V461ZM137.974 461H134.374V458.1C134.024 459.05 133.458 459.833 132.674 460.45C131.891 461.05 130.916 461.35 129.749 461.35C128.599 461.35 127.691 460.975 127.024 460.225C126.358 459.475 126.024 458.467 126.024 457.2C126.024 454.85 126.633 452.9 127.849 451.35C129.083 449.783 130.591 449 132.374 449C132.774 449 133.441 449.167 134.374 449.5V444.5C134.374 444.183 134.266 443.958 134.049 443.825C133.833 443.675 133.458 443.6 132.924 443.6V442.9C133.274 442.9 133.791 442.808 134.474 442.625C135.158 442.442 135.641 442.25 135.924 442.05L136.374 441.95V459.3C136.374 459.617 136.433 459.85 136.549 460C136.683 460.133 136.991 460.2 137.474 460.2H137.974V461ZM134.374 456.05V451.6C134.308 451.5 134.208 451.367 134.074 451.2C133.941 451.033 133.658 450.817 133.224 450.55C132.808 450.283 132.374 450.15 131.924 450.15C130.708 450.15 129.691 450.725 128.874 451.875C128.074 453.025 127.674 454.483 127.674 456.25C127.674 457.233 127.966 458.05 128.549 458.7C129.149 459.333 129.908 459.65 130.824 459.65C131.758 459.65 132.583 459.15 133.299 458.15C134.016 457.133 134.374 456.433 134.374 456.05ZM143.572 459.7L146.072 459.6C147.972 459.6 149.288 459.808 150.022 460.225C150.755 460.625 151.122 461.275 151.122 462.175C151.122 463.075 150.863 463.858 150.347 464.525C149.83 465.192 149.155 465.717 148.322 466.1C146.672 466.833 144.905 467.2 143.022 467.2C141.922 467.2 141.03 466.933 140.347 466.4C139.663 465.883 139.322 465.233 139.322 464.45C139.322 462.617 140.105 461.433 141.672 460.9C141.288 460.9 140.972 460.817 140.722 460.65C140.488 460.483 140.372 460.3 140.372 460.1C140.372 459.883 140.405 459.675 140.472 459.475C140.538 459.275 140.647 459.075 140.797 458.875C140.947 458.658 141.072 458.492 141.172 458.375C141.288 458.242 141.472 458.05 141.722 457.8L142.222 457.3C141.322 456.5 140.872 455.417 140.872 454.05C140.872 452.667 141.388 451.475 142.422 450.475C143.455 449.458 144.588 448.95 145.822 448.95C146.588 448.95 147.272 449.167 147.872 449.6C148.572 448.8 149.738 448.4 151.372 448.4L151.122 450.55C151.022 450.4 150.847 450.258 150.597 450.125C150.347 449.975 150.155 449.9 150.022 449.9C149.572 449.9 149.105 450.05 148.622 450.35C149.255 451.083 149.572 451.967 149.572 453C149.572 454.3 149.072 455.458 148.072 456.475C147.072 457.492 145.938 458 144.672 458C144.022 458 143.488 457.883 143.072 457.65C142.372 458.483 142.022 459 142.022 459.2C142.022 459.533 142.538 459.7 143.572 459.7ZM144.822 460.95H143.072C142.555 461.267 142.213 461.508 142.047 461.675C141.88 461.842 141.738 462 141.622 462.15C141.505 462.3 141.405 462.45 141.322 462.6C141.155 462.95 141.072 463.342 141.072 463.775C141.072 464.208 141.272 464.583 141.672 464.9C142.355 465.4 143.305 465.65 144.522 465.65C145.755 465.65 146.897 465.442 147.947 465.025C148.997 464.608 149.522 464.033 149.522 463.3C149.522 462.567 149.097 461.992 148.247 461.575C147.397 461.158 146.255 460.95 144.822 460.95ZM142.472 453.175C142.472 454.058 142.78 454.842 143.397 455.525C144.03 456.208 144.738 456.55 145.522 456.55C146.305 456.55 146.905 456.308 147.322 455.825C147.755 455.325 147.972 454.667 147.972 453.85C147.972 453.017 147.663 452.233 147.047 451.5C146.447 450.767 145.738 450.4 144.922 450.4C144.105 450.4 143.488 450.642 143.072 451.125C142.672 451.592 142.472 452.275 142.472 453.175ZM162.219 457.95L162.669 458.4C161.603 460.367 159.686 461.35 156.919 461.35C155.636 461.35 154.536 460.783 153.619 459.65C152.719 458.517 152.269 457.25 152.269 455.85C152.269 453.967 152.878 452.358 154.094 451.025C155.328 449.675 156.819 449 158.569 449C159.403 449 160.136 449.242 160.769 449.725C161.903 450.608 162.469 451.75 162.469 453.15C162.469 453.35 162.428 453.592 162.344 453.875C162.278 454.158 162.219 454.3 162.169 454.3L154.119 454.55C154.119 455.85 154.528 457.05 155.344 458.15C156.161 459.25 157.153 459.8 158.319 459.8C159.153 459.8 159.919 459.633 160.619 459.3C161.336 458.95 161.869 458.5 162.219 457.95ZM154.369 453.55L160.219 453.3C160.253 453.3 160.269 453.15 160.269 452.85C160.269 451.983 160.011 451.367 159.494 451C158.994 450.633 158.294 450.45 157.394 450.45C156.511 450.45 155.786 450.725 155.219 451.275C154.653 451.825 154.369 452.583 154.369 453.55ZM165.214 464.6L164.814 464.1C165.73 463.4 166.297 462.483 166.514 461.35C166.164 461.35 165.88 461.233 165.664 461C165.464 460.783 165.364 460.483 165.364 460.1C165.364 459.7 165.522 459.358 165.839 459.075C166.155 458.792 166.505 458.65 166.889 458.65C167.272 458.65 167.564 458.758 167.764 458.975C167.964 459.192 168.064 459.467 168.064 459.8C168.064 460.567 167.855 461.317 167.439 462.05C167.039 462.8 166.655 463.342 166.289 463.675C165.939 464.025 165.58 464.333 165.214 464.6ZM186.902 460.75C186.885 460.75 186.844 460.75 186.777 460.75C186.71 460.75 186.452 460.917 186.002 461.25L180.252 446.2L179.052 459.3C179.019 459.567 179.144 459.792 179.427 459.975C179.71 460.158 180.102 460.25 180.602 460.25H181.652V461H175.652V460.25H176.452C177.419 460.25 177.935 459.883 178.002 459.15L179.252 445.35C179.285 445.033 179.169 444.775 178.902 444.575C178.652 444.358 178.252 444.25 177.702 444.25H176.902V443.5H181.602L186.952 457.6L192.352 443.5H196.852V444.2H195.852C195.052 444.2 194.652 444.508 194.652 445.125C194.652 445.175 194.652 445.233 194.652 445.3L195.802 459.15C195.835 459.533 195.927 459.817 196.077 460C196.244 460.167 196.535 460.25 196.952 460.25H197.952V461H191.552V460.25H192.402C192.869 460.25 193.185 460.175 193.352 460.025C193.519 459.875 193.602 459.717 193.602 459.55C193.602 459.367 193.602 459.233 193.602 459.15L192.502 446.05L186.902 460.75ZM216.421 461H210.021V460.3H210.821C211.554 460.3 211.921 460.067 211.921 459.6C211.921 459.533 211.837 459.25 211.671 458.75L209.971 454.3H203.671L202.021 458.55C202.021 458.583 201.962 458.792 201.846 459.175C201.729 459.542 201.671 459.8 201.671 459.95C201.671 460.083 201.762 460.175 201.946 460.225C202.129 460.275 202.521 460.3 203.121 460.3H203.521V461H198.621V460.3H198.971C199.521 460.3 199.921 460.208 200.171 460.025C200.421 459.825 200.637 459.5 200.821 459.05L206.321 444.7C206.404 444.683 206.554 444.567 206.771 444.35C206.987 444.117 207.187 443.883 207.371 443.65C207.554 443.4 207.646 443.258 207.646 443.225C207.646 443.192 207.637 443.167 207.621 443.15L207.971 443.05L214.121 459.15C214.304 459.533 214.487 459.825 214.671 460.025C214.871 460.208 215.154 460.3 215.521 460.3H216.421V461ZM209.521 453.25L206.821 446.1L204.071 453.25H209.521ZM232.807 460.2C231.757 461.067 230.673 461.5 229.557 461.5C228.44 461.5 227.415 461.092 226.482 460.275C225.548 459.442 224.823 458.367 224.307 457.05C223.807 455.733 223.557 454.35 223.557 452.9C223.557 450.417 224.265 448.233 225.682 446.35C227.098 444.45 228.673 443.5 230.407 443.5C231.523 443.5 232.548 443.908 233.482 444.725C234.415 445.542 235.132 446.6 235.632 447.9C236.148 449.2 236.407 450.617 236.407 452.15C236.407 453.683 236.073 455.192 235.407 456.675C234.74 458.158 233.873 459.333 232.807 460.2ZM229.182 445.6C227.932 445.6 226.957 446.175 226.257 447.325C225.573 448.458 225.232 449.8 225.232 451.35C225.232 453.75 225.732 455.692 226.732 457.175C227.732 458.642 229.115 459.375 230.882 459.375C232.182 459.375 233.157 458.808 233.807 457.675C234.473 456.542 234.807 455.175 234.807 453.575C234.807 451.242 234.307 449.333 233.307 447.85C232.323 446.35 230.948 445.6 229.182 445.6ZM249.093 461H237.493V460.4C239.843 458.133 241.943 455.783 243.793 453.35C245.66 450.9 246.593 448.933 246.593 447.45C246.593 445.917 245.71 445.15 243.943 445.15C243.193 445.15 242.401 445.425 241.568 445.975C240.751 446.508 240.093 447.15 239.593 447.9L239.043 447.45C239.66 446.25 240.518 445.292 241.618 444.575C242.735 443.858 244.076 443.5 245.643 443.5C246.643 443.5 247.451 443.783 248.068 444.35C248.685 444.917 248.993 445.8 248.993 447C248.993 448.517 248.393 450.05 247.193 451.6C246.56 452.417 245.943 453.15 245.343 453.8C244.76 454.45 243.943 455.325 242.893 456.425C241.86 457.508 241.01 458.433 240.343 459.2H246.293C247.176 459.2 247.901 458.925 248.468 458.375C249.051 457.825 249.343 457.267 249.343 456.7L250.043 456.85L249.093 461ZM258.938 461H252.038V460.3H252.988C254.055 460.3 254.588 459.917 254.588 459.15V447.35C254.588 446.867 254.396 446.517 254.013 446.3C253.63 446.067 252.888 445.95 251.788 445.95V445.25C253.621 445.25 255.088 444.7 256.188 443.6L256.788 443.5V459.15C256.788 459.617 256.888 459.925 257.088 460.075C257.288 460.225 257.705 460.3 258.338 460.3H258.938V461ZM268.338 461H261.438V460.3H262.388C263.454 460.3 263.988 459.917 263.988 459.15V447.35C263.988 446.867 263.796 446.517 263.413 446.3C263.029 446.067 262.288 445.95 261.188 445.95V445.25C263.021 445.25 264.488 444.7 265.588 443.6L266.188 443.5V459.15C266.188 459.617 266.288 459.925 266.488 460.075C266.688 460.225 267.104 460.3 267.738 460.3H268.338V461ZM277.937 454.1V445.7C275.22 449.667 273.387 452.442 272.437 454.025V454.125L277.937 454.1ZM282.237 461H275.887V460.3H276.737C277.237 460.3 277.562 460.2 277.712 460C277.862 459.8 277.937 459.517 277.937 459.15V455.7H269.962V455.225C270.979 453.575 272.42 451.533 274.287 449.1C276.154 446.65 277.37 445.033 277.937 444.25C278.687 444.25 279.27 443.883 279.687 443.15L280.037 443.05V454.1C281.92 454.1 282.945 453.633 283.112 452.7L283.587 452.8L282.887 455.7H280.037V459.15C280.037 459.517 280.12 459.8 280.287 460C280.454 460.2 280.787 460.3 281.287 460.3H282.237V461Z" fill="#553F2E"/>
</g>
<defs>
<clipPath id="clip0_0_1">
<rect width="553" height="312" fill="white" transform="translate(0 375)"/>
</clipPath>
</defs>
</svg>
